<?xml version="1.0" standalone="no"?>
<!DOCTYPE svg PUBLIC "-//W3C//DTD SVG 1.1//EN" "http://www.w3.org/Graphics/SVG/1.1/DTD/svg11.dtd" >
<svg xmlns="http://www.w3.org/2000/svg">
<metadata></metadata>
<defs>
<font id="american_purpose_casual_01Rg" horiz-adv-x="1583" >
<font-face units-per-em="2048" ascent="1536" descent="-512" />
<missing-glyph horiz-adv-x="337" />
<glyph horiz-adv-x="2048" />
<glyph horiz-adv-x="2048" />
<glyph unicode="&#xd;" horiz-adv-x="471" />
<glyph unicode=" "  horiz-adv-x="337" />
<glyph unicode="&#x09;" horiz-adv-x="337" />
<glyph unicode="&#xa0;" horiz-adv-x="337" />
<glyph unicode="!" horiz-adv-x="528" d="M92 127q0 68 52 111t124 43q66 0 109 -39t43 -103q0 -68 -53.5 -112.5t-124.5 -44.5q-66 0 -108 39.5t-42 105.5zM96 1163q0 45 3 97.5t19.5 96.5t51.5 72.5t96 28.5q74 0 110 -27.5t49 -70.5t10 -97.5t-9 -107.5q-12 -111 -25.5 -213t-23.5 -195.5t-16.5 -180.5 t-2.5 -169q-16 -14 -50 -22t-68 -8q-51 0 -82 32q4 61 -4.5 152.5t-20.5 196t-23.5 212t-13.5 203.5z" />
<glyph unicode="&#x22;" horiz-adv-x="702" d="M74 1284q0 84 12 139q20 6 52 11.5t65 5.5t62.5 -8.5t43.5 -28.5q-10 -43 -17 -118t-12.5 -154.5t-6.5 -151.5t-1 -111q-51 -33 -122 -32q-23 39 -40.5 115.5t-26.5 162.5t-9 170zM395 1285q2 83 8 136q18 8 51 15.5t68 7.5t65 -9.5t44 -29.5q0 -23 -4 -56.5t-12.5 -94 t-22.5 -155.5t-35 -241q-41 -8 -64.5 -10t-43.5 -2q-23 37 -34.5 111.5t-16.5 159.5t-3 168z" />
<glyph unicode="#" d="M68 731q0 150 56 282t154.5 230t230.5 155.5t282 57.5t281.5 -57.5t230 -155.5t156 -230t57.5 -282t-57.5 -282t-156 -230t-230 -155.5t-281.5 -57.5t-282 57.5t-230.5 155.5t-154.5 230.5t-56 281.5zM164 731q0 -129 49 -242.5t135 -199.5t200 -135.5t243 -49.5 q131 0 244.5 49.5t197.5 135.5t133 199.5t49 242.5t-49 242.5t-133 198.5t-197.5 134.5t-244.5 49.5q-129 0 -243 -49.5t-200 -134.5t-135 -198.5t-49 -242.5zM207 731q0 119 46 224.5t126 184.5t185.5 124t226.5 45q119 0 225 -45t185 -124t125 -184.5t46 -224.5 q0 -121 -46 -227.5t-125 -185t-185 -125t-225 -46.5q-121 0 -226.5 46.5t-185.5 125t-126 185t-46 227.5zM330 664l112 -177q346 -80 699 0l110 177h-921zM451 1063l151 -189q4 -4 15.5 -0.5t23.5 9.5t20.5 12t8.5 8q-29 57 -47.5 118.5t-53.5 111.5q-6 8 -26.5 -0.5 t-42 -22.5t-38 -28.5t-11.5 -18.5zM463 457q20 -35 51 -74t73 -70.5t92.5 -53t111.5 -21.5q59 0 110 21.5t92 53t73 70.5t52 74q-164 -43 -326.5 -42t-328.5 42zM715 731h155l-77 187zM918 903q-4 -2 4 -8t19 -12t23.5 -9.5t18.5 0.5l147 189q4 4 -11 18.5t-36.5 28.5 t-42 22.5t-26.5 0.5q-39 -49 -55.5 -110.5t-40.5 -119.5zM1290 102v23h84v-23h-31v-77h-22v77h-31zM1384 25v100h31l19 -78l18 78h29v-100h-19v77l-20 -77h-19l-20 77v-77h-19z" />
<glyph unicode="$" d="M68 731q0 150 56 282t154.5 230t230.5 155.5t282 57.5t281.5 -57.5t230 -155.5t156 -230t57.5 -282t-57.5 -282t-156 -230t-230 -155.5t-281.5 -57.5t-282 57.5t-230.5 155.5t-154.5 230.5t-56 281.5zM164 731q0 -129 49 -242.5t135 -199.5t200 -135.5t243 -49.5 q131 0 244.5 49.5t197.5 135.5t133 199.5t49 242.5t-49 242.5t-133 198.5t-197.5 134.5t-244.5 49.5q-129 0 -243 -49.5t-200 -134.5t-135 -198.5t-49 -242.5zM207 731q0 119 46 224.5t126 184.5t185.5 124t226.5 45q119 0 225 -45t185 -124t125 -184.5t46 -224.5 q0 -121 -46 -227.5t-125 -185t-185 -125t-225 -46.5q-121 0 -226.5 46.5t-185.5 125t-126 185t-46 227.5zM330 664l112 -177q346 -80 699 0l110 177h-921zM451 1063l151 -189q4 -4 15.5 -0.5t23.5 9.5t20.5 12t8.5 8q-29 57 -47.5 118.5t-53.5 111.5q-6 8 -26.5 -0.5 t-42 -22.5t-38 -28.5t-11.5 -18.5zM463 457q20 -35 51 -74t73 -70.5t92.5 -53t111.5 -21.5q59 0 110 21.5t92 53t73 70.5t52 74q-164 -43 -326.5 -42t-328.5 42zM715 731h155l-77 187zM918 903q-4 -2 4 -8t19 -12t23.5 -9.5t18.5 0.5l147 189q4 4 -11 18.5t-36.5 28.5 t-42 22.5t-26.5 0.5q-39 -49 -55.5 -110.5t-40.5 -119.5zM1290 102v23h84v-23h-31v-77h-22v77h-31zM1384 25v100h31l19 -78l18 78h29v-100h-19v77l-20 -77h-19l-20 77v-77h-19z" />
<glyph unicode="%" d="M68 731q0 150 56 282t154.5 230t230.5 155.5t282 57.5t281.5 -57.5t230 -155.5t156 -230t57.5 -282t-57.5 -282t-156 -230t-230 -155.5t-281.5 -57.5t-282 57.5t-230.5 155.5t-154.5 230.5t-56 281.5zM164 731q0 -129 49 -242.5t135 -199.5t200 -135.5t243 -49.5 q131 0 244.5 49.5t197.5 135.5t133 199.5t49 242.5t-49 242.5t-133 198.5t-197.5 134.5t-244.5 49.5q-129 0 -243 -49.5t-200 -134.5t-135 -198.5t-49 -242.5zM207 731q0 119 46 224.5t126 184.5t185.5 124t226.5 45q119 0 225 -45t185 -124t125 -184.5t46 -224.5 q0 -121 -46 -227.5t-125 -185t-185 -125t-225 -46.5q-121 0 -226.5 46.5t-185.5 125t-126 185t-46 227.5zM330 664l112 -177q346 -80 699 0l110 177h-921zM451 1063l151 -189q4 -4 15.5 -0.5t23.5 9.5t20.5 12t8.5 8q-29 57 -47.5 118.5t-53.5 111.5q-6 8 -26.5 -0.5 t-42 -22.5t-38 -28.5t-11.5 -18.5zM463 457q20 -35 51 -74t73 -70.5t92.5 -53t111.5 -21.5q59 0 110 21.5t92 53t73 70.5t52 74q-164 -43 -326.5 -42t-328.5 42zM715 731h155l-77 187zM918 903q-4 -2 4 -8t19 -12t23.5 -9.5t18.5 0.5l147 189q4 4 -11 18.5t-36.5 28.5 t-42 22.5t-26.5 0.5q-39 -49 -55.5 -110.5t-40.5 -119.5zM1290 102v23h84v-23h-31v-77h-22v77h-31zM1384 25v100h31l19 -78l18 78h29v-100h-19v77l-20 -77h-19l-20 77v-77h-19z" />
<glyph unicode="&#x26;" horiz-adv-x="1236" d="M40 365q1 84 30.5 160.5t85 142t131.5 112.5q-39 51 -65.5 119t-31.5 135q-4 100 25 181t82 136.5t126 85t159 29.5q160 0 235.5 -87t89.5 -234q8 -129 -63.5 -233.5t-200.5 -192.5q16 -23 40 -53.5t51.5 -61.5t54 -57.5t49.5 -44.5q41 63 59 142t29 140q18 -4 45.5 -20 t56.5 -41t52.5 -55.5t35.5 -61.5q-4 -25 -14 -60.5t-24.5 -72.5t-29 -70.5t-28.5 -56.5q51 -51 101 -88t104 -78q-23 -49 -57.5 -88t-84.5 -74q-45 23 -91 54.5t-109 79.5q-86 -98 -197 -138.5t-229 -40.5q-147 -6 -245.5 56.5t-139.5 169.5q-33 82 -32 166zM309 381 q6 -92 61.5 -131t133.5 -39q55 4 107.5 27.5t93.5 66.5q-72 55 -137.5 123t-141.5 172q-57 -35 -88 -95.5t-29 -123.5zM438 1026q6 -78 51 -135q94 51 145.5 121t49.5 123q-4 47 -31.5 73.5t-66.5 26.5q-41 0 -70 -17.5t-47 -47t-26.5 -67.5t-4.5 -77z" />
<glyph unicode="'" horiz-adv-x="378" d="M72 1285q2 83 8 136q18 8 51 15.5t67.5 7.5t64.5 -9.5t44 -29.5q0 -23 -4 -56.5t-12 -94t-22.5 -155.5t-35.5 -241q-41 -8 -64.5 -10t-43.5 -2q-23 37 -34 111.5t-16 159.5t-3 168z" />
<glyph unicode="(" d="M68 731q0 150 56 282t154.5 230t230.5 155.5t282 57.5t281.5 -57.5t230 -155.5t156 -230t57.5 -282t-57.5 -282t-156 -230t-230 -155.5t-281.5 -57.5t-282 57.5t-230.5 155.5t-154.5 230.5t-56 281.5zM164 731q0 -129 49 -242.5t135 -199.5t200 -135.5t243 -49.5 q131 0 244.5 49.5t197.5 135.5t133 199.5t49 242.5t-49 242.5t-133 198.5t-197.5 134.5t-244.5 49.5q-129 0 -243 -49.5t-200 -134.5t-135 -198.5t-49 -242.5zM207 731q0 119 46 224.5t126 184.5t185.5 124t226.5 45q119 0 225 -45t185 -124t125 -184.5t46 -224.5 q0 -121 -46 -227.5t-125 -185t-185 -125t-225 -46.5q-121 0 -226.5 46.5t-185.5 125t-126 185t-46 227.5zM330 664l112 -177q346 -80 699 0l110 177h-921zM451 1063l151 -189q4 -4 15.5 -0.5t23.5 9.5t20.5 12t8.5 8q-29 57 -47.5 118.5t-53.5 111.5q-6 8 -26.5 -0.5 t-42 -22.5t-38 -28.5t-11.5 -18.5zM463 457q20 -35 51 -74t73 -70.5t92.5 -53t111.5 -21.5q59 0 110 21.5t92 53t73 70.5t52 74q-164 -43 -326.5 -42t-328.5 42zM715 731h155l-77 187zM918 903q-4 -2 4 -8t19 -12t23.5 -9.5t18.5 0.5l147 189q4 4 -11 18.5t-36.5 28.5 t-42 22.5t-26.5 0.5q-39 -49 -55.5 -110.5t-40.5 -119.5zM1290 102v23h84v-23h-31v-77h-22v77h-31zM1384 25v100h31l19 -78l18 78h29v-100h-19v77l-20 -77h-19l-20 77v-77h-19z" />
<glyph unicode=")" d="M68 731q0 150 56 282t154.5 230t230.5 155.5t282 57.5t281.5 -57.5t230 -155.5t156 -230t57.5 -282t-57.5 -282t-156 -230t-230 -155.5t-281.5 -57.5t-282 57.5t-230.5 155.5t-154.5 230.5t-56 281.5zM164 731q0 -129 49 -242.5t135 -199.5t200 -135.5t243 -49.5 q131 0 244.5 49.5t197.5 135.5t133 199.5t49 242.5t-49 242.5t-133 198.5t-197.5 134.5t-244.5 49.5q-129 0 -243 -49.5t-200 -134.5t-135 -198.5t-49 -242.5zM207 731q0 119 46 224.5t126 184.5t185.5 124t226.5 45q119 0 225 -45t185 -124t125 -184.5t46 -224.5 q0 -121 -46 -227.5t-125 -185t-185 -125t-225 -46.5q-121 0 -226.5 46.5t-185.5 125t-126 185t-46 227.5zM330 664l112 -177q346 -80 699 0l110 177h-921zM451 1063l151 -189q4 -4 15.5 -0.5t23.5 9.5t20.5 12t8.5 8q-29 57 -47.5 118.5t-53.5 111.5q-6 8 -26.5 -0.5 t-42 -22.5t-38 -28.5t-11.5 -18.5zM463 457q20 -35 51 -74t73 -70.5t92.5 -53t111.5 -21.5q59 0 110 21.5t92 53t73 70.5t52 74q-164 -43 -326.5 -42t-328.5 42zM715 731h155l-77 187zM918 903q-4 -2 4 -8t19 -12t23.5 -9.5t18.5 0.5l147 189q4 4 -11 18.5t-36.5 28.5 t-42 22.5t-26.5 0.5q-39 -49 -55.5 -110.5t-40.5 -119.5zM1290 102v23h84v-23h-31v-77h-22v77h-31zM1384 25v100h31l19 -78l18 78h29v-100h-19v77l-20 -77h-19l-20 77v-77h-19z" />
<glyph unicode="*" d="M68 731q0 150 56 282t154.5 230t230.5 155.5t282 57.5t281.5 -57.5t230 -155.5t156 -230t57.5 -282t-57.5 -282t-156 -230t-230 -155.5t-281.5 -57.5t-282 57.5t-230.5 155.5t-154.5 230.5t-56 281.5zM164 731q0 -129 49 -242.5t135 -199.5t200 -135.5t243 -49.5 q131 0 244.5 49.5t197.5 135.5t133 199.5t49 242.5t-49 242.5t-133 198.5t-197.5 134.5t-244.5 49.5q-129 0 -243 -49.5t-200 -134.5t-135 -198.5t-49 -242.5zM207 731q0 119 46 224.5t126 184.5t185.5 124t226.5 45q119 0 225 -45t185 -124t125 -184.5t46 -224.5 q0 -121 -46 -227.5t-125 -185t-185 -125t-225 -46.5q-121 0 -226.5 46.5t-185.5 125t-126 185t-46 227.5zM330 664l112 -177q346 -80 699 0l110 177h-921zM451 1063l151 -189q4 -4 15.5 -0.5t23.5 9.5t20.5 12t8.5 8q-29 57 -47.5 118.5t-53.5 111.5q-6 8 -26.5 -0.5 t-42 -22.5t-38 -28.5t-11.5 -18.5zM463 457q20 -35 51 -74t73 -70.5t92.5 -53t111.5 -21.5q59 0 110 21.5t92 53t73 70.5t52 74q-164 -43 -326.5 -42t-328.5 42zM715 731h155l-77 187zM918 903q-4 -2 4 -8t19 -12t23.5 -9.5t18.5 0.5l147 189q4 4 -11 18.5t-36.5 28.5 t-42 22.5t-26.5 0.5q-39 -49 -55.5 -110.5t-40.5 -119.5zM1290 102v23h84v-23h-31v-77h-22v77h-31zM1384 25v100h31l19 -78l18 78h29v-100h-19v77l-20 -77h-19l-20 77v-77h-19z" />
<glyph unicode="+" d="M68 731q0 150 56 282t154.5 230t230.5 155.5t282 57.5t281.5 -57.5t230 -155.5t156 -230t57.5 -282t-57.5 -282t-156 -230t-230 -155.5t-281.5 -57.5t-282 57.5t-230.5 155.5t-154.5 230.5t-56 281.5zM164 731q0 -129 49 -242.5t135 -199.5t200 -135.5t243 -49.5 q131 0 244.5 49.5t197.5 135.5t133 199.5t49 242.5t-49 242.5t-133 198.5t-197.5 134.5t-244.5 49.5q-129 0 -243 -49.5t-200 -134.5t-135 -198.5t-49 -242.5zM207 731q0 119 46 224.5t126 184.5t185.5 124t226.5 45q119 0 225 -45t185 -124t125 -184.5t46 -224.5 q0 -121 -46 -227.5t-125 -185t-185 -125t-225 -46.5q-121 0 -226.5 46.5t-185.5 125t-126 185t-46 227.5zM330 664l112 -177q346 -80 699 0l110 177h-921zM451 1063l151 -189q4 -4 15.5 -0.5t23.5 9.5t20.5 12t8.5 8q-29 57 -47.5 118.5t-53.5 111.5q-6 8 -26.5 -0.5 t-42 -22.5t-38 -28.5t-11.5 -18.5zM463 457q20 -35 51 -74t73 -70.5t92.5 -53t111.5 -21.5q59 0 110 21.5t92 53t73 70.5t52 74q-164 -43 -326.5 -42t-328.5 42zM715 731h155l-77 187zM918 903q-4 -2 4 -8t19 -12t23.5 -9.5t18.5 0.5l147 189q4 4 -11 18.5t-36.5 28.5 t-42 22.5t-26.5 0.5q-39 -49 -55.5 -110.5t-40.5 -119.5zM1290 102v23h84v-23h-31v-77h-22v77h-31zM1384 25v100h31l19 -78l18 78h29v-100h-19v77l-20 -77h-19l-20 77v-77h-19z" />
<glyph unicode="," horiz-adv-x="473" d="M74 152q4 72 55 106.5t113 34.5q72 0 115.5 -44t43.5 -116q0 -31 -8 -68.5t-27.5 -77.5t-55.5 -80t-91 -75q-37 0 -51 18q27 29 51.5 67t16.5 83q-25 -4 -54.5 -1t-54.5 20.5t-41 49t-12 83.5z" />
<glyph unicode="-" horiz-adv-x="647" d="M88 647q0 14 3 34.5t12.5 40t29 35t49.5 17.5q43 4 95.5 6t101.5 1t92 -5t70 -10q27 -33 33 -67.5t6 -82.5q0 -29 -7.5 -57.5t-19.5 -40.5q-43 6 -102.5 9t-121 3t-117.5 -4t-95 -10q-14 18 -21.5 57t-7.5 74z" />
<glyph unicode="." horiz-adv-x="471" d="M72 127q0 68 52 111t124 43q66 0 108.5 -39t42.5 -103q0 -68 -53 -112.5t-125 -44.5q-66 0 -107.5 39.5t-41.5 105.5z" />
<glyph unicode="/" d="M68 731q0 150 56 282t154.5 230t230.5 155.5t282 57.5t281.5 -57.5t230 -155.5t156 -230t57.5 -282t-57.5 -282t-156 -230t-230 -155.5t-281.5 -57.5t-282 57.5t-230.5 155.5t-154.5 230.5t-56 281.5zM164 731q0 -129 49 -242.5t135 -199.5t200 -135.5t243 -49.5 q131 0 244.5 49.5t197.5 135.5t133 199.5t49 242.5t-49 242.5t-133 198.5t-197.5 134.5t-244.5 49.5q-129 0 -243 -49.5t-200 -134.5t-135 -198.5t-49 -242.5zM207 731q0 119 46 224.5t126 184.5t185.5 124t226.5 45q119 0 225 -45t185 -124t125 -184.5t46 -224.5 q0 -121 -46 -227.5t-125 -185t-185 -125t-225 -46.5q-121 0 -226.5 46.5t-185.5 125t-126 185t-46 227.5zM330 664l112 -177q346 -80 699 0l110 177h-921zM451 1063l151 -189q4 -4 15.5 -0.5t23.5 9.5t20.5 12t8.5 8q-29 57 -47.5 118.5t-53.5 111.5q-6 8 -26.5 -0.5 t-42 -22.5t-38 -28.5t-11.5 -18.5zM463 457q20 -35 51 -74t73 -70.5t92.5 -53t111.5 -21.5q59 0 110 21.5t92 53t73 70.5t52 74q-164 -43 -326.5 -42t-328.5 42zM715 731h155l-77 187zM918 903q-4 -2 4 -8t19 -12t23.5 -9.5t18.5 0.5l147 189q4 4 -11 18.5t-36.5 28.5 t-42 22.5t-26.5 0.5q-39 -49 -55.5 -110.5t-40.5 -119.5zM1290 102v23h84v-23h-31v-77h-22v77h-31zM1384 25v100h31l19 -78l18 78h29v-100h-19v77l-20 -77h-19l-20 77v-77h-19z" />
<glyph unicode="0" horiz-adv-x="1091" d="M51 686q0 162 31 315.5t108 264.5q59 84 155.5 131t211.5 47q111 0 191.5 -24.5t136.5 -96.5q51 -53 81.5 -121.5t47 -145.5t21.5 -161t5 -168q0 -137 -26.5 -270t-86 -237.5t-155.5 -169t-237 -64.5q-133 0 -225.5 59t-150 157.5t-83 224.5t-25.5 259zM336 684 q0 -223 54 -334.5t153 -111.5q104 0 160.5 132t56.5 365q0 223 -53.5 326.5t-151.5 103.5q-94 0 -156.5 -120.5t-62.5 -360.5z" />
<glyph unicode="1" horiz-adv-x="532" d="M51 1194q8 16 25.5 54t38 78t43 69.5t39.5 29.5q25 2 56.5 2t66 -1t68.5 -3t61 -6q6 -37 8 -79t2 -76v-69t-2 -107.5t-7.5 -184.5t-13.5 -299q-6 -135 -4 -271t12 -296q-49 -18 -123.5 -26.5t-136.5 -8.5q-16 51 -23 125t-7 205q0 49 1 105.5t4 148.5t10 231t17 352 q-31 2 -71.5 7.5t-63.5 19.5z" />
<glyph unicode="2" horiz-adv-x="933" d="M41 158q47 59 132 147t174 192.5t163 218t98 228.5q6 29 8 67t-6 72q-14 59 -46 87t-72 28q-53 0 -101.5 -20.5t-92.5 -54t-82 -74.5t-71 -84q-16 27 -29.5 60.5t-21.5 67t-10 67.5t4 61q33 51 82 94t107.5 72.5t124 46t130.5 16.5q59 0 117 -17.5t106 -52t82.5 -87 t47.5 -126.5q16 -100 -5.5 -226t-82.5 -241q-68 -129 -158 -250.5t-188 -211.5q39 4 101 4t125.5 -6.5t118 -17.5t81.5 -28q0 -111 -37 -180q-80 10 -187.5 13.5t-217 2.5t-205 -8.5t-150.5 -17.5q-16 29 -27.5 71t-11.5 87z" />
<glyph unicode="3" horiz-adv-x="960" d="M51 172q2 33 14.5 64.5t31 57t39 42t36.5 20.5q43 -66 101.5 -102.5t132.5 -36.5q102 0 170.5 51t66.5 152q-2 47 -22.5 79.5t-52 52t-71.5 29t-81 9.5q-43 0 -76 -6t-82 -11q-35 41 -40 96.5t-1 114.5q94 18 172 42t133.5 58t84 82t26.5 117q-14 63 -44 94t-71 31 q-74 0 -163 -54t-183 -153q-27 41 -52.5 96.5t-35.5 121.5q20 33 68.5 72.5t111 73.5t135 57.5t140.5 23.5q59 0 123.5 -19.5t118 -59.5t88 -100.5t36.5 -144.5q2 -53 -12 -107t-44 -105.5t-78 -93.5t-114 -68q111 -31 178.5 -123.5t71.5 -210.5q4 -115 -31.5 -197 t-100 -135t-150.5 -77.5t-185 -24.5q-143 0 -248.5 53t-140.5 139z" />
<glyph unicode="4" horiz-adv-x="1093" d="M43 502q-2 10 8 28q39 94 101.5 218t136 250t152.5 242t153 196q35 2 79 4t88 1t87 -5.5t78 -12.5q-6 -94 -11.5 -203.5t-10.5 -223t-9 -224t-4 -205.5q47 -2 90 -6t70 -14q4 -47 1 -106.5t-10 -100.5q-41 -4 -72.5 -3t-82.5 -3q-2 -82 -1 -153.5t17 -157.5 q-86 -20 -158.5 -21.5t-107.5 -1.5q-8 29 -13.5 71t-6.5 87t-1 90v82q-131 0 -259 -7.5t-255 -21.5q-25 35 -41 91.5t-18 109.5zM348 563q68 4 134.5 7t133.5 1q0 41 2.5 120t7.5 165t11 163t12 116q-43 -66 -86 -139.5t-83 -148.5t-73.5 -147.5t-58.5 -136.5z" />
<glyph unicode="5" horiz-adv-x="962" d="M51 645q4 68 15.5 159t24.5 189.5t30.5 195.5t34.5 175q4 14 11 29.5t46 19.5q57 6 133 9t157 4t157.5 -1t138.5 -8q10 -37 19 -91t9 -124q-41 4 -100 5t-121.5 1t-119 -3t-89.5 -9q-23 -80 -39 -174t-24 -180q37 23 91 34t99 11q86 0 159 -22.5t126 -75t83 -135.5 t30 -203q0 -111 -35 -197t-97.5 -146.5t-149.5 -91t-194 -30.5q-59 0 -118.5 11t-111.5 33.5t-95 55.5t-68 76q2 68 25.5 134t52.5 110q37 -55 71 -91t68.5 -57.5t74.5 -33t87 -13.5q86 4 147.5 60.5t61.5 168.5q0 47 -17.5 84t-46 62.5t-66.5 39t-79 13.5q-117 0 -246 -90 q-37 10 -76.5 37.5t-58.5 58.5z" />
<glyph unicode="6" horiz-adv-x="1044" d="M55 486.5q-8 134.5 6 267.5q12 123 49 245.5t99.5 222t152 163t205.5 67.5q35 2 79 -4t91 -19.5t91 -35t79 -47.5q-4 -43 -16 -110t-27 -116q-66 55 -122 73.5t-109 18.5q-49 0 -92 -19t-78 -60t-58.5 -103.5t-29.5 -148.5q45 39 108.5 54t114.5 15q84 0 154.5 -29.5 t123 -86t83 -137.5t34.5 -183q0 -139 -35.5 -240.5t-100 -167t-154 -95t-195.5 -25.5q-158 6 -253 76.5t-143.5 180t-56.5 244zM328 459q0 -47 10 -91t32.5 -78t57.5 -55.5t82 -21.5q109 0 161 77t52 187q0 111 -43 181.5t-141 70.5q-55 0 -95.5 -21.5t-66 -58.5t-37.5 -86 t-12 -104z" />
<glyph unicode="7" horiz-adv-x="944" d="M31 1178q2 27 8 62.5t15 70.5t19.5 65.5t18.5 48.5q174 -10 339 -4t321 11q51 2 90 0t71 -29q-2 -18 -6 -46t-16 -71t-34.5 -106.5t-61.5 -151.5q-115 -262 -200 -520t-128 -483q-23 -10 -54.5 -18.5t-67.5 -14.5t-72.5 -10.5t-69.5 -4.5q-14 37 -10 80t10 82 q14 84 41.5 181.5t63.5 199t75 200.5t75 187t63.5 159t41.5 116q-121 -4 -262 -8.5t-270 4.5z" />
<glyph unicode="8" horiz-adv-x="1032" d="M53 319q-4 117 48.5 213.5t150.5 169.5q-76 49 -122 118t-61.5 144.5t-1 154.5t59.5 149q57 86 160.5 133t269.5 51q39 0 83 -3t87 -12.5t82 -21.5t68 -31q2 -10 2 -25.5t-2 -27.5q66 -70 90 -155.5t6.5 -171.5t-77.5 -164t-163 -127q117 -61 174.5 -166t57.5 -213 q-2 -88 -39 -153.5t-98.5 -109.5t-140.5 -68t-165 -26q-98 -2 -182 14.5t-146.5 56.5t-99.5 106.5t-41 164.5zM332 356q2 -80 51 -121.5t135 -39.5q63 4 112.5 44t49.5 111q0 86 -52.5 145.5t-131.5 86.5q-31 -10 -60.5 -30t-53.5 -49.5t-37 -66.5t-13 -80zM344 1014 q2 -27 15.5 -56.5t35 -56.5t49 -48.5t62.5 -31.5q98 37 155.5 115t45.5 190q-16 41 -51 75t-113 32q-63 0 -103.5 -20.5t-63 -52.5t-29.5 -70.5t-3 -75.5z" />
<glyph unicode="9" horiz-adv-x="1048" d="M53 948q6 119 44 213t99.5 158.5t144.5 96.5t181 30q100 -2 175 -31t141 -98q51 -53 82.5 -122t50 -149.5t23.5 -171t1 -182.5q-8 -141 -42.5 -271t-100.5 -228.5t-166 -154.5t-237 -48q-90 4 -164 25.5t-121 54.5q-2 47 5 109.5t17 113.5q49 -41 115 -62.5t121 -25.5 q74 -4 126 22.5t88 76.5t53.5 120t19.5 151q-41 -66 -125 -98.5t-168 -23.5q-178 16 -276.5 147t-86.5 348zM315 956q-6 -123 40.5 -200.5t142.5 -83.5q51 0 90 20.5t66.5 55t42 80.5t18.5 96q2 51 -7.5 102t-31 92t-56 66.5t-79.5 27.5q-55 2 -96.5 -19.5t-69 -58 t-43 -83.5t-17.5 -95z" />
<glyph unicode=":" horiz-adv-x="471" d="M72 127q0 68 52 111t124 43q66 0 108.5 -39t42.5 -103q0 -68 -53 -112.5t-125 -44.5q-66 0 -107.5 39.5t-41.5 105.5zM72 834q0 68 52 110.5t124 42.5q66 0 108.5 -39t42.5 -102q0 -68 -53 -113t-125 -45q-66 0 -107.5 40t-41.5 106z" />
<glyph unicode=";" horiz-adv-x="473" d="M72 831q0 68 52 111t124 43q66 0 108.5 -39t42.5 -102q0 -68 -53 -113t-125 -45q-66 0 -107.5 40t-41.5 105zM74 152q4 72 55 106.5t113 34.5q72 0 115.5 -44t43.5 -116q0 -31 -8 -68.5t-27.5 -77.5t-55.5 -80t-91 -75q-37 0 -51 18q27 29 51.5 67t16.5 83 q-25 -4 -54.5 -1t-54.5 20.5t-41 49t-12 83.5z" />
<glyph unicode="&#x3c;" d="M68 731q0 150 56 282t154.5 230t230.5 155.5t282 57.5t281.5 -57.5t230 -155.5t156 -230t57.5 -282t-57.5 -282t-156 -230t-230 -155.5t-281.5 -57.5t-282 57.5t-230.5 155.5t-154.5 230.5t-56 281.5zM164 731q0 -129 49 -242.5t135 -199.5t200 -135.5t243 -49.5 q131 0 244.5 49.5t197.5 135.5t133 199.5t49 242.5t-49 242.5t-133 198.5t-197.5 134.5t-244.5 49.5q-129 0 -243 -49.5t-200 -134.5t-135 -198.5t-49 -242.5zM207 731q0 119 46 224.5t126 184.5t185.5 124t226.5 45q119 0 225 -45t185 -124t125 -184.5t46 -224.5 q0 -121 -46 -227.5t-125 -185t-185 -125t-225 -46.5q-121 0 -226.5 46.5t-185.5 125t-126 185t-46 227.5zM330 664l112 -177q346 -80 699 0l110 177h-921zM451 1063l151 -189q4 -4 15.5 -0.5t23.5 9.5t20.5 12t8.5 8q-29 57 -47.5 118.5t-53.5 111.5q-6 8 -26.5 -0.5 t-42 -22.5t-38 -28.5t-11.5 -18.5zM463 457q20 -35 51 -74t73 -70.5t92.5 -53t111.5 -21.5q59 0 110 21.5t92 53t73 70.5t52 74q-164 -43 -326.5 -42t-328.5 42zM715 731h155l-77 187zM918 903q-4 -2 4 -8t19 -12t23.5 -9.5t18.5 0.5l147 189q4 4 -11 18.5t-36.5 28.5 t-42 22.5t-26.5 0.5q-39 -49 -55.5 -110.5t-40.5 -119.5zM1290 102v23h84v-23h-31v-77h-22v77h-31zM1384 25v100h31l19 -78l18 78h29v-100h-19v77l-20 -77h-19l-20 77v-77h-19z" />
<glyph unicode="=" d="M68 731q0 150 56 282t154.5 230t230.5 155.5t282 57.5t281.5 -57.5t230 -155.5t156 -230t57.5 -282t-57.5 -282t-156 -230t-230 -155.5t-281.5 -57.5t-282 57.5t-230.5 155.5t-154.5 230.5t-56 281.5zM164 731q0 -129 49 -242.5t135 -199.5t200 -135.5t243 -49.5 q131 0 244.5 49.5t197.5 135.5t133 199.5t49 242.5t-49 242.5t-133 198.5t-197.5 134.5t-244.5 49.5q-129 0 -243 -49.5t-200 -134.5t-135 -198.5t-49 -242.5zM207 731q0 119 46 224.5t126 184.5t185.5 124t226.5 45q119 0 225 -45t185 -124t125 -184.5t46 -224.5 q0 -121 -46 -227.5t-125 -185t-185 -125t-225 -46.5q-121 0 -226.5 46.5t-185.5 125t-126 185t-46 227.5zM330 664l112 -177q346 -80 699 0l110 177h-921zM451 1063l151 -189q4 -4 15.5 -0.5t23.5 9.5t20.5 12t8.5 8q-29 57 -47.5 118.5t-53.5 111.5q-6 8 -26.5 -0.5 t-42 -22.5t-38 -28.5t-11.5 -18.5zM463 457q20 -35 51 -74t73 -70.5t92.5 -53t111.5 -21.5q59 0 110 21.5t92 53t73 70.5t52 74q-164 -43 -326.5 -42t-328.5 42zM715 731h155l-77 187zM918 903q-4 -2 4 -8t19 -12t23.5 -9.5t18.5 0.5l147 189q4 4 -11 18.5t-36.5 28.5 t-42 22.5t-26.5 0.5q-39 -49 -55.5 -110.5t-40.5 -119.5zM1290 102v23h84v-23h-31v-77h-22v77h-31zM1384 25v100h31l19 -78l18 78h29v-100h-19v77l-20 -77h-19l-20 77v-77h-19z" />
<glyph unicode="&#x3e;" d="M68 731q0 150 56 282t154.5 230t230.5 155.5t282 57.5t281.5 -57.5t230 -155.5t156 -230t57.5 -282t-57.5 -282t-156 -230t-230 -155.5t-281.5 -57.5t-282 57.5t-230.5 155.5t-154.5 230.5t-56 281.5zM164 731q0 -129 49 -242.5t135 -199.5t200 -135.5t243 -49.5 q131 0 244.5 49.5t197.5 135.5t133 199.5t49 242.5t-49 242.5t-133 198.5t-197.5 134.5t-244.5 49.5q-129 0 -243 -49.5t-200 -134.5t-135 -198.5t-49 -242.5zM207 731q0 119 46 224.5t126 184.5t185.5 124t226.5 45q119 0 225 -45t185 -124t125 -184.5t46 -224.5 q0 -121 -46 -227.5t-125 -185t-185 -125t-225 -46.5q-121 0 -226.5 46.5t-185.5 125t-126 185t-46 227.5zM330 664l112 -177q346 -80 699 0l110 177h-921zM451 1063l151 -189q4 -4 15.5 -0.5t23.5 9.5t20.5 12t8.5 8q-29 57 -47.5 118.5t-53.5 111.5q-6 8 -26.5 -0.5 t-42 -22.5t-38 -28.5t-11.5 -18.5zM463 457q20 -35 51 -74t73 -70.5t92.5 -53t111.5 -21.5q59 0 110 21.5t92 53t73 70.5t52 74q-164 -43 -326.5 -42t-328.5 42zM715 731h155l-77 187zM918 903q-4 -2 4 -8t19 -12t23.5 -9.5t18.5 0.5l147 189q4 4 -11 18.5t-36.5 28.5 t-42 22.5t-26.5 0.5q-39 -49 -55.5 -110.5t-40.5 -119.5zM1290 102v23h84v-23h-31v-77h-22v77h-31zM1384 25v100h31l19 -78l18 78h29v-100h-19v77l-20 -77h-19l-20 77v-77h-19z" />
<glyph unicode="?" horiz-adv-x="903" d="M55 1305q86 72 188.5 107.5t209.5 35.5q88 0 161.5 -24.5t127 -70.5t82 -115t28.5 -155q0 -102 -42 -203.5t-161 -185.5q-78 -55 -138 -102t-83 -100q-8 -23 -10 -47.5t2 -47.5q-45 -12 -93 -20t-91 -6q-35 61 -36 116.5t22.5 105.5t64.5 95t88 84q84 68 133 134.5 t49 148.5q0 57 -38 95t-101 38q-82 0 -153.5 -51.5t-125.5 -122.5q-53 59 -73.5 133t-10.5 158zM162 127q0 68 52 111t124 43q66 0 108.5 -39t42.5 -103q0 -68 -53 -112.5t-125 -44.5q-66 0 -107.5 39.5t-41.5 105.5z" />
<glyph unicode="@" horiz-adv-x="1527" d="M51 592q0 176 54.5 331.5t159 271.5t256 183.5t347.5 67.5q281 0 440.5 -139.5t166.5 -440.5q2 -86 -16.5 -192.5t-63.5 -198.5t-121 -154.5t-191 -62.5q-59 0 -102 34t-51 93q-49 -72 -123 -109.5t-143 -37.5q-125 0 -190.5 78.5t-70.5 207.5q-4 113 29 215.5t90.5 179 t133 121.5t155.5 45q31 0 61.5 -14t49.5 -41q-2 12 -3 23.5t-1 23.5q14 6 42.5 7t59.5 -2t56.5 -8t35.5 -7q4 -35 0 -114t-11 -172t-16.5 -185t-17.5 -156q-2 -29 10.5 -40t30.5 -11q59 0 95 53.5t54.5 126t24.5 147.5t6 115q0 217 -109.5 318.5t-324.5 101.5 q-160 0 -273.5 -66.5t-185 -168t-105.5 -220t-34 -223.5q0 -115 41 -203.5t108.5 -149t156.5 -92.5t186 -32q100 0 179 23.5t130 73.5q16 -2 47 -10.5t53 -28.5q-53 -78 -161.5 -122t-254.5 -44q-158 0 -284.5 40t-216.5 116.5t-139.5 189t-49.5 258.5zM618 539 q0 -20 4.5 -42t14.5 -39.5t26.5 -28.5t41.5 -11q49 0 83.5 25.5t57 66.5t36 92t20.5 101.5t8 94.5t1 72q-12 14 -33.5 21.5t-41.5 7.5q-55 0 -96.5 -39t-68 -94t-40 -117.5t-13.5 -109.5z" />
<glyph unicode="A" horiz-adv-x="1052" d="M41 59q6 76 27.5 189.5t51.5 245t66.5 269.5t71.5 263t66.5 225.5t52.5 157.5q51 8 103 12t108 4q35 0 71.5 -5t67.5 -19q20 -131 47 -300t60.5 -351.5t76.5 -365.5t101 -343q-41 -18 -104.5 -28.5t-125.5 -10.5q-23 14 -39 34.5t-28.5 54.5t-24.5 85t-26 127 q-12 2 -50.5 2t-86.5 -1t-96 -3t-83 -4q-16 -47 -24.5 -122t-12.5 -155q-12 -4 -40.5 -5t-62.5 -1t-68 3t-58 8q-18 4 -28.5 14t-12.5 20zM395 537q59 4 113 5h36q37 0 77 -1q-10 51 -22.5 122.5t-25 151.5t-24 163t-19.5 159q-41 -160 -75.5 -310.5t-59.5 -289.5z" />
<glyph unicode="B" horiz-adv-x="1044" d="M72 125q4 170 7 307t7 265t9 258t16 286q-10 29 -20.5 63.5t-16.5 67.5q78 33 176 50.5t196 17.5q119 -2 213.5 -31t161 -78t102 -115.5t35.5 -144.5q0 -43 -14 -90t-43 -91t-76 -80t-110 -56q137 -29 207.5 -124t70.5 -231q0 -125 -51 -205.5t-133 -129t-183.5 -66.5 t-199.5 -18q-59 0 -115.5 6t-103.5 21.5t-82 43t-53 74.5zM337 427v-34q0 -33 1 -67q2 -50 8 -88q47 -16 119 -17q117 0 178.5 57.5t61.5 141.5q0 100 -74 151.5t-189 55.5q-23 0 -47 -2.5t-51 -6.5q-2 -39 -4 -89t-3 -102zM354 836h20q64 0 116 11q62 13 107.5 39.5 t71 67.5t25.5 95q0 51 -27.5 85.5t-73.5 53.5q-45 18 -103 20h-17q-50 0 -102 -10q-6 -80 -11.5 -181.5t-5.5 -180.5z" />
<glyph unicode="C" horiz-adv-x="958" d="M51 616q0 80 5 162t20.5 163t44.5 158t74 144q66 92 161 145.5t228 53.5q94 0 156.5 -30t101.5 -75t56 -97t20 -95q-25 -49 -67 -97.5t-81 -82.5q-20 57 -45 96t-49.5 62.5t-48 34.5t-39.5 11q-59 -8 -105.5 -58t-78 -130t-48 -180.5t-16.5 -206.5q0 -74 11 -142.5 t36 -120.5t61.5 -85t90.5 -37q14 -1 28 -1q44 0 79 10q46 13 80 38t57.5 59.5t41.5 75.5q27 -47 46.5 -110.5t31.5 -112.5q-35 -59 -81 -95t-97 -57.5t-102.5 -28.5t-96.5 -7q-158 0 -272.5 91t-161.5 244q-23 70 -32 147t-9 154z" />
<glyph unicode="D" horiz-adv-x="1042" d="M72 1372q23 12 67.5 24.5t97 21.5t105.5 15.5t94 6.5q291 0 418 -189.5t127 -552.5q0 -147 -31.5 -274t-102.5 -223.5t-181.5 -153.5t-270.5 -63q-12 -1 -24 -1q-30 0 -61 4q-44 5 -86 14t-78.5 21.5t-59.5 26.5q-9 161 -9 323q0 132 6 265q13 297 26 602 q-12 39 -19.5 63.5t-17.5 69.5zM346 238q27 -8 55 -9q88 0 146.5 45t94.5 116t50 157q13 76 13 150v20q-2 102 -16.5 196.5t-51.5 160.5q-37 68 -101 98q-37 18 -87 17q-35 0 -76 -9q-14 -229 -20.5 -467.5t-6.5 -474.5z" />
<glyph unicode="E" horiz-adv-x="862" d="M72 1382q25 10 79 20.5t121 16.5q68 5 146 9q46 2 89 3q31 1 63 -1q74 -2 137 -9.5t104 -19.5q0 -23 -3 -53.5t-9 -62.5t-13.5 -58.5t-13.5 -38.5q-43 6 -95 11q-53 5 -105 7q-18 1 -34 1q-35 0 -70 -3q-52 -4 -95 -16q-4 -29 -8.5 -84t-6.5 -114.5t-3 -116t-1 -87.5 q35 0 91.5 3.5t117 3.5t116.5 -4.5t91 -14.5q0 -53 -8 -114.5t-27 -100.5q-75 8 -158 8h-33q-102 -2 -194 -12q0 -33 -1 -73t-1 -81t2 -80.5t8 -72.5q37 0 100.5 1t128 1t120 -1t77.5 -3q18 -49 22.5 -112t4.5 -122q-168 -2 -345 -7t-343 -11q-12 39 -21.5 70.5t-14.5 64.5 t-8 70t-3 86q-2 92 -2 182q0 135 4 267q6 220 24 450q-10 41 -18 96t-12 102z" />
<glyph unicode="F" horiz-adv-x="864" d="M73 610q3 142 13 285t23 293q-10 43 -21.5 98t-11.5 98q23 10 79 20.5t129.5 18t155.5 10.5q49 2 96 2q31 0 61 -1q75 -2 133 -11.5t83 -25.5q0 -51 -10 -107.5t-27 -91.5q-96 12 -194 14h-22q-88 0 -179 -14q-4 -18 -7 -68.5t-6 -112t-6.5 -125t-3.5 -108.5 q51 4 112.5 7.5t120 3.5t108 -5.5t75.5 -17.5q0 -53 -6 -113.5t-23 -99.5q-77 8 -151 8q-22 0 -44 -1q-95 -3 -198 -11q-3 -63 -3 -111q0 -24 1 -44q2 -62 6 -115.5t10.5 -111.5t10.5 -144q-27 -14 -70 -22.5t-88 -8.5q-35 0 -64.5 9t-52.5 32q-20 147 -26 289q-4 94 -4 188 q0 47 1 94z" />
<glyph unicode="G" horiz-adv-x="1064" d="M51 623q0 80 6 159.5t21.5 158.5t44.5 153.5t74 142.5q66 92 161 148.5t228 56.5q33 0 84 -10.5t103 -39t97 -82t68 -141.5q1 -1 1 -3q0 -13 -42 -63q-47 -56 -119 -124q-14 45 -36.5 79t-47 57.5t-49 34.5t-45.5 11q-59 0 -108.5 -43t-83 -119.5t-52 -183t-18.5 -235.5 q0 -74 10 -140.5t32.5 -117t57.5 -80t84 -29.5q29 0 60.5 6t61.5 20.5t53.5 37t35.5 57.5q6 18 8 42.5t1 52.5t-5 52.5t-12 42.5q-6 14 -33.5 22.5t-60.5 11.5t-61.5 3h-41.5q-4 39 -5 79v16q0 32 3 63q49 18 119 28.5t137 12.5h30q50 0 94 -5q55 -7 75 -24q6 -74 9 -166 q2 -55 2 -112q0 -38 -1 -77q-2 -97 -8 -192.5t-18 -175.5q-12 -4 -41 -7t-58.5 -3t-55.5 2t-32 6q-6 8 -9 27.5t-7 29.5q-55 -49 -125 -68.5t-133 -19.5q-158 0 -262.5 96.5t-151.5 250.5q-23 70 -31 146.5t-8 154.5z" />
<glyph unicode="H" horiz-adv-x="1085" d="M72 339q0 179 5 363.5t10 363.5q4 128 4 244q0 46 -1 91q47 14 103.5 19t115.5 5q25 0 45.5 -4t18.5 -28q-6 -158 -9.5 -320t-9.5 -315q86 6 180 7q19 0 38 1q74 0 141 -4q6 166 13 337q5 133 5 251v67q21 5 79 15q48 8 97 8h21q35 -2 60.5 -8.5t23.5 -24.5 q-16 -338 -30 -677q-8 -185 -8 -377q0 -158 5 -320q-20 -8 -53 -13.5t-69 -6.5h-24q-25 0 -49 1q-36 2 -67 9q-9 111 -13 241q-1 54 -2 107q0 75 3 149q-42 3 -99 3q-28 0 -60 -1q-96 -2 -200 -6q-4 -117 -4 -247t4 -255q-20 -8 -53 -12t-69 -6q-18 -1 -36 -1t-36 1 q-36 2 -68 8q-12 156 -12 335z" />
<glyph unicode="I" horiz-adv-x="454" d="M73 349q1 177 7 359.5t14 359.5q6 142 6 270v63q41 16 96.5 20t114.5 4q25 0 49 -4q22 -4 21 -24l-31 -677q-8 -184 -7 -374q0 -157 5 -319q-20 -8 -53 -12.5t-69 -6.5q-18 -1 -36 -1t-36 1q-36 2 -68 8q-13 146 -13 309v24z" />
<glyph unicode="J" horiz-adv-x="833" d="M20 180q0 25 8.5 62t20.5 75.5t27.5 72.5t27.5 52q45 -111 104.5 -180.5t139.5 -71.5h4q58 0 89 54q32 57 44.5 140t12.5 178v169q-2 172 -16.5 341t-14.5 325q49 29 121 29q11 0 22 -1q43 0 79 -9t67 -34q-7 -49 -7 -127v-20q1 -92 5 -203.5t7 -234.5q1 -53 1 -104 q0 -69 -2 -135q-4 -116 -17.5 -216t-44.5 -168q-45 -100 -138 -148q-88 -46 -181 -46h-12q-70 2 -126.5 19t-99.5 45t-73.5 63.5t-47.5 72.5z" />
<glyph unicode="K" horiz-adv-x="1013" d="M73 506q1 133 4 266t6 252t6 215t3 158q29 14 79 21q39 5 78 5h23q33 -2 60.5 -6t46.5 -18q-2 -41 -5 -101.5t-6 -128t-6.5 -137t-3.5 -125.5q53 88 113.5 170t117 149.5t102.5 118t75 72.5q70 0 132.5 -17.5t105.5 -45.5q-23 -33 -73 -93.5t-113.5 -139.5t-132.5 -169 t-126 -182q43 -92 105.5 -202.5t125 -209t113.5 -169t72 -83.5q-10 -14 -29.5 -37.5t-49.5 -43t-69 -28.5q-17 -4 -35 -4q-24 0 -49 7q-61 49 -111 110.5t-93 130t-81 142.5t-75 147l-41 -147q0 -123 5 -209t9 -141q-72 -17 -138 -23q-23 -2 -47 -2q-43 0 -87 8 q-8 104 -10 230q-1 84 -1 172v88z" />
<glyph unicode="L" horiz-adv-x="823" d="M72 248q0 133 4 283.5t9 301t9 295t4 267.5q41 10 98.5 18t114.5 8q27 0 49.5 -5t22.5 -30q1 -40 1 -83q0 -86 -3 -182q-4 -144 -10 -295.5t-12.5 -299t-6.5 -272.5q71 1 142 1h72q108 -1 194 -13q6 -23 11 -54.5t7 -65.5t2 -65t-4 -49q-133 -2 -281.5 -3t-289.5 -5h-22 q-31 0 -45 4q-20 6 -48 27q-10 51 -14 107.5t-4 109.5z" />
<glyph unicode="M" horiz-adv-x="1312" d="M73 347q1 179 7 364.5t13 364.5q5 139 5 265v70q33 6 80 8q31 1 64 1h32q50 -1 96 -6t74 -15q31 -109 54.5 -190t45 -149.5t44 -131t51.5 -133.5q68 168 142.5 320.5t172.5 311.5q33 0 73 -2t79 -7t73.5 -12t61.5 -20q-29 -324 -35 -666q-1 -82 -1 -163q0 -260 14 -520 q-20 -8 -53 -13.5t-70 -7.5t-74 -3h-24q-23 0 -44 1q-12 80 -20 159t-12 171t-4 206t6 265q-23 -41 -48.5 -92t-58.5 -123t-71.5 -167t-86.5 -224q-8 -16 -24.5 -18.5t-26.5 8.5q-25 31 -57.5 95t-65 149t-64.5 180.5t-56 187.5q-15 -150 -15 -296q0 -47 2 -95 q6 -192 19 -393q-20 -8 -56 -13.5t-77 -6.5q-20 0 -40.5 -0.5t-40.5 0.5q-40 1 -71 5q-13 146 -13 311v24z" />
<glyph unicode="N" horiz-adv-x="1048" d="M74 511q0 146 2 294.5t8 272.5t12 211t15 112q20 6 49.5 10t62.5 6q22 1 44 1h22q33 -1 57 -5q35 -100 71 -190t75.5 -181.5t88 -188.5t109.5 -212q-4 70 -4 175.5t3 216t9.5 212t16.5 162.5q57 16 130 16t132 -4q-15 -311 -23 -667q-2 -85 -2 -172q0 -275 21 -560 q-35 -12 -84 -18t-96 -6q-37 41 -95.5 124t-122 190.5t-125 230.5t-104.5 243q-7 -133 -7 -264q0 -52 1 -104q4 -182 22 -387q-23 -8 -56.5 -13.5t-71 -7.5t-75.5 -2t-67 4q-10 90 -14 222.5t-4 278.5z" />
<glyph unicode="O" horiz-adv-x="1130" d="M51 678q0 156 34 296t99.5 246.5t165 171t228.5 66.5q8 -8 15 -18.5t11 -20.5q115 0 204 -47t149.5 -132t91 -202.5t30.5 -259.5q0 -160 -32.5 -304t-99 -254.5t-168 -175t-238.5 -64.5q-131 0 -223.5 58t-150.5 155.5t-86 223.5t-30 261zM344 657q0 -92 11.5 -171.5 t37 -139t65.5 -94.5t97 -37q59 0 103 45t74 120t44.5 173t14.5 207q0 190 -44 296.5t-155 110.5q-61 -6 -108.5 -55t-78 -121.5t-46 -161t-15.5 -172.5z" />
<glyph unicode="P" horiz-adv-x="1005" d="M72 1374q78 33 166 49.5t178 16.5q106 0 205.5 -27t176 -85t122 -150.5t45.5 -223.5q0 -117 -39 -212t-107.5 -161.5t-162 -103.5t-199.5 -37q-25 0 -51.5 2t-53.5 7q-2 -57 -3 -107q0 -25 -1 -51q0 -25 1 -51q1 -52 4.5 -104t11.5 -113q-47 -17 -122 -23q-14 -1 -27 -1 q-60 0 -114 24q-14 55 -20 137t-6 205v39.5v57.5t2 92t5 147.5t9 221.5t17 314q-10 35 -19.5 69.5t-17.5 67.5zM360 698q16 -4 32 -7t34 -3q57 0 106.5 13.5t86 44t58 84t21.5 133.5q0 106 -63.5 167.5t-175.5 61.5q-33 0 -78 -10q-6 -129 -10 -212t-6.5 -135.5t-3.5 -82 t-1 -54.5z" />
<glyph unicode="Q" horiz-adv-x="1134" d="M51 668q0 156 34 296t99.5 246.5t165 171t228.5 66.5q8 -8 15 -18.5t11 -20.5q115 0 204 -47t150.5 -132t93 -203t31.5 -259q0 -123 -19.5 -234.5t-59 -206t-99 -168t-137.5 -116.5q20 -66 38.5 -112t29.5 -74q-39 -57 -129 -58q-43 27 -77 76t-63 113q-145 0 -242.5 54 t-155.5 147.5t-85 217t-33 261.5zM340 657q0 -184 44 -297.5t116 -132.5q-23 80 -35 157t-14 126q16 12 45.5 23.5t63.5 19.5t69 13t59 5q2 -68 5 -141.5t12 -128.5q20 37 38.5 88t33 110.5t21.5 125t7 131.5q0 190 -51 298.5t-162 112.5q-61 -6 -108.5 -55t-79 -121.5 t-48 -161t-16.5 -172.5z" />
<glyph unicode="R" horiz-adv-x="999" d="M72 1366q57 33 136 52.5t202 19.5q119 0 217 -26t168.5 -82t109.5 -145t39 -214q0 -156 -90 -260.5t-233 -151.5q74 -125 160.5 -255t176.5 -232q-14 -10 -38.5 -22.5t-55 -24t-66.5 -19.5t-75 -8q-41 20 -87 69.5t-95 118t-97.5 149.5t-93.5 165q-3 -58 -3 -116 q0 -60 3 -118q6 -116 17 -237q-27 -16 -64 -23.5t-74 -7.5q-78 0 -131 27q-16 149 -19 317q-1 63 -1 125q0 104 3 206q5 163 13 309t17 255q-10 29 -22.5 66.5t-16.5 62.5zM352 739q12 -2 23.5 -3t23.5 -1q59 0 111.5 30t91.5 73t61.5 91t22.5 85q0 84 -58.5 131t-205.5 47 q-12 0 -24.5 -1t-22.5 -1q-4 -82 -8.5 -145.5t-7.5 -115.5t-5 -98.5t-2 -91.5z" />
<glyph unicode="S" horiz-adv-x="956" d="M51 895q0 109 34 200t95.5 160.5t147.5 115.5t190 65q34 6 74 6q14 0 30 -1q58 -3 111 -18.5t96 -47.5t62 -81q10 -43 10 -87q0 -37 -7 -75q-15 -84 -50 -151q-10 -16 -42 -28.5t-71 -21.5t-78 -13.5t-63 -2.5q18 35 32.5 87.5t20.5 95.5q4 27 -4 44t-24.5 26.5t-39 11.5 t-45.5 -4q-49 -14 -85.5 -43t-60.5 -66t-35 -79q-8 -31 -8 -62q0 -11 1 -23q6 -61 57.5 -115.5t128.5 -91.5q78 -35 145.5 -70.5t117 -78.5t78 -100.5t28.5 -135.5q0 -98 -42 -162.5t-107.5 -102.5t-149.5 -53.5t-166 -15.5q-66 0 -124 9.5t-106 26t-81 42t-45 58.5 q2 66 20.5 130t46.5 111q51 -82 128 -125t159 -43q72 0 117 28t45 91q0 37 -21.5 67.5t-55.5 56.5t-76 48.5t-83 41t-77.5 35.5t-59.5 34q-72 49 -120 126t-48 181z" />
<glyph unicode="T" horiz-adv-x="917" d="M51 1232q0 32 2 65.5t5 65.5t8 52q59 6 160.5 10.5t215.5 5.5h50q88 -1 172 -3q110 -4 188 -9q8 -43 11 -109q2 -40 2 -75q0 -23 -1 -45q-57 0 -136 3q-34 1 -65 1q-41 0 -77 -2q-12 -248 -12 -485q0 -51 1 -101q3 -284 19 -575q-27 -12 -62.5 -18.5t-74.5 -8.5 q-16 -1 -31 -1q-23 0 -46 2q-38 3 -69 9q-10 152 -10 307.5t3 308t6 294.5q2 86 2 164q0 52 -1 102q-66 0 -124 -2t-134 -8q-2 20 -2 52z" />
<glyph unicode="U" horiz-adv-x="1011" d="M74 598q2 104 9 212t16.5 214t15.5 206q5 75 5 145q0 23 -1 46q29 2 67 4q37 1 75 3q14 1 28 1q23 1 44 -1q34 -2 55 -5q0 -139 -11.5 -268t-22 -255t-13.5 -252q-1 -25 -1 -51q0 -102 10 -206q8 -82 44 -122t82 -41h3q45 0 91 34q48 35 81 100q6 68 11.5 158t8.5 215 q2 94 2 208v79q-1 162 -7 373q29 6 68.5 9t76.5 5q14 1 27 1q20 0 40 -2q32 -3 60 -7q0 -197 -5 -387.5t-10 -366.5q-5 -175 -7 -333v-62q0 -122 6 -227q-23 -10 -60 -14.5t-77 -4.5t-74.5 4t-48.5 13q-2 23 -1 57.5t-4 52.5q-27 -59 -92 -100t-137 -45q-13 -1 -26 -1 q-117 0 -182 51q-73 56 -105.5 145t-37.5 200q-4 79 -4 155q0 30 1 60z" />
<glyph unicode="V" horiz-adv-x="1056" d="M41 1417q61 11 130 13q8 0 17 1q61 0 119 -10q0 -25 4 -77t10.5 -123.5t17.5 -158.5t28 -181q10 -70 24.5 -142.5t28.5 -141.5t29.5 -131.5t29.5 -111.5q20 152 60.5 335t89.5 358q29 98 60.5 195t68.5 183q19 1 39 1q49 0 103 -7q74 -10 118 -35q-47 -137 -87 -251.5 t-69 -206.5q-33 -104 -56.5 -186.5t-39.5 -149t-29.5 -119.5t-25.5 -100q-25 -98 -41.5 -187.5t-26.5 -163.5q-51 -16 -120.5 -19t-139.5 -3q-23 23 -49.5 82t-55 141t-57 181.5t-53.5 203.5q-45 182 -78 394t-49 417z" />
<glyph unicode="W" horiz-adv-x="1517" d="M41 1434q60 7 128 7h17q78 -1 129 -26q0 -59 2 -125.5t10.5 -162t26 -227.5t47.5 -322q25 119 61 255t73.5 258.5t71.5 216t52 126.5q35 4 68 4q23 0 43 -2q52 -4 98 -31q12 -164 29.5 -309.5t35 -261t34 -195.5t28.5 -111q16 125 48 269.5t66 274.5t65.5 228.5 t50.5 129.5q72 0 139.5 -15.5t112.5 -44.5q-37 -98 -82 -242.5t-90 -321.5t-84 -378t-62 -410q-83 -17 -135 -17h-14q-54 3 -80 3q-29 61 -56.5 133t-57.5 170.5t-58.5 232.5t-55.5 318q-49 -186 -97 -394t-87 -458q-56 -6 -114 -7h-9q-54 0 -108 11q-20 53 -46 158.5 t-53.5 239t-53 283t-47 289.5t-34 260t-12.5 194z" />
<glyph unicode="X" horiz-adv-x="1038" d="M31 41q16 57 45.5 137t67.5 172t82 192.5t91 198.5q-41 86 -80.5 178.5t-74.5 179.5t-63.5 165.5t-47.5 140.5q49 27 127 39q43 7 82 7q32 0 62 -5q6 -25 25.5 -86.5t44 -134t51 -147t51.5 -128.5q57 131 116.5 257t118.5 237q68 0 136.5 -16.5t111.5 -41.5 q-27 -53 -58.5 -115.5t-70.5 -139t-84 -172t-100 -216.5q33 -72 65.5 -140t72.5 -147t90 -174.5t116 -218.5q-45 -23 -109.5 -34t-130.5 -11q-14 10 -45 54.5t-69 112t-81 152.5t-81 179q-27 -51 -58 -122.5t-61.5 -145.5t-58 -141.5t-48.5 -112.5q-68 0 -129 12t-106 35z " />
<glyph unicode="Y" horiz-adv-x="1136" d="M41 1376q25 12 57.5 24.5t67.5 22t68.5 15.5t64.5 6q20 -37 56 -101.5t77 -152.5t85 -193.5t83 -222.5q43 141 74 235.5t57.5 167t52 134t60.5 135.5q72 0 138.5 -17.5t113.5 -42.5q-39 -86 -77 -176t-79 -198.5t-87 -243.5t-103 -309q-2 -41 -3.5 -98.5t-4.5 -119 t-7 -121t-12 -106.5q-37 -4 -75 -7q-23 -2 -45 -2q-15 0 -29 1q-37 2 -69 8t-52 21q10 84 15 193q3 60 3 125q0 51 -2 106q-33 100 -84 219t-110.5 241.5t-121 240.5t-112.5 216z" />
<glyph unicode="Z" horiz-adv-x="993" d="M51 162q27 74 67 162t104.5 209.5t158.5 285.5t229 385q-88 4 -181 4h-63q-126 -2 -245 -18q0 53 13 112.5t36 100.5q160 20 358 23q26 0 51 1q170 0 330 -20q31 -37 33 -78v-11q0 -35 -11 -70q-13 -40 -37 -81t-46 -77q-18 -29 -54 -89.5t-81 -137.5t-94.5 -165 t-95.5 -173t-85 -161.5t-59 -130.5q39 -1 109 1q18 0 36 1q54 1 109 -3q74 -4 139.5 -15.5t97.5 -36.5q0 -53 -5 -93t-21 -75q-136 7 -266 7q-52 0 -104 -1q-180 -4 -372 -12q-23 23 -37 66t-14 90z" />
<glyph unicode="[" d="M68 731q0 150 56 282t154.5 230t230.5 155.5t282 57.5t281.5 -57.5t230 -155.5t156 -230t57.5 -282t-57.5 -282t-156 -230t-230 -155.5t-281.5 -57.5t-282 57.5t-230.5 155.5t-154.5 230.5t-56 281.5zM164 731q0 -129 49 -242.5t135 -199.5t200 -135.5t243 -49.5 q131 0 244.5 49.5t197.5 135.5t133 199.5t49 242.5t-49 242.5t-133 198.5t-197.5 134.5t-244.5 49.5q-129 0 -243 -49.5t-200 -134.5t-135 -198.5t-49 -242.5zM207 731q0 119 46 224.5t126 184.5t185.5 124t226.5 45q119 0 225 -45t185 -124t125 -184.5t46 -224.5 q0 -121 -46 -227.5t-125 -185t-185 -125t-225 -46.5q-121 0 -226.5 46.5t-185.5 125t-126 185t-46 227.5zM330 664l112 -177q346 -80 699 0l110 177h-921zM451 1063l151 -189q4 -4 15.5 -0.5t23.5 9.5t20.5 12t8.5 8q-29 57 -47.5 118.5t-53.5 111.5q-6 8 -26.5 -0.5 t-42 -22.5t-38 -28.5t-11.5 -18.5zM463 457q20 -35 51 -74t73 -70.5t92.5 -53t111.5 -21.5q59 0 110 21.5t92 53t73 70.5t52 74q-164 -43 -326.5 -42t-328.5 42zM715 731h155l-77 187zM918 903q-4 -2 4 -8t19 -12t23.5 -9.5t18.5 0.5l147 189q4 4 -11 18.5t-36.5 28.5 t-42 22.5t-26.5 0.5q-39 -49 -55.5 -110.5t-40.5 -119.5zM1290 102v23h84v-23h-31v-77h-22v77h-31zM1384 25v100h31l19 -78l18 78h29v-100h-19v77l-20 -77h-19l-20 77v-77h-19z" />
<glyph unicode="\" d="M68 731q0 150 56 282t154.5 230t230.5 155.5t282 57.5t281.5 -57.5t230 -155.5t156 -230t57.5 -282t-57.5 -282t-156 -230t-230 -155.5t-281.5 -57.5t-282 57.5t-230.5 155.5t-154.5 230.5t-56 281.5zM164 731q0 -129 49 -242.5t135 -199.5t200 -135.5t243 -49.5 q131 0 244.5 49.5t197.5 135.5t133 199.5t49 242.5t-49 242.5t-133 198.5t-197.5 134.5t-244.5 49.5q-129 0 -243 -49.5t-200 -134.5t-135 -198.5t-49 -242.5zM207 731q0 119 46 224.5t126 184.5t185.5 124t226.5 45q119 0 225 -45t185 -124t125 -184.5t46 -224.5 q0 -121 -46 -227.5t-125 -185t-185 -125t-225 -46.5q-121 0 -226.5 46.5t-185.5 125t-126 185t-46 227.5zM330 664l112 -177q346 -80 699 0l110 177h-921zM451 1063l151 -189q4 -4 15.5 -0.5t23.5 9.5t20.5 12t8.5 8q-29 57 -47.5 118.5t-53.5 111.5q-6 8 -26.5 -0.5 t-42 -22.5t-38 -28.5t-11.5 -18.5zM463 457q20 -35 51 -74t73 -70.5t92.5 -53t111.5 -21.5q59 0 110 21.5t92 53t73 70.5t52 74q-164 -43 -326.5 -42t-328.5 42zM715 731h155l-77 187zM918 903q-4 -2 4 -8t19 -12t23.5 -9.5t18.5 0.5l147 189q4 4 -11 18.5t-36.5 28.5 t-42 22.5t-26.5 0.5q-39 -49 -55.5 -110.5t-40.5 -119.5zM1290 102v23h84v-23h-31v-77h-22v77h-31zM1384 25v100h31l19 -78l18 78h29v-100h-19v77l-20 -77h-19l-20 77v-77h-19z" />
<glyph unicode="]" d="M68 731q0 150 56 282t154.5 230t230.5 155.5t282 57.5t281.5 -57.5t230 -155.5t156 -230t57.5 -282t-57.5 -282t-156 -230t-230 -155.5t-281.5 -57.5t-282 57.5t-230.5 155.5t-154.5 230.5t-56 281.5zM164 731q0 -129 49 -242.5t135 -199.5t200 -135.5t243 -49.5 q131 0 244.5 49.5t197.5 135.5t133 199.5t49 242.5t-49 242.5t-133 198.5t-197.5 134.5t-244.5 49.5q-129 0 -243 -49.5t-200 -134.5t-135 -198.5t-49 -242.5zM207 731q0 119 46 224.5t126 184.5t185.5 124t226.5 45q119 0 225 -45t185 -124t125 -184.5t46 -224.5 q0 -121 -46 -227.5t-125 -185t-185 -125t-225 -46.5q-121 0 -226.5 46.5t-185.5 125t-126 185t-46 227.5zM330 664l112 -177q346 -80 699 0l110 177h-921zM451 1063l151 -189q4 -4 15.5 -0.5t23.5 9.5t20.5 12t8.5 8q-29 57 -47.5 118.5t-53.5 111.5q-6 8 -26.5 -0.5 t-42 -22.5t-38 -28.5t-11.5 -18.5zM463 457q20 -35 51 -74t73 -70.5t92.5 -53t111.5 -21.5q59 0 110 21.5t92 53t73 70.5t52 74q-164 -43 -326.5 -42t-328.5 42zM715 731h155l-77 187zM918 903q-4 -2 4 -8t19 -12t23.5 -9.5t18.5 0.5l147 189q4 4 -11 18.5t-36.5 28.5 t-42 22.5t-26.5 0.5q-39 -49 -55.5 -110.5t-40.5 -119.5zM1290 102v23h84v-23h-31v-77h-22v77h-31zM1384 25v100h31l19 -78l18 78h29v-100h-19v77l-20 -77h-19l-20 77v-77h-19z" />
<glyph unicode="^" d="M68 731q0 150 56 282t154.5 230t230.5 155.5t282 57.5t281.5 -57.5t230 -155.5t156 -230t57.5 -282t-57.5 -282t-156 -230t-230 -155.5t-281.5 -57.5t-282 57.5t-230.5 155.5t-154.5 230.5t-56 281.5zM164 731q0 -129 49 -242.5t135 -199.5t200 -135.5t243 -49.5 q131 0 244.5 49.5t197.5 135.5t133 199.5t49 242.5t-49 242.5t-133 198.5t-197.5 134.5t-244.5 49.5q-129 0 -243 -49.5t-200 -134.5t-135 -198.5t-49 -242.5zM207 731q0 119 46 224.5t126 184.5t185.5 124t226.5 45q119 0 225 -45t185 -124t125 -184.5t46 -224.5 q0 -121 -46 -227.5t-125 -185t-185 -125t-225 -46.5q-121 0 -226.5 46.5t-185.5 125t-126 185t-46 227.5zM330 664l112 -177q346 -80 699 0l110 177h-921zM451 1063l151 -189q4 -4 15.5 -0.5t23.5 9.5t20.5 12t8.5 8q-29 57 -47.5 118.5t-53.5 111.5q-6 8 -26.5 -0.5 t-42 -22.5t-38 -28.5t-11.5 -18.5zM463 457q20 -35 51 -74t73 -70.5t92.5 -53t111.5 -21.5q59 0 110 21.5t92 53t73 70.5t52 74q-164 -43 -326.5 -42t-328.5 42zM715 731h155l-77 187zM918 903q-4 -2 4 -8t19 -12t23.5 -9.5t18.5 0.5l147 189q4 4 -11 18.5t-36.5 28.5 t-42 22.5t-26.5 0.5q-39 -49 -55.5 -110.5t-40.5 -119.5zM1290 102v23h84v-23h-31v-77h-22v77h-31zM1384 25v100h31l19 -78l18 78h29v-100h-19v77l-20 -77h-19l-20 77v-77h-19z" />
<glyph unicode="_" horiz-adv-x="921" d="M39 -148q6 56 33 85q47 8 116.5 13t149.5 6t162 -2t155.5 -9t129.5 -15.5t85 -21.5q0 -47 -7 -100.5t-25 -81.5q-72 0 -147 4t-164 7t-200.5 2t-254.5 -11q-39 68 -33 124z" />
<glyph unicode="`" d="M68 731q0 150 56 282t154.5 230t230.5 155.5t282 57.5t281.5 -57.5t230 -155.5t156 -230t57.5 -282t-57.5 -282t-156 -230t-230 -155.5t-281.5 -57.5t-282 57.5t-230.5 155.5t-154.5 230.5t-56 281.5zM164 731q0 -129 49 -242.5t135 -199.5t200 -135.5t243 -49.5 q131 0 244.5 49.5t197.5 135.5t133 199.5t49 242.5t-49 242.5t-133 198.5t-197.5 134.5t-244.5 49.5q-129 0 -243 -49.5t-200 -134.5t-135 -198.5t-49 -242.5zM207 731q0 119 46 224.5t126 184.5t185.5 124t226.5 45q119 0 225 -45t185 -124t125 -184.5t46 -224.5 q0 -121 -46 -227.5t-125 -185t-185 -125t-225 -46.5q-121 0 -226.5 46.5t-185.5 125t-126 185t-46 227.5zM330 664l112 -177q346 -80 699 0l110 177h-921zM451 1063l151 -189q4 -4 15.5 -0.5t23.5 9.5t20.5 12t8.5 8q-29 57 -47.5 118.5t-53.5 111.5q-6 8 -26.5 -0.5 t-42 -22.5t-38 -28.5t-11.5 -18.5zM463 457q20 -35 51 -74t73 -70.5t92.5 -53t111.5 -21.5q59 0 110 21.5t92 53t73 70.5t52 74q-164 -43 -326.5 -42t-328.5 42zM715 731h155l-77 187zM918 903q-4 -2 4 -8t19 -12t23.5 -9.5t18.5 0.5l147 189q4 4 -11 18.5t-36.5 28.5 t-42 22.5t-26.5 0.5q-39 -49 -55.5 -110.5t-40.5 -119.5zM1290 102v23h84v-23h-31v-77h-22v77h-31zM1384 25v100h31l19 -78l18 78h29v-100h-19v77l-20 -77h-19l-20 77v-77h-19z" />
<glyph unicode="a" horiz-adv-x="1052" d="M41 59q6 76 27.5 189.5t51.5 245t66.5 269.5t71.5 263t66.5 225.5t52.5 157.5q51 8 103 12t108 4q35 0 71.5 -5t67.5 -19q20 -131 47 -300t60.5 -351.5t76.5 -365.5t101 -343q-41 -18 -104.5 -28.5t-125.5 -10.5q-23 14 -39 34.5t-28.5 54.5t-24.5 85t-26 127 q-12 2 -50.5 2t-86.5 -1t-96 -3t-83 -4q-16 -47 -24.5 -122t-12.5 -155q-12 -4 -40.5 -5t-62.5 -1t-68 3t-58 8q-18 4 -28.5 14t-12.5 20zM395 537q59 4 113 5h36q37 0 77 -1q-10 51 -22.5 122.5t-25 151.5t-24 163t-19.5 159q-41 -160 -75.5 -310.5t-59.5 -289.5z" />
<glyph unicode="b" horiz-adv-x="1044" d="M72 125q4 170 7 307t7 265t9 258t16 286q-10 29 -20.5 63.5t-16.5 67.5q78 33 176 50.5t196 17.5q119 -2 213.5 -31t161 -78t102 -115.5t35.5 -144.5q0 -43 -14 -90t-43 -91t-76 -80t-110 -56q137 -29 207.5 -124t70.5 -231q0 -125 -51 -205.5t-133 -129t-183.5 -66.5 t-199.5 -18q-59 0 -115.5 6t-103.5 21.5t-82 43t-53 74.5zM337 427v-34q0 -33 1 -67q2 -50 8 -88q47 -16 119 -17q117 0 178.5 57.5t61.5 141.5q0 100 -74 151.5t-189 55.5q-23 0 -47 -2.5t-51 -6.5q-2 -39 -4 -89t-3 -102zM354 836h20q64 0 116 11q62 13 107.5 39.5 t71 67.5t25.5 95q0 51 -27.5 85.5t-73.5 53.5q-45 18 -103 20h-17q-50 0 -102 -10q-6 -80 -11.5 -181.5t-5.5 -180.5z" />
<glyph unicode="c" horiz-adv-x="958" d="M51 616q0 80 5 162t20.5 163t44.5 158t74 144q66 92 161 145.5t228 53.5q94 0 156.5 -30t101.5 -75t56 -97t20 -95q-25 -49 -67 -97.5t-81 -82.5q-20 57 -45 96t-49.5 62.5t-48 34.5t-39.5 11q-59 -8 -105.5 -58t-78 -130t-48 -180.5t-16.5 -206.5q0 -74 11 -142.5 t36 -120.5t61.5 -85t90.5 -37q14 -1 28 -1q44 0 79 10q46 13 80 38t57.5 59.5t41.5 75.5q27 -47 46.5 -110.5t31.5 -112.5q-35 -59 -81 -95t-97 -57.5t-102.5 -28.5t-96.5 -7q-158 0 -272.5 91t-161.5 244q-23 70 -32 147t-9 154z" />
<glyph unicode="d" horiz-adv-x="1042" d="M72 1372q23 12 67.5 24.5t97 21.5t105.5 15.5t94 6.5q291 0 418 -189.5t127 -552.5q0 -147 -31.5 -274t-102.5 -223.5t-181.5 -153.5t-270.5 -63q-12 -1 -24 -1q-30 0 -61 4q-44 5 -86 14t-78.5 21.5t-59.5 26.5q-9 161 -9 323q0 132 6 265q13 297 26 602 q-12 39 -19.5 63.5t-17.5 69.5zM346 238q27 -8 55 -9q88 0 146.5 45t94.5 116t50 157q13 76 13 150v20q-2 102 -16.5 196.5t-51.5 160.5q-37 68 -101 98q-37 18 -87 17q-35 0 -76 -9q-14 -229 -20.5 -467.5t-6.5 -474.5z" />
<glyph unicode="e" horiz-adv-x="862" d="M72 1382q25 10 79 20.5t121 16.5q68 5 146 9q46 2 89 3q31 1 63 -1q74 -2 137 -9.5t104 -19.5q0 -23 -3 -53.5t-9 -62.5t-13.5 -58.5t-13.5 -38.5q-43 6 -95 11q-53 5 -105 7q-18 1 -34 1q-35 0 -70 -3q-52 -4 -95 -16q-4 -29 -8.5 -84t-6.5 -114.5t-3 -116t-1 -87.5 q35 0 91.5 3.5t117 3.5t116.5 -4.5t91 -14.5q0 -53 -8 -114.5t-27 -100.5q-75 8 -158 8h-33q-102 -2 -194 -12q0 -33 -1 -73t-1 -81t2 -80.5t8 -72.5q37 0 100.5 1t128 1t120 -1t77.5 -3q18 -49 22.5 -112t4.5 -122q-168 -2 -345 -7t-343 -11q-12 39 -21.5 70.5t-14.5 64.5 t-8 70t-3 86q-2 92 -2 182q0 135 4 267q6 220 24 450q-10 41 -18 96t-12 102z" />
<glyph unicode="f" horiz-adv-x="864" d="M73 610q3 142 13 285t23 293q-10 43 -21.5 98t-11.5 98q23 10 79 20.5t129.5 18t155.5 10.5q49 2 96 2q31 0 61 -1q75 -2 133 -11.5t83 -25.5q0 -51 -10 -107.5t-27 -91.5q-96 12 -194 14h-22q-88 0 -179 -14q-4 -18 -7 -68.5t-6 -112t-6.5 -125t-3.5 -108.5 q51 4 112.5 7.5t120 3.5t108 -5.5t75.5 -17.5q0 -53 -6 -113.5t-23 -99.5q-77 8 -151 8q-22 0 -44 -1q-95 -3 -198 -11q-3 -63 -3 -111q0 -24 1 -44q2 -62 6 -115.5t10.5 -111.5t10.5 -144q-27 -14 -70 -22.5t-88 -8.5q-35 0 -64.5 9t-52.5 32q-20 147 -26 289q-4 94 -4 188 q0 47 1 94z" />
<glyph unicode="g" horiz-adv-x="1064" d="M51 623q0 80 6 159.5t21.5 158.5t44.5 153.5t74 142.5q66 92 161 148.5t228 56.5q33 0 84 -10.5t103 -39t97 -82t68 -141.5q1 -1 1 -3q0 -13 -42 -63q-47 -56 -119 -124q-14 45 -36.5 79t-47 57.5t-49 34.5t-45.5 11q-59 0 -108.5 -43t-83 -119.5t-52 -183t-18.5 -235.5 q0 -74 10 -140.5t32.5 -117t57.5 -80t84 -29.5q29 0 60.5 6t61.5 20.5t53.5 37t35.5 57.5q6 18 8 42.5t1 52.5t-5 52.5t-12 42.5q-6 14 -33.5 22.5t-60.5 11.5t-61.5 3h-41.5q-4 39 -5 79v16q0 32 3 63q49 18 119 28.5t137 12.5h30q50 0 94 -5q55 -7 75 -24q6 -74 9 -166 q2 -55 2 -112q0 -38 -1 -77q-2 -97 -8 -192.5t-18 -175.5q-12 -4 -41 -7t-58.5 -3t-55.5 2t-32 6q-6 8 -9 27.5t-7 29.5q-55 -49 -125 -68.5t-133 -19.5q-158 0 -262.5 96.5t-151.5 250.5q-23 70 -31 146.5t-8 154.5z" />
<glyph unicode="h" horiz-adv-x="1085" d="M72 339q0 179 5 363.5t10 363.5q4 128 4 244q0 46 -1 91q47 14 103.5 19t115.5 5q25 0 45.5 -4t18.5 -28q-6 -158 -9.5 -320t-9.5 -315q86 6 180 7q19 0 38 1q74 0 141 -4q6 166 13 337q5 133 5 251v67q21 5 79 15q48 8 97 8h21q35 -2 60.5 -8.5t23.5 -24.5 q-16 -338 -30 -677q-8 -185 -8 -377q0 -158 5 -320q-20 -8 -53 -13.5t-69 -6.5h-24q-25 0 -49 1q-36 2 -67 9q-9 111 -13 241q-1 54 -2 107q0 75 3 149q-42 3 -99 3q-28 0 -60 -1q-96 -2 -200 -6q-4 -117 -4 -247t4 -255q-20 -8 -53 -12t-69 -6q-18 -1 -36 -1t-36 1 q-36 2 -68 8q-12 156 -12 335z" />
<glyph unicode="i" horiz-adv-x="454" d="M73 349q1 177 7 359.5t14 359.5q6 142 6 270v63q41 16 96.5 20t114.5 4q25 0 49 -4q22 -4 21 -24l-31 -677q-8 -184 -7 -374q0 -157 5 -319q-20 -8 -53 -12.5t-69 -6.5q-18 -1 -36 -1t-36 1q-36 2 -68 8q-13 146 -13 309v24z" />
<glyph unicode="j" horiz-adv-x="833" d="M20 180q0 25 8.5 62t20.5 75.5t27.5 72.5t27.5 52q45 -111 104.5 -180.5t139.5 -71.5h4q58 0 89 54q32 57 44.5 140t12.5 178v169q-2 172 -16.5 341t-14.5 325q49 29 121 29q11 0 22 -1q43 0 79 -9t67 -34q-7 -49 -7 -127v-20q1 -92 5 -203.5t7 -234.5q1 -53 1 -104 q0 -69 -2 -135q-4 -116 -17.5 -216t-44.5 -168q-45 -100 -138 -148q-88 -46 -181 -46h-12q-70 2 -126.5 19t-99.5 45t-73.5 63.5t-47.5 72.5z" />
<glyph unicode="k" horiz-adv-x="1013" d="M73 506q1 133 4 266t6 252t6 215t3 158q29 14 79 21q39 5 78 5h23q33 -2 60.5 -6t46.5 -18q-2 -41 -5 -101.5t-6 -128t-6.5 -137t-3.5 -125.5q53 88 113.5 170t117 149.5t102.5 118t75 72.5q70 0 132.5 -17.5t105.5 -45.5q-23 -33 -73 -93.5t-113.5 -139.5t-132.5 -169 t-126 -182q43 -92 105.5 -202.5t125 -209t113.5 -169t72 -83.5q-10 -14 -29.5 -37.5t-49.5 -43t-69 -28.5q-17 -4 -35 -4q-24 0 -49 7q-61 49 -111 110.5t-93 130t-81 142.5t-75 147l-41 -147q0 -123 5 -209t9 -141q-72 -17 -138 -23q-23 -2 -47 -2q-43 0 -87 8 q-8 104 -10 230q-1 84 -1 172v88z" />
<glyph unicode="l" horiz-adv-x="823" d="M72 248q0 133 4 283.5t9 301t9 295t4 267.5q41 10 98.5 18t114.5 8q27 0 49.5 -5t22.5 -30q1 -40 1 -83q0 -86 -3 -182q-4 -144 -10 -295.5t-12.5 -299t-6.5 -272.5q71 1 142 1h72q108 -1 194 -13q6 -23 11 -54.5t7 -65.5t2 -65t-4 -49q-133 -2 -281.5 -3t-289.5 -5h-22 q-31 0 -45 4q-20 6 -48 27q-10 51 -14 107.5t-4 109.5z" />
<glyph unicode="m" horiz-adv-x="1312" d="M73 347q1 179 7 364.5t13 364.5q5 139 5 265v70q33 6 80 8q31 1 64 1h32q50 -1 96 -6t74 -15q31 -109 54.5 -190t45 -149.5t44 -131t51.5 -133.5q68 168 142.5 320.5t172.5 311.5q33 0 73 -2t79 -7t73.5 -12t61.5 -20q-29 -324 -35 -666q-1 -82 -1 -163q0 -260 14 -520 q-20 -8 -53 -13.5t-70 -7.5t-74 -3h-24q-23 0 -44 1q-12 80 -20 159t-12 171t-4 206t6 265q-23 -41 -48.5 -92t-58.5 -123t-71.5 -167t-86.5 -224q-8 -16 -24.5 -18.5t-26.5 8.5q-25 31 -57.5 95t-65 149t-64.5 180.5t-56 187.5q-15 -150 -15 -296q0 -47 2 -95 q6 -192 19 -393q-20 -8 -56 -13.5t-77 -6.5q-20 0 -40.5 -0.5t-40.5 0.5q-40 1 -71 5q-13 146 -13 311v24z" />
<glyph unicode="n" horiz-adv-x="1048" d="M74 511q0 146 2 294.5t8 272.5t12 211t15 112q20 6 49.5 10t62.5 6q22 1 44 1h22q33 -1 57 -5q35 -100 71 -190t75.5 -181.5t88 -188.5t109.5 -212q-4 70 -4 175.5t3 216t9.5 212t16.5 162.5q57 16 130 16t132 -4q-15 -311 -23 -667q-2 -85 -2 -172q0 -275 21 -560 q-35 -12 -84 -18t-96 -6q-37 41 -95.5 124t-122 190.5t-125 230.5t-104.5 243q-7 -133 -7 -264q0 -52 1 -104q4 -182 22 -387q-23 -8 -56.5 -13.5t-71 -7.5t-75.5 -2t-67 4q-10 90 -14 222.5t-4 278.5z" />
<glyph unicode="o" horiz-adv-x="1130" d="M51 678q0 156 34 296t99.5 246.5t165 171t228.5 66.5q8 -8 15 -18.5t11 -20.5q115 0 204 -47t149.5 -132t91 -202.5t30.5 -259.5q0 -160 -32.5 -304t-99 -254.5t-168 -175t-238.5 -64.5q-131 0 -223.5 58t-150.5 155.5t-86 223.5t-30 261zM344 657q0 -92 11.5 -171.5 t37 -139t65.5 -94.5t97 -37q59 0 103 45t74 120t44.5 173t14.5 207q0 190 -44 296.5t-155 110.5q-61 -6 -108.5 -55t-78 -121.5t-46 -161t-15.5 -172.5z" />
<glyph unicode="p" horiz-adv-x="1005" d="M72 1374q78 33 166 49.5t178 16.5q106 0 205.5 -27t176 -85t122 -150.5t45.5 -223.5q0 -117 -39 -212t-107.5 -161.5t-162 -103.5t-199.5 -37q-25 0 -51.5 2t-53.5 7q-2 -57 -3 -107q-1 -26 -1 -51.5t1 -50.5q1 -52 4.5 -104t11.5 -113q-47 -16 -122 -23q-14 -1 -27 -1 q-60 0 -114 24q-14 55 -20 137t-6 205v39.5v57.5t2 92t5 147.5t9 221.5t17 314q-10 35 -19.5 69.5t-17.5 67.5zM360 698q16 -4 32 -7t34 -3q57 0 106.5 13.5t86 44t58 84t21.5 133.5q0 106 -63.5 167.5t-175.5 61.5q-33 0 -78 -10q-6 -129 -10 -212t-6.5 -135.5t-3.5 -82 t-1 -54.5z" />
<glyph unicode="q" horiz-adv-x="1134" d="M51 668q0 156 34 296t99.5 246.5t165 171t228.5 66.5q8 -8 15 -18.5t11 -20.5q115 0 204 -47t150.5 -132t93 -203t31.5 -259q0 -123 -19.5 -234.5t-59 -206t-99 -168t-137.5 -116.5q20 -66 38.5 -112t29.5 -74q-39 -57 -129 -58q-43 27 -77 76t-63 113q-145 0 -242.5 54 t-155.5 147.5t-85 217t-33 261.5zM340 657q0 -184 44 -297.5t116 -132.5q-23 80 -35 157t-14 126q16 12 45.5 23.5t63.5 19.5t69 13t59 5q2 -68 5 -141.5t12 -128.5q20 37 38.5 88t33 110.5t21.5 125t7 131.5q0 190 -51 298.5t-162 112.5q-61 -6 -108.5 -55t-79 -121.5 t-48 -161t-16.5 -172.5z" />
<glyph unicode="r" horiz-adv-x="999" d="M72 1366q57 33 136 52.5t202 19.5q119 0 217 -26t168.5 -82t109.5 -145t39 -214q0 -156 -90 -260.5t-233 -151.5q74 -125 160.5 -255t176.5 -232q-14 -10 -38.5 -22.5t-55 -24t-66.5 -19.5t-75 -8q-41 20 -87 69.5t-95 118t-97.5 149.5t-93.5 165q-3 -58 -3 -116 q0 -60 3 -118q6 -116 17 -237q-27 -16 -64 -23.5t-74 -7.5q-78 0 -131 27q-16 149 -19 317q-1 63 -1 125q0 104 3 206q5 163 13 309t17 255q-10 29 -22.5 66.5t-16.5 62.5zM352 739q12 -2 23.5 -3t23.5 -1q59 0 111.5 30t91.5 73t61.5 91t22.5 85q0 84 -58.5 131t-205.5 47 q-12 0 -24.5 -1t-22.5 -1q-4 -82 -8.5 -145.5t-7.5 -115.5t-5 -98.5t-2 -91.5z" />
<glyph unicode="s" horiz-adv-x="956" d="M51 895q0 109 34 200t95.5 160.5t147.5 115.5t190 65q34 6 74 6q14 0 30 -1q58 -3 111 -18.5t96 -47.5t62 -81q10 -43 10 -87q0 -37 -7 -75q-15 -84 -50 -151q-10 -16 -42 -28.5t-71 -21.5t-78 -13.5t-63 -2.5q18 35 32.5 87.5t20.5 95.5q4 27 -4 44t-24.5 26.5t-39 11.5 t-45.5 -4q-49 -14 -85.5 -43t-60.5 -66t-35 -79q-8 -31 -8 -62q0 -11 1 -23q6 -61 57.5 -115.5t128.5 -91.5q78 -35 145.5 -70.5t117 -78.5t78 -100.5t28.5 -135.5q0 -98 -42 -162.5t-107.5 -102.5t-149.5 -53.5t-166 -15.5q-66 0 -124 9.5t-106 26t-81 42t-45 58.5 q2 66 20.5 130t46.5 111q51 -82 128 -125t159 -43q72 0 117 28t45 91q0 37 -21.5 67.5t-55.5 56.5t-76 48.5t-83 41t-77.5 35.5t-59.5 34q-72 49 -120 126t-48 181z" />
<glyph unicode="t" horiz-adv-x="917" d="M51 1232q0 32 2 65.5t5 65.5t8 52q59 6 160.5 10.5t215.5 5.5h50q88 -1 172 -3q110 -4 188 -9q8 -43 11 -109q2 -40 2 -75q0 -23 -1 -45q-57 0 -136 3q-34 1 -65 1q-41 0 -77 -2q-12 -248 -12 -485q0 -51 1 -101q3 -284 19 -575q-27 -12 -62.5 -18.5t-74.5 -8.5 q-16 -1 -31 -1q-23 0 -46 2q-38 3 -69 9q-10 152 -10 307.5t3 308t6 294.5q2 86 2 164q0 52 -1 102q-66 0 -124 -2t-134 -8q-2 20 -2 52z" />
<glyph unicode="u" horiz-adv-x="1011" d="M74 598q2 104 9 212t16.5 214t15.5 206q5 75 5 145q0 23 -1 46q29 2 67 4q37 1 75 3q14 1 28 1q23 1 44 -1q34 -2 55 -5q0 -139 -11.5 -268t-22 -255t-13.5 -252q-1 -25 -1 -51q0 -102 10 -206q8 -82 44 -122t82 -41h3q45 0 91 34q48 35 81 100q6 68 11.5 158t8.5 215 q2 94 2 208v79q-1 162 -7 373q29 6 68.5 9t76.5 5q14 1 27 1q20 0 40 -2q32 -3 60 -7q0 -197 -5 -387.5t-10 -366.5q-5 -175 -7 -333v-62q0 -122 6 -227q-23 -10 -60 -14.5t-77 -4.5t-74.5 4t-48.5 13q-2 23 -1 57.5t-4 52.5q-27 -59 -92 -100t-137 -45q-13 -1 -26 -1 q-117 0 -182 51q-73 56 -105.5 145t-37.5 200q-4 79 -4 155q0 30 1 60z" />
<glyph unicode="v" horiz-adv-x="1056" d="M41 1417q61 11 130 13q8 0 17 1q61 0 119 -10q0 -25 4 -77t10.5 -123.5t17.5 -158.5t28 -181q10 -70 24.5 -142.5t28.5 -141.5t29.5 -131.5t29.5 -111.5q20 152 60.5 335t89.5 358q29 98 60.5 195t68.5 183q19 1 39 1q49 0 103 -7q74 -10 118 -35q-47 -137 -87 -251.5 t-69 -206.5q-33 -104 -56.5 -186.5t-39.5 -149t-29.5 -119.5t-25.5 -100q-25 -98 -41.5 -187.5t-26.5 -163.5q-51 -16 -120.5 -19t-139.5 -3q-23 23 -49.5 82t-55 141t-57 181.5t-53.5 203.5q-45 182 -78 394t-49 417z" />
<glyph unicode="w" horiz-adv-x="1517" d="M41 1434q60 7 128 7h17q78 -1 129 -26q0 -59 2 -125.5t10.5 -162t26 -227.5t47.5 -322q25 119 61 255t73.5 258.5t71.5 216t52 126.5q35 4 68 4q23 0 43 -2q52 -4 98 -31q12 -164 29.5 -309.5t35 -261t34 -195.5t28.5 -111q16 125 48 269.5t66 274.5t65.5 228.5 t50.5 129.5q72 0 139.5 -15.5t112.5 -44.5q-37 -98 -82 -242.5t-90 -321.5t-84 -378t-62 -410q-83 -17 -135 -17h-14q-54 3 -80 3q-29 61 -56.5 133t-57.5 170.5t-58.5 232.5t-55.5 318q-49 -186 -97 -394t-87 -458q-56 -6 -114 -7h-9q-54 0 -108 11q-20 53 -46 158.5 t-53.5 239t-53 283t-47 289.5t-34 260t-12.5 194z" />
<glyph unicode="x" horiz-adv-x="1038" d="M31 41q16 57 45.5 137t67.5 172t82 192.5t91 198.5q-41 86 -80.5 178.5t-74.5 179.5t-63.5 165.5t-47.5 140.5q49 27 127 39q43 7 82 7q32 0 62 -5q6 -25 25.5 -86.5t44 -134t51 -147t51.5 -128.5q57 131 116.5 257t118.5 237q68 0 136.5 -16.5t111.5 -41.5 q-27 -53 -58.5 -115.5t-70.5 -139t-84 -172t-100 -216.5q33 -72 65.5 -140t72.5 -147t90 -174.5t116 -218.5q-45 -23 -109.5 -34t-130.5 -11q-14 10 -45 54.5t-69 112t-81 152.5t-81 179q-27 -51 -58 -122.5t-61.5 -145.5t-58 -141.5t-48.5 -112.5q-68 0 -129 12t-106 35z " />
<glyph unicode="y" horiz-adv-x="1136" d="M41 1376q25 12 57.5 24.5t67.5 22t68.5 15.5t64.5 6q20 -37 56 -101.5t77 -152.5t85 -193.5t83 -222.5q43 141 74 235.5t57.5 167t52 134t60.5 135.5q72 0 138.5 -17.5t113.5 -42.5q-39 -86 -77 -176t-79 -198.5t-87 -243.5t-103 -309q-2 -41 -3.5 -98.5t-4.5 -119 t-7 -121t-12 -106.5q-37 -4 -75 -7q-23 -2 -45 -2q-15 0 -29 1q-37 2 -69 8t-52 21q10 84 15 193q3 60 3 125q0 51 -2 106q-33 100 -84 219t-110.5 241.5t-121 240.5t-112.5 216z" />
<glyph unicode="z" horiz-adv-x="993" d="M51 162q27 74 67 162t104.5 209.5t158.5 285.5t229 385q-88 4 -181 4h-63q-126 -2 -245 -18q0 53 13 112.5t36 100.5q160 20 358 23q26 0 51 1q170 0 330 -20q31 -37 33 -78v-11q0 -35 -11 -70q-13 -40 -37 -81t-46 -77q-18 -29 -54 -89.5t-81 -137.5t-94.5 -165 t-95.5 -173t-85 -161.5t-59 -130.5q39 -1 109 1q18 0 36 1q54 1 109 -3q74 -4 139.5 -15.5t97.5 -36.5q0 -53 -5 -93t-21 -75q-136 7 -266 7q-52 0 -104 -1q-180 -4 -372 -12q-23 23 -37 66t-14 90z" />
<glyph unicode="{" d="M68 731q0 150 56 282t154.5 230t230.5 155.5t282 57.5t281.5 -57.5t230 -155.5t156 -230t57.5 -282t-57.5 -282t-156 -230t-230 -155.5t-281.5 -57.5t-282 57.5t-230.5 155.5t-154.5 230.5t-56 281.5zM164 731q0 -129 49 -242.5t135 -199.5t200 -135.5t243 -49.5 q131 0 244.5 49.5t197.5 135.5t133 199.5t49 242.5t-49 242.5t-133 198.5t-197.5 134.5t-244.5 49.5q-129 0 -243 -49.5t-200 -134.5t-135 -198.5t-49 -242.5zM207 731q0 119 46 224.5t126 184.5t185.5 124t226.5 45q119 0 225 -45t185 -124t125 -184.5t46 -224.5 q0 -121 -46 -227.5t-125 -185t-185 -125t-225 -46.5q-121 0 -226.5 46.5t-185.5 125t-126 185t-46 227.5zM330 664l112 -177q346 -80 699 0l110 177h-921zM451 1063l151 -189q4 -4 15.5 -0.5t23.5 9.5t20.5 12t8.5 8q-29 57 -47.5 118.5t-53.5 111.5q-6 8 -26.5 -0.5 t-42 -22.5t-38 -28.5t-11.5 -18.5zM463 457q20 -35 51 -74t73 -70.5t92.5 -53t111.5 -21.5q59 0 110 21.5t92 53t73 70.5t52 74q-164 -43 -326.5 -42t-328.5 42zM715 731h155l-77 187zM918 903q-4 -2 4 -8t19 -12t23.5 -9.5t18.5 0.5l147 189q4 4 -11 18.5t-36.5 28.5 t-42 22.5t-26.5 0.5q-39 -49 -55.5 -110.5t-40.5 -119.5zM1290 102v23h84v-23h-31v-77h-22v77h-31zM1384 25v100h31l19 -78l18 78h29v-100h-19v77l-20 -77h-19l-20 77v-77h-19z" />
<glyph unicode="|" d="M68 731q0 150 56 282t154.5 230t230.5 155.5t282 57.5t281.5 -57.5t230 -155.5t156 -230t57.5 -282t-57.5 -282t-156 -230t-230 -155.5t-281.5 -57.5t-282 57.5t-230.5 155.5t-154.5 230.5t-56 281.5zM164 731q0 -129 49 -242.5t135 -199.5t200 -135.5t243 -49.5 q131 0 244.5 49.5t197.5 135.5t133 199.5t49 242.5t-49 242.5t-133 198.5t-197.5 134.5t-244.5 49.5q-129 0 -243 -49.5t-200 -134.5t-135 -198.5t-49 -242.5zM207 731q0 119 46 224.5t126 184.5t185.5 124t226.5 45q119 0 225 -45t185 -124t125 -184.5t46 -224.5 q0 -121 -46 -227.5t-125 -185t-185 -125t-225 -46.5q-121 0 -226.5 46.5t-185.5 125t-126 185t-46 227.5zM330 664l112 -177q346 -80 699 0l110 177h-921zM451 1063l151 -189q4 -4 15.5 -0.5t23.5 9.5t20.5 12t8.5 8q-29 57 -47.5 118.5t-53.5 111.5q-6 8 -26.5 -0.5 t-42 -22.5t-38 -28.5t-11.5 -18.5zM463 457q20 -35 51 -74t73 -70.5t92.5 -53t111.5 -21.5q59 0 110 21.5t92 53t73 70.5t52 74q-164 -43 -326.5 -42t-328.5 42zM715 731h155l-77 187zM918 903q-4 -2 4 -8t19 -12t23.5 -9.5t18.5 0.5l147 189q4 4 -11 18.5t-36.5 28.5 t-42 22.5t-26.5 0.5q-39 -49 -55.5 -110.5t-40.5 -119.5zM1290 102v23h84v-23h-31v-77h-22v77h-31zM1384 25v100h31l19 -78l18 78h29v-100h-19v77l-20 -77h-19l-20 77v-77h-19z" />
<glyph unicode="}" d="M68 731q0 150 56 282t154.5 230t230.5 155.5t282 57.5t281.5 -57.5t230 -155.5t156 -230t57.5 -282t-57.5 -282t-156 -230t-230 -155.5t-281.5 -57.5t-282 57.5t-230.5 155.5t-154.5 230.5t-56 281.5zM164 731q0 -129 49 -242.5t135 -199.5t200 -135.5t243 -49.5 q131 0 244.5 49.5t197.5 135.5t133 199.5t49 242.5t-49 242.5t-133 198.5t-197.5 134.5t-244.5 49.5q-129 0 -243 -49.5t-200 -134.5t-135 -198.5t-49 -242.5zM207 731q0 119 46 224.5t126 184.5t185.5 124t226.5 45q119 0 225 -45t185 -124t125 -184.5t46 -224.5 q0 -121 -46 -227.5t-125 -185t-185 -125t-225 -46.5q-121 0 -226.5 46.5t-185.5 125t-126 185t-46 227.5zM330 664l112 -177q346 -80 699 0l110 177h-921zM451 1063l151 -189q4 -4 15.5 -0.5t23.5 9.5t20.5 12t8.5 8q-29 57 -47.5 118.5t-53.5 111.5q-6 8 -26.5 -0.5 t-42 -22.5t-38 -28.5t-11.5 -18.5zM463 457q20 -35 51 -74t73 -70.5t92.5 -53t111.5 -21.5q59 0 110 21.5t92 53t73 70.5t52 74q-164 -43 -326.5 -42t-328.5 42zM715 731h155l-77 187zM918 903q-4 -2 4 -8t19 -12t23.5 -9.5t18.5 0.5l147 189q4 4 -11 18.5t-36.5 28.5 t-42 22.5t-26.5 0.5q-39 -49 -55.5 -110.5t-40.5 -119.5zM1290 102v23h84v-23h-31v-77h-22v77h-31zM1384 25v100h31l19 -78l18 78h29v-100h-19v77l-20 -77h-19l-20 77v-77h-19z" />
<glyph unicode="~" d="M68 731q0 150 56 282t154.5 230t230.5 155.5t282 57.5t281.5 -57.5t230 -155.5t156 -230t57.5 -282t-57.5 -282t-156 -230t-230 -155.5t-281.5 -57.5t-282 57.5t-230.5 155.5t-154.5 230.5t-56 281.5zM164 731q0 -129 49 -242.5t135 -199.5t200 -135.5t243 -49.5 q131 0 244.5 49.5t197.5 135.5t133 199.5t49 242.5t-49 242.5t-133 198.5t-197.5 134.5t-244.5 49.5q-129 0 -243 -49.5t-200 -134.5t-135 -198.5t-49 -242.5zM207 731q0 119 46 224.5t126 184.5t185.5 124t226.5 45q119 0 225 -45t185 -124t125 -184.5t46 -224.5 q0 -121 -46 -227.5t-125 -185t-185 -125t-225 -46.5q-121 0 -226.5 46.5t-185.5 125t-126 185t-46 227.5zM330 664l112 -177q346 -80 699 0l110 177h-921zM451 1063l151 -189q4 -4 15.5 -0.5t23.5 9.5t20.5 12t8.5 8q-29 57 -47.5 118.5t-53.5 111.5q-6 8 -26.5 -0.5 t-42 -22.5t-38 -28.5t-11.5 -18.5zM463 457q20 -35 51 -74t73 -70.5t92.5 -53t111.5 -21.5q59 0 110 21.5t92 53t73 70.5t52 74q-164 -43 -326.5 -42t-328.5 42zM715 731h155l-77 187zM918 903q-4 -2 4 -8t19 -12t23.5 -9.5t18.5 0.5l147 189q4 4 -11 18.5t-36.5 28.5 t-42 22.5t-26.5 0.5q-39 -49 -55.5 -110.5t-40.5 -119.5zM1290 102v23h84v-23h-31v-77h-22v77h-31zM1384 25v100h31l19 -78l18 78h29v-100h-19v77l-20 -77h-19l-20 77v-77h-19z" />
<glyph unicode="&#xa1;" d="M68 731q0 150 56 282t154.5 230t230.5 155.5t282 57.5t281.5 -57.5t230 -155.5t156 -230t57.5 -282t-57.5 -282t-156 -230t-230 -155.5t-281.5 -57.5t-282 57.5t-230.5 155.5t-154.5 230.5t-56 281.5zM164 731q0 -129 49 -242.5t135 -199.5t200 -135.5t243 -49.5 q131 0 244.5 49.5t197.5 135.5t133 199.5t49 242.5t-49 242.5t-133 198.5t-197.5 134.5t-244.5 49.5q-129 0 -243 -49.5t-200 -134.5t-135 -198.5t-49 -242.5zM207 731q0 119 46 224.5t126 184.5t185.5 124t226.5 45q119 0 225 -45t185 -124t125 -184.5t46 -224.5 q0 -121 -46 -227.5t-125 -185t-185 -125t-225 -46.5q-121 0 -226.5 46.5t-185.5 125t-126 185t-46 227.5zM330 664l112 -177q346 -80 699 0l110 177h-921zM451 1063l151 -189q4 -4 15.5 -0.5t23.5 9.5t20.5 12t8.5 8q-29 57 -47.5 118.5t-53.5 111.5q-6 8 -26.5 -0.5 t-42 -22.5t-38 -28.5t-11.5 -18.5zM463 457q20 -35 51 -74t73 -70.5t92.5 -53t111.5 -21.5q59 0 110 21.5t92 53t73 70.5t52 74q-164 -43 -326.5 -42t-328.5 42zM715 731h155l-77 187zM918 903q-4 -2 4 -8t19 -12t23.5 -9.5t18.5 0.5l147 189q4 4 -11 18.5t-36.5 28.5 t-42 22.5t-26.5 0.5q-39 -49 -55.5 -110.5t-40.5 -119.5zM1290 102v23h84v-23h-31v-77h-22v77h-31zM1384 25v100h31l19 -78l18 78h29v-100h-19v77l-20 -77h-19l-20 77v-77h-19z" />
<glyph unicode="&#xa2;" d="M68 731q0 150 56 282t154.5 230t230.5 155.5t282 57.5t281.5 -57.5t230 -155.5t156 -230t57.5 -282t-57.5 -282t-156 -230t-230 -155.5t-281.5 -57.5t-282 57.5t-230.5 155.5t-154.5 230.5t-56 281.5zM164 731q0 -129 49 -242.5t135 -199.5t200 -135.5t243 -49.5 q131 0 244.5 49.5t197.5 135.5t133 199.5t49 242.5t-49 242.5t-133 198.5t-197.5 134.5t-244.5 49.5q-129 0 -243 -49.5t-200 -134.5t-135 -198.5t-49 -242.5zM207 731q0 119 46 224.5t126 184.5t185.5 124t226.5 45q119 0 225 -45t185 -124t125 -184.5t46 -224.5 q0 -121 -46 -227.5t-125 -185t-185 -125t-225 -46.5q-121 0 -226.5 46.5t-185.5 125t-126 185t-46 227.5zM330 664l112 -177q346 -80 699 0l110 177h-921zM451 1063l151 -189q4 -4 15.5 -0.5t23.5 9.5t20.5 12t8.5 8q-29 57 -47.5 118.5t-53.5 111.5q-6 8 -26.5 -0.5 t-42 -22.5t-38 -28.5t-11.5 -18.5zM463 457q20 -35 51 -74t73 -70.5t92.5 -53t111.5 -21.5q59 0 110 21.5t92 53t73 70.5t52 74q-164 -43 -326.5 -42t-328.5 42zM715 731h155l-77 187zM918 903q-4 -2 4 -8t19 -12t23.5 -9.5t18.5 0.5l147 189q4 4 -11 18.5t-36.5 28.5 t-42 22.5t-26.5 0.5q-39 -49 -55.5 -110.5t-40.5 -119.5zM1290 102v23h84v-23h-31v-77h-22v77h-31zM1384 25v100h31l19 -78l18 78h29v-100h-19v77l-20 -77h-19l-20 77v-77h-19z" />
<glyph unicode="&#xa3;" d="M68 731q0 150 56 282t154.5 230t230.5 155.5t282 57.5t281.5 -57.5t230 -155.5t156 -230t57.5 -282t-57.5 -282t-156 -230t-230 -155.5t-281.5 -57.5t-282 57.5t-230.5 155.5t-154.5 230.5t-56 281.5zM164 731q0 -129 49 -242.5t135 -199.5t200 -135.5t243 -49.5 q131 0 244.5 49.5t197.5 135.5t133 199.5t49 242.5t-49 242.5t-133 198.5t-197.5 134.5t-244.5 49.5q-129 0 -243 -49.5t-200 -134.5t-135 -198.5t-49 -242.5zM207 731q0 119 46 224.5t126 184.5t185.5 124t226.5 45q119 0 225 -45t185 -124t125 -184.5t46 -224.5 q0 -121 -46 -227.5t-125 -185t-185 -125t-225 -46.5q-121 0 -226.5 46.5t-185.5 125t-126 185t-46 227.5zM330 664l112 -177q346 -80 699 0l110 177h-921zM451 1063l151 -189q4 -4 15.5 -0.5t23.5 9.5t20.5 12t8.5 8q-29 57 -47.5 118.5t-53.5 111.5q-6 8 -26.5 -0.5 t-42 -22.5t-38 -28.5t-11.5 -18.5zM463 457q20 -35 51 -74t73 -70.5t92.5 -53t111.5 -21.5q59 0 110 21.5t92 53t73 70.5t52 74q-164 -43 -326.5 -42t-328.5 42zM715 731h155l-77 187zM918 903q-4 -2 4 -8t19 -12t23.5 -9.5t18.5 0.5l147 189q4 4 -11 18.5t-36.5 28.5 t-42 22.5t-26.5 0.5q-39 -49 -55.5 -110.5t-40.5 -119.5zM1290 102v23h84v-23h-31v-77h-22v77h-31zM1384 25v100h31l19 -78l18 78h29v-100h-19v77l-20 -77h-19l-20 77v-77h-19z" />
<glyph unicode="&#xa4;" d="M68 731q0 150 56 282t154.5 230t230.5 155.5t282 57.5t281.5 -57.5t230 -155.5t156 -230t57.5 -282t-57.5 -282t-156 -230t-230 -155.5t-281.5 -57.5t-282 57.5t-230.5 155.5t-154.5 230.5t-56 281.5zM164 731q0 -129 49 -242.5t135 -199.5t200 -135.5t243 -49.5 q131 0 244.5 49.5t197.5 135.5t133 199.5t49 242.5t-49 242.5t-133 198.5t-197.5 134.5t-244.5 49.5q-129 0 -243 -49.5t-200 -134.5t-135 -198.5t-49 -242.5zM207 731q0 119 46 224.5t126 184.5t185.5 124t226.5 45q119 0 225 -45t185 -124t125 -184.5t46 -224.5 q0 -121 -46 -227.5t-125 -185t-185 -125t-225 -46.5q-121 0 -226.5 46.5t-185.5 125t-126 185t-46 227.5zM330 664l112 -177q346 -80 699 0l110 177h-921zM451 1063l151 -189q4 -4 15.5 -0.5t23.5 9.5t20.5 12t8.5 8q-29 57 -47.5 118.5t-53.5 111.5q-6 8 -26.5 -0.5 t-42 -22.5t-38 -28.5t-11.5 -18.5zM463 457q20 -35 51 -74t73 -70.5t92.5 -53t111.5 -21.5q59 0 110 21.5t92 53t73 70.5t52 74q-164 -43 -326.5 -42t-328.5 42zM715 731h155l-77 187zM918 903q-4 -2 4 -8t19 -12t23.5 -9.5t18.5 0.5l147 189q4 4 -11 18.5t-36.5 28.5 t-42 22.5t-26.5 0.5q-39 -49 -55.5 -110.5t-40.5 -119.5zM1290 102v23h84v-23h-31v-77h-22v77h-31zM1384 25v100h31l19 -78l18 78h29v-100h-19v77l-20 -77h-19l-20 77v-77h-19z" />
<glyph unicode="&#xa5;" d="M68 731q0 150 56 282t154.5 230t230.5 155.5t282 57.5t281.5 -57.5t230 -155.5t156 -230t57.5 -282t-57.5 -282t-156 -230t-230 -155.5t-281.5 -57.5t-282 57.5t-230.5 155.5t-154.5 230.5t-56 281.5zM164 731q0 -129 49 -242.5t135 -199.5t200 -135.5t243 -49.5 q131 0 244.5 49.5t197.5 135.5t133 199.5t49 242.5t-49 242.5t-133 198.5t-197.5 134.5t-244.5 49.5q-129 0 -243 -49.5t-200 -134.5t-135 -198.5t-49 -242.5zM207 731q0 119 46 224.5t126 184.5t185.5 124t226.5 45q119 0 225 -45t185 -124t125 -184.5t46 -224.5 q0 -121 -46 -227.5t-125 -185t-185 -125t-225 -46.5q-121 0 -226.5 46.5t-185.5 125t-126 185t-46 227.5zM330 664l112 -177q346 -80 699 0l110 177h-921zM451 1063l151 -189q4 -4 15.5 -0.5t23.5 9.5t20.5 12t8.5 8q-29 57 -47.5 118.5t-53.5 111.5q-6 8 -26.5 -0.5 t-42 -22.5t-38 -28.5t-11.5 -18.5zM463 457q20 -35 51 -74t73 -70.5t92.5 -53t111.5 -21.5q59 0 110 21.5t92 53t73 70.5t52 74q-164 -43 -326.5 -42t-328.5 42zM715 731h155l-77 187zM918 903q-4 -2 4 -8t19 -12t23.5 -9.5t18.5 0.5l147 189q4 4 -11 18.5t-36.5 28.5 t-42 22.5t-26.5 0.5q-39 -49 -55.5 -110.5t-40.5 -119.5zM1290 102v23h84v-23h-31v-77h-22v77h-31zM1384 25v100h31l19 -78l18 78h29v-100h-19v77l-20 -77h-19l-20 77v-77h-19z" />
<glyph unicode="&#xa6;" d="M68 731q0 150 56 282t154.5 230t230.5 155.5t282 57.5t281.5 -57.5t230 -155.5t156 -230t57.5 -282t-57.5 -282t-156 -230t-230 -155.5t-281.5 -57.5t-282 57.5t-230.5 155.5t-154.5 230.5t-56 281.5zM164 731q0 -129 49 -242.5t135 -199.5t200 -135.5t243 -49.5 q131 0 244.5 49.5t197.5 135.5t133 199.5t49 242.5t-49 242.5t-133 198.5t-197.5 134.5t-244.5 49.5q-129 0 -243 -49.5t-200 -134.5t-135 -198.5t-49 -242.5zM207 731q0 119 46 224.5t126 184.5t185.5 124t226.5 45q119 0 225 -45t185 -124t125 -184.5t46 -224.5 q0 -121 -46 -227.5t-125 -185t-185 -125t-225 -46.5q-121 0 -226.5 46.5t-185.5 125t-126 185t-46 227.5zM330 664l112 -177q346 -80 699 0l110 177h-921zM451 1063l151 -189q4 -4 15.5 -0.5t23.5 9.5t20.5 12t8.5 8q-29 57 -47.5 118.5t-53.5 111.5q-6 8 -26.5 -0.5 t-42 -22.5t-38 -28.5t-11.5 -18.5zM463 457q20 -35 51 -74t73 -70.5t92.5 -53t111.5 -21.5q59 0 110 21.5t92 53t73 70.5t52 74q-164 -43 -326.5 -42t-328.5 42zM715 731h155l-77 187zM918 903q-4 -2 4 -8t19 -12t23.5 -9.5t18.5 0.5l147 189q4 4 -11 18.5t-36.5 28.5 t-42 22.5t-26.5 0.5q-39 -49 -55.5 -110.5t-40.5 -119.5zM1290 102v23h84v-23h-31v-77h-22v77h-31zM1384 25v100h31l19 -78l18 78h29v-100h-19v77l-20 -77h-19l-20 77v-77h-19z" />
<glyph unicode="&#xa7;" d="M68 731q0 150 56 282t154.5 230t230.5 155.5t282 57.5t281.5 -57.5t230 -155.5t156 -230t57.5 -282t-57.5 -282t-156 -230t-230 -155.5t-281.5 -57.5t-282 57.5t-230.5 155.5t-154.5 230.5t-56 281.5zM164 731q0 -129 49 -242.5t135 -199.5t200 -135.5t243 -49.5 q131 0 244.5 49.5t197.5 135.5t133 199.5t49 242.5t-49 242.5t-133 198.5t-197.5 134.5t-244.5 49.5q-129 0 -243 -49.5t-200 -134.5t-135 -198.5t-49 -242.5zM207 731q0 119 46 224.5t126 184.5t185.5 124t226.5 45q119 0 225 -45t185 -124t125 -184.5t46 -224.5 q0 -121 -46 -227.5t-125 -185t-185 -125t-225 -46.5q-121 0 -226.5 46.5t-185.5 125t-126 185t-46 227.5zM330 664l112 -177q346 -80 699 0l110 177h-921zM451 1063l151 -189q4 -4 15.5 -0.5t23.5 9.5t20.5 12t8.5 8q-29 57 -47.5 118.5t-53.5 111.5q-6 8 -26.5 -0.5 t-42 -22.5t-38 -28.5t-11.5 -18.5zM463 457q20 -35 51 -74t73 -70.5t92.5 -53t111.5 -21.5q59 0 110 21.5t92 53t73 70.5t52 74q-164 -43 -326.5 -42t-328.5 42zM715 731h155l-77 187zM918 903q-4 -2 4 -8t19 -12t23.5 -9.5t18.5 0.5l147 189q4 4 -11 18.5t-36.5 28.5 t-42 22.5t-26.5 0.5q-39 -49 -55.5 -110.5t-40.5 -119.5zM1290 102v23h84v-23h-31v-77h-22v77h-31zM1384 25v100h31l19 -78l18 78h29v-100h-19v77l-20 -77h-19l-20 77v-77h-19z" />
<glyph unicode="&#xa8;" d="M68 731q0 150 56 282t154.5 230t230.5 155.5t282 57.5t281.5 -57.5t230 -155.5t156 -230t57.5 -282t-57.5 -282t-156 -230t-230 -155.5t-281.5 -57.5t-282 57.5t-230.5 155.5t-154.5 230.5t-56 281.5zM164 731q0 -129 49 -242.5t135 -199.5t200 -135.5t243 -49.5 q131 0 244.5 49.5t197.5 135.5t133 199.5t49 242.5t-49 242.5t-133 198.5t-197.5 134.5t-244.5 49.5q-129 0 -243 -49.5t-200 -134.5t-135 -198.5t-49 -242.5zM207 731q0 119 46 224.5t126 184.5t185.5 124t226.5 45q119 0 225 -45t185 -124t125 -184.5t46 -224.5 q0 -121 -46 -227.5t-125 -185t-185 -125t-225 -46.5q-121 0 -226.5 46.5t-185.5 125t-126 185t-46 227.5zM330 664l112 -177q346 -80 699 0l110 177h-921zM451 1063l151 -189q4 -4 15.5 -0.5t23.5 9.5t20.5 12t8.5 8q-29 57 -47.5 118.5t-53.5 111.5q-6 8 -26.5 -0.5 t-42 -22.5t-38 -28.5t-11.5 -18.5zM463 457q20 -35 51 -74t73 -70.5t92.5 -53t111.5 -21.5q59 0 110 21.5t92 53t73 70.5t52 74q-164 -43 -326.5 -42t-328.5 42zM715 731h155l-77 187zM918 903q-4 -2 4 -8t19 -12t23.5 -9.5t18.5 0.5l147 189q4 4 -11 18.5t-36.5 28.5 t-42 22.5t-26.5 0.5q-39 -49 -55.5 -110.5t-40.5 -119.5zM1290 102v23h84v-23h-31v-77h-22v77h-31zM1384 25v100h31l19 -78l18 78h29v-100h-19v77l-20 -77h-19l-20 77v-77h-19z" />
<glyph unicode="&#xa9;" d="M68 731q0 150 56 282t154.5 230t230.5 155.5t282 57.5t281.5 -57.5t230 -155.5t156 -230t57.5 -282t-57.5 -282t-156 -230t-230 -155.5t-281.5 -57.5t-282 57.5t-230.5 155.5t-154.5 230.5t-56 281.5zM164 731q0 -129 49 -242.5t135 -199.5t200 -135.5t243 -49.5 q131 0 244.5 49.5t197.5 135.5t133 199.5t49 242.5t-49 242.5t-133 198.5t-197.5 134.5t-244.5 49.5q-129 0 -243 -49.5t-200 -134.5t-135 -198.5t-49 -242.5zM207 731q0 119 46 224.5t126 184.5t185.5 124t226.5 45q119 0 225 -45t185 -124t125 -184.5t46 -224.5 q0 -121 -46 -227.5t-125 -185t-185 -125t-225 -46.5q-121 0 -226.5 46.5t-185.5 125t-126 185t-46 227.5zM330 664l112 -177q346 -80 699 0l110 177h-921zM451 1063l151 -189q4 -4 15.5 -0.5t23.5 9.5t20.5 12t8.5 8q-29 57 -47.5 118.5t-53.5 111.5q-6 8 -26.5 -0.5 t-42 -22.5t-38 -28.5t-11.5 -18.5zM463 457q20 -35 51 -74t73 -70.5t92.5 -53t111.5 -21.5q59 0 110 21.5t92 53t73 70.5t52 74q-164 -43 -326.5 -42t-328.5 42zM715 731h155l-77 187zM918 903q-4 -2 4 -8t19 -12t23.5 -9.5t18.5 0.5l147 189q4 4 -11 18.5t-36.5 28.5 t-42 22.5t-26.5 0.5q-39 -49 -55.5 -110.5t-40.5 -119.5zM1290 102v23h84v-23h-31v-77h-22v77h-31zM1384 25v100h31l19 -78l18 78h29v-100h-19v77l-20 -77h-19l-20 77v-77h-19z" />
<glyph unicode="&#xaa;" d="M68 731q0 150 56 282t154.5 230t230.5 155.5t282 57.5t281.5 -57.5t230 -155.5t156 -230t57.5 -282t-57.5 -282t-156 -230t-230 -155.5t-281.5 -57.5t-282 57.5t-230.5 155.5t-154.5 230.5t-56 281.5zM164 731q0 -129 49 -242.5t135 -199.5t200 -135.5t243 -49.5 q131 0 244.5 49.5t197.5 135.5t133 199.5t49 242.5t-49 242.5t-133 198.5t-197.5 134.5t-244.5 49.5q-129 0 -243 -49.5t-200 -134.5t-135 -198.5t-49 -242.5zM207 731q0 119 46 224.5t126 184.5t185.5 124t226.5 45q119 0 225 -45t185 -124t125 -184.5t46 -224.5 q0 -121 -46 -227.5t-125 -185t-185 -125t-225 -46.5q-121 0 -226.5 46.5t-185.5 125t-126 185t-46 227.5zM330 664l112 -177q346 -80 699 0l110 177h-921zM451 1063l151 -189q4 -4 15.5 -0.5t23.5 9.5t20.5 12t8.5 8q-29 57 -47.5 118.5t-53.5 111.5q-6 8 -26.5 -0.5 t-42 -22.5t-38 -28.5t-11.5 -18.5zM463 457q20 -35 51 -74t73 -70.5t92.5 -53t111.5 -21.5q59 0 110 21.5t92 53t73 70.5t52 74q-164 -43 -326.5 -42t-328.5 42zM715 731h155l-77 187zM918 903q-4 -2 4 -8t19 -12t23.5 -9.5t18.5 0.5l147 189q4 4 -11 18.5t-36.5 28.5 t-42 22.5t-26.5 0.5q-39 -49 -55.5 -110.5t-40.5 -119.5zM1290 102v23h84v-23h-31v-77h-22v77h-31zM1384 25v100h31l19 -78l18 78h29v-100h-19v77l-20 -77h-19l-20 77v-77h-19z" />
<glyph unicode="&#xab;" d="M68 731q0 150 56 282t154.5 230t230.5 155.5t282 57.5t281.5 -57.5t230 -155.5t156 -230t57.5 -282t-57.5 -282t-156 -230t-230 -155.5t-281.5 -57.5t-282 57.5t-230.5 155.5t-154.5 230.5t-56 281.5zM164 731q0 -129 49 -242.5t135 -199.5t200 -135.5t243 -49.5 q131 0 244.5 49.5t197.5 135.5t133 199.5t49 242.5t-49 242.5t-133 198.5t-197.5 134.5t-244.5 49.5q-129 0 -243 -49.5t-200 -134.5t-135 -198.5t-49 -242.5zM207 731q0 119 46 224.5t126 184.5t185.5 124t226.5 45q119 0 225 -45t185 -124t125 -184.5t46 -224.5 q0 -121 -46 -227.5t-125 -185t-185 -125t-225 -46.5q-121 0 -226.5 46.5t-185.5 125t-126 185t-46 227.5zM330 664l112 -177q346 -80 699 0l110 177h-921zM451 1063l151 -189q4 -4 15.5 -0.5t23.5 9.5t20.5 12t8.5 8q-29 57 -47.5 118.5t-53.5 111.5q-6 8 -26.5 -0.5 t-42 -22.5t-38 -28.5t-11.5 -18.5zM463 457q20 -35 51 -74t73 -70.5t92.5 -53t111.5 -21.5q59 0 110 21.5t92 53t73 70.5t52 74q-164 -43 -326.5 -42t-328.5 42zM715 731h155l-77 187zM918 903q-4 -2 4 -8t19 -12t23.5 -9.5t18.5 0.5l147 189q4 4 -11 18.5t-36.5 28.5 t-42 22.5t-26.5 0.5q-39 -49 -55.5 -110.5t-40.5 -119.5zM1290 102v23h84v-23h-31v-77h-22v77h-31zM1384 25v100h31l19 -78l18 78h29v-100h-19v77l-20 -77h-19l-20 77v-77h-19z" />
<glyph unicode="&#xac;" d="M68 731q0 150 56 282t154.5 230t230.5 155.5t282 57.5t281.5 -57.5t230 -155.5t156 -230t57.5 -282t-57.5 -282t-156 -230t-230 -155.5t-281.5 -57.5t-282 57.5t-230.5 155.5t-154.5 230.5t-56 281.5zM164 731q0 -129 49 -242.5t135 -199.5t200 -135.5t243 -49.5 q131 0 244.5 49.5t197.5 135.5t133 199.5t49 242.5t-49 242.5t-133 198.5t-197.5 134.5t-244.5 49.5q-129 0 -243 -49.5t-200 -134.5t-135 -198.5t-49 -242.5zM207 731q0 119 46 224.5t126 184.5t185.5 124t226.5 45q119 0 225 -45t185 -124t125 -184.5t46 -224.5 q0 -121 -46 -227.5t-125 -185t-185 -125t-225 -46.5q-121 0 -226.5 46.5t-185.5 125t-126 185t-46 227.5zM330 664l112 -177q346 -80 699 0l110 177h-921zM451 1063l151 -189q4 -4 15.5 -0.5t23.5 9.5t20.5 12t8.5 8q-29 57 -47.5 118.5t-53.5 111.5q-6 8 -26.5 -0.5 t-42 -22.5t-38 -28.5t-11.5 -18.5zM463 457q20 -35 51 -74t73 -70.5t92.5 -53t111.5 -21.5q59 0 110 21.5t92 53t73 70.5t52 74q-164 -43 -326.5 -42t-328.5 42zM715 731h155l-77 187zM918 903q-4 -2 4 -8t19 -12t23.5 -9.5t18.5 0.5l147 189q4 4 -11 18.5t-36.5 28.5 t-42 22.5t-26.5 0.5q-39 -49 -55.5 -110.5t-40.5 -119.5zM1290 102v23h84v-23h-31v-77h-22v77h-31zM1384 25v100h31l19 -78l18 78h29v-100h-19v77l-20 -77h-19l-20 77v-77h-19z" />
<glyph unicode="&#xad;" d="M68 731q0 150 56 282t154.5 230t230.5 155.5t282 57.5t281.5 -57.5t230 -155.5t156 -230t57.5 -282t-57.5 -282t-156 -230t-230 -155.5t-281.5 -57.5t-282 57.5t-230.5 155.5t-154.5 230.5t-56 281.5zM164 731q0 -129 49 -242.5t135 -199.5t200 -135.5t243 -49.5 q131 0 244.5 49.5t197.5 135.5t133 199.5t49 242.5t-49 242.5t-133 198.5t-197.5 134.5t-244.5 49.5q-129 0 -243 -49.5t-200 -134.5t-135 -198.5t-49 -242.5zM207 731q0 119 46 224.5t126 184.5t185.5 124t226.5 45q119 0 225 -45t185 -124t125 -184.5t46 -224.5 q0 -121 -46 -227.5t-125 -185t-185 -125t-225 -46.5q-121 0 -226.5 46.5t-185.5 125t-126 185t-46 227.5zM330 664l112 -177q346 -80 699 0l110 177h-921zM451 1063l151 -189q4 -4 15.5 -0.5t23.5 9.5t20.5 12t8.5 8q-29 57 -47.5 118.5t-53.5 111.5q-6 8 -26.5 -0.5 t-42 -22.5t-38 -28.5t-11.5 -18.5zM463 457q20 -35 51 -74t73 -70.5t92.5 -53t111.5 -21.5q59 0 110 21.5t92 53t73 70.5t52 74q-164 -43 -326.5 -42t-328.5 42zM715 731h155l-77 187zM918 903q-4 -2 4 -8t19 -12t23.5 -9.5t18.5 0.5l147 189q4 4 -11 18.5t-36.5 28.5 t-42 22.5t-26.5 0.5q-39 -49 -55.5 -110.5t-40.5 -119.5zM1290 102v23h84v-23h-31v-77h-22v77h-31zM1384 25v100h31l19 -78l18 78h29v-100h-19v77l-20 -77h-19l-20 77v-77h-19z" />
<glyph unicode="&#xae;" d="M68 731q0 150 56 282t154.5 230t230.5 155.5t282 57.5t281.5 -57.5t230 -155.5t156 -230t57.5 -282t-57.5 -282t-156 -230t-230 -155.5t-281.5 -57.5t-282 57.5t-230.5 155.5t-154.5 230.5t-56 281.5zM164 731q0 -129 49 -242.5t135 -199.5t200 -135.5t243 -49.5 q131 0 244.5 49.5t197.5 135.5t133 199.5t49 242.5t-49 242.5t-133 198.5t-197.5 134.5t-244.5 49.5q-129 0 -243 -49.5t-200 -134.5t-135 -198.5t-49 -242.5zM207 731q0 119 46 224.5t126 184.5t185.5 124t226.5 45q119 0 225 -45t185 -124t125 -184.5t46 -224.5 q0 -121 -46 -227.5t-125 -185t-185 -125t-225 -46.5q-121 0 -226.5 46.5t-185.5 125t-126 185t-46 227.5zM330 664l112 -177q346 -80 699 0l110 177h-921zM451 1063l151 -189q4 -4 15.5 -0.5t23.5 9.5t20.5 12t8.5 8q-29 57 -47.5 118.5t-53.5 111.5q-6 8 -26.5 -0.5 t-42 -22.5t-38 -28.5t-11.5 -18.5zM463 457q20 -35 51 -74t73 -70.5t92.5 -53t111.5 -21.5q59 0 110 21.5t92 53t73 70.5t52 74q-164 -43 -326.5 -42t-328.5 42zM715 731h155l-77 187zM918 903q-4 -2 4 -8t19 -12t23.5 -9.5t18.5 0.5l147 189q4 4 -11 18.5t-36.5 28.5 t-42 22.5t-26.5 0.5q-39 -49 -55.5 -110.5t-40.5 -119.5zM1290 102v23h84v-23h-31v-77h-22v77h-31zM1384 25v100h31l19 -78l18 78h29v-100h-19v77l-20 -77h-19l-20 77v-77h-19z" />
<glyph unicode="&#xaf;" d="M68 731q0 150 56 282t154.5 230t230.5 155.5t282 57.5t281.5 -57.5t230 -155.5t156 -230t57.5 -282t-57.5 -282t-156 -230t-230 -155.5t-281.5 -57.5t-282 57.5t-230.5 155.5t-154.5 230.5t-56 281.5zM164 731q0 -129 49 -242.5t135 -199.5t200 -135.5t243 -49.5 q131 0 244.5 49.5t197.5 135.5t133 199.5t49 242.5t-49 242.5t-133 198.5t-197.5 134.5t-244.5 49.5q-129 0 -243 -49.5t-200 -134.5t-135 -198.5t-49 -242.5zM207 731q0 119 46 224.5t126 184.5t185.5 124t226.5 45q119 0 225 -45t185 -124t125 -184.5t46 -224.5 q0 -121 -46 -227.5t-125 -185t-185 -125t-225 -46.5q-121 0 -226.5 46.5t-185.5 125t-126 185t-46 227.5zM330 664l112 -177q346 -80 699 0l110 177h-921zM451 1063l151 -189q4 -4 15.5 -0.5t23.5 9.5t20.5 12t8.5 8q-29 57 -47.5 118.5t-53.5 111.5q-6 8 -26.5 -0.5 t-42 -22.5t-38 -28.5t-11.5 -18.5zM463 457q20 -35 51 -74t73 -70.5t92.5 -53t111.5 -21.5q59 0 110 21.5t92 53t73 70.5t52 74q-164 -43 -326.5 -42t-328.5 42zM715 731h155l-77 187zM918 903q-4 -2 4 -8t19 -12t23.5 -9.5t18.5 0.5l147 189q4 4 -11 18.5t-36.5 28.5 t-42 22.5t-26.5 0.5q-39 -49 -55.5 -110.5t-40.5 -119.5zM1290 102v23h84v-23h-31v-77h-22v77h-31zM1384 25v100h31l19 -78l18 78h29v-100h-19v77l-20 -77h-19l-20 77v-77h-19z" />
<glyph unicode="&#xb0;" d="M68 731q0 150 56 282t154.5 230t230.5 155.5t282 57.5t281.5 -57.5t230 -155.5t156 -230t57.5 -282t-57.5 -282t-156 -230t-230 -155.5t-281.5 -57.5t-282 57.5t-230.5 155.5t-154.5 230.5t-56 281.5zM164 731q0 -129 49 -242.5t135 -199.5t200 -135.5t243 -49.5 q131 0 244.5 49.5t197.5 135.5t133 199.5t49 242.5t-49 242.5t-133 198.5t-197.5 134.5t-244.5 49.5q-129 0 -243 -49.5t-200 -134.5t-135 -198.5t-49 -242.5zM207 731q0 119 46 224.5t126 184.5t185.5 124t226.5 45q119 0 225 -45t185 -124t125 -184.5t46 -224.5 q0 -121 -46 -227.5t-125 -185t-185 -125t-225 -46.5q-121 0 -226.5 46.5t-185.5 125t-126 185t-46 227.5zM330 664l112 -177q346 -80 699 0l110 177h-921zM451 1063l151 -189q4 -4 15.5 -0.5t23.5 9.5t20.5 12t8.5 8q-29 57 -47.5 118.5t-53.5 111.5q-6 8 -26.5 -0.5 t-42 -22.5t-38 -28.5t-11.5 -18.5zM463 457q20 -35 51 -74t73 -70.5t92.5 -53t111.5 -21.5q59 0 110 21.5t92 53t73 70.5t52 74q-164 -43 -326.5 -42t-328.5 42zM715 731h155l-77 187zM918 903q-4 -2 4 -8t19 -12t23.5 -9.5t18.5 0.5l147 189q4 4 -11 18.5t-36.5 28.5 t-42 22.5t-26.5 0.5q-39 -49 -55.5 -110.5t-40.5 -119.5zM1290 102v23h84v-23h-31v-77h-22v77h-31zM1384 25v100h31l19 -78l18 78h29v-100h-19v77l-20 -77h-19l-20 77v-77h-19z" />
<glyph unicode="&#xb1;" d="M68 731q0 150 56 282t154.5 230t230.5 155.5t282 57.5t281.5 -57.5t230 -155.5t156 -230t57.5 -282t-57.5 -282t-156 -230t-230 -155.5t-281.5 -57.5t-282 57.5t-230.5 155.5t-154.5 230.5t-56 281.5zM164 731q0 -129 49 -242.5t135 -199.5t200 -135.5t243 -49.5 q131 0 244.5 49.5t197.5 135.5t133 199.5t49 242.5t-49 242.5t-133 198.5t-197.5 134.5t-244.5 49.5q-129 0 -243 -49.5t-200 -134.5t-135 -198.5t-49 -242.5zM207 731q0 119 46 224.5t126 184.5t185.5 124t226.5 45q119 0 225 -45t185 -124t125 -184.5t46 -224.5 q0 -121 -46 -227.5t-125 -185t-185 -125t-225 -46.5q-121 0 -226.5 46.5t-185.5 125t-126 185t-46 227.5zM330 664l112 -177q346 -80 699 0l110 177h-921zM451 1063l151 -189q4 -4 15.5 -0.5t23.5 9.5t20.5 12t8.5 8q-29 57 -47.5 118.5t-53.5 111.5q-6 8 -26.5 -0.5 t-42 -22.5t-38 -28.5t-11.5 -18.5zM463 457q20 -35 51 -74t73 -70.5t92.5 -53t111.5 -21.5q59 0 110 21.5t92 53t73 70.5t52 74q-164 -43 -326.5 -42t-328.5 42zM715 731h155l-77 187zM918 903q-4 -2 4 -8t19 -12t23.5 -9.5t18.5 0.5l147 189q4 4 -11 18.5t-36.5 28.5 t-42 22.5t-26.5 0.5q-39 -49 -55.5 -110.5t-40.5 -119.5zM1290 102v23h84v-23h-31v-77h-22v77h-31zM1384 25v100h31l19 -78l18 78h29v-100h-19v77l-20 -77h-19l-20 77v-77h-19z" />
<glyph unicode="&#xb2;" d="M68 731q0 150 56 282t154.5 230t230.5 155.5t282 57.5t281.5 -57.5t230 -155.5t156 -230t57.5 -282t-57.5 -282t-156 -230t-230 -155.5t-281.5 -57.5t-282 57.5t-230.5 155.5t-154.5 230.5t-56 281.5zM164 731q0 -129 49 -242.5t135 -199.5t200 -135.5t243 -49.5 q131 0 244.5 49.5t197.5 135.5t133 199.5t49 242.5t-49 242.5t-133 198.5t-197.5 134.5t-244.5 49.5q-129 0 -243 -49.5t-200 -134.5t-135 -198.5t-49 -242.5zM207 731q0 119 46 224.5t126 184.5t185.5 124t226.5 45q119 0 225 -45t185 -124t125 -184.5t46 -224.5 q0 -121 -46 -227.5t-125 -185t-185 -125t-225 -46.5q-121 0 -226.5 46.5t-185.5 125t-126 185t-46 227.5zM330 664l112 -177q346 -80 699 0l110 177h-921zM451 1063l151 -189q4 -4 15.5 -0.5t23.5 9.5t20.5 12t8.5 8q-29 57 -47.5 118.5t-53.5 111.5q-6 8 -26.5 -0.5 t-42 -22.5t-38 -28.5t-11.5 -18.5zM463 457q20 -35 51 -74t73 -70.5t92.5 -53t111.5 -21.5q59 0 110 21.5t92 53t73 70.5t52 74q-164 -43 -326.5 -42t-328.5 42zM715 731h155l-77 187zM918 903q-4 -2 4 -8t19 -12t23.5 -9.5t18.5 0.5l147 189q4 4 -11 18.5t-36.5 28.5 t-42 22.5t-26.5 0.5q-39 -49 -55.5 -110.5t-40.5 -119.5zM1290 102v23h84v-23h-31v-77h-22v77h-31zM1384 25v100h31l19 -78l18 78h29v-100h-19v77l-20 -77h-19l-20 77v-77h-19z" />
<glyph unicode="&#xb3;" d="M68 731q0 150 56 282t154.5 230t230.5 155.5t282 57.5t281.5 -57.5t230 -155.5t156 -230t57.5 -282t-57.5 -282t-156 -230t-230 -155.5t-281.5 -57.5t-282 57.5t-230.5 155.5t-154.5 230.5t-56 281.5zM164 731q0 -129 49 -242.5t135 -199.5t200 -135.5t243 -49.5 q131 0 244.5 49.5t197.5 135.5t133 199.5t49 242.5t-49 242.5t-133 198.5t-197.5 134.5t-244.5 49.5q-129 0 -243 -49.5t-200 -134.5t-135 -198.5t-49 -242.5zM207 731q0 119 46 224.5t126 184.5t185.5 124t226.5 45q119 0 225 -45t185 -124t125 -184.5t46 -224.5 q0 -121 -46 -227.5t-125 -185t-185 -125t-225 -46.5q-121 0 -226.5 46.5t-185.5 125t-126 185t-46 227.5zM330 664l112 -177q346 -80 699 0l110 177h-921zM451 1063l151 -189q4 -4 15.5 -0.5t23.5 9.5t20.5 12t8.5 8q-29 57 -47.5 118.5t-53.5 111.5q-6 8 -26.5 -0.5 t-42 -22.5t-38 -28.5t-11.5 -18.5zM463 457q20 -35 51 -74t73 -70.5t92.5 -53t111.5 -21.5q59 0 110 21.5t92 53t73 70.5t52 74q-164 -43 -326.5 -42t-328.5 42zM715 731h155l-77 187zM918 903q-4 -2 4 -8t19 -12t23.5 -9.5t18.5 0.5l147 189q4 4 -11 18.5t-36.5 28.5 t-42 22.5t-26.5 0.5q-39 -49 -55.5 -110.5t-40.5 -119.5zM1290 102v23h84v-23h-31v-77h-22v77h-31zM1384 25v100h31l19 -78l18 78h29v-100h-19v77l-20 -77h-19l-20 77v-77h-19z" />
<glyph unicode="&#xb4;" d="M68 731q0 150 56 282t154.5 230t230.5 155.5t282 57.5t281.5 -57.5t230 -155.5t156 -230t57.5 -282t-57.5 -282t-156 -230t-230 -155.5t-281.5 -57.5t-282 57.5t-230.5 155.5t-154.5 230.5t-56 281.5zM164 731q0 -129 49 -242.5t135 -199.5t200 -135.5t243 -49.5 q131 0 244.5 49.5t197.5 135.5t133 199.5t49 242.5t-49 242.5t-133 198.5t-197.5 134.5t-244.5 49.5q-129 0 -243 -49.5t-200 -134.5t-135 -198.5t-49 -242.5zM207 731q0 119 46 224.5t126 184.5t185.5 124t226.5 45q119 0 225 -45t185 -124t125 -184.5t46 -224.5 q0 -121 -46 -227.5t-125 -185t-185 -125t-225 -46.5q-121 0 -226.5 46.5t-185.5 125t-126 185t-46 227.5zM330 664l112 -177q346 -80 699 0l110 177h-921zM451 1063l151 -189q4 -4 15.5 -0.5t23.5 9.5t20.5 12t8.5 8q-29 57 -47.5 118.5t-53.5 111.5q-6 8 -26.5 -0.5 t-42 -22.5t-38 -28.5t-11.5 -18.5zM463 457q20 -35 51 -74t73 -70.5t92.5 -53t111.5 -21.5q59 0 110 21.5t92 53t73 70.5t52 74q-164 -43 -326.5 -42t-328.5 42zM715 731h155l-77 187zM918 903q-4 -2 4 -8t19 -12t23.5 -9.5t18.5 0.5l147 189q4 4 -11 18.5t-36.5 28.5 t-42 22.5t-26.5 0.5q-39 -49 -55.5 -110.5t-40.5 -119.5zM1290 102v23h84v-23h-31v-77h-22v77h-31zM1384 25v100h31l19 -78l18 78h29v-100h-19v77l-20 -77h-19l-20 77v-77h-19z" />
<glyph unicode="&#xb6;" d="M68 731q0 150 56 282t154.5 230t230.5 155.5t282 57.5t281.5 -57.5t230 -155.5t156 -230t57.5 -282t-57.5 -282t-156 -230t-230 -155.5t-281.5 -57.5t-282 57.5t-230.5 155.5t-154.5 230.5t-56 281.5zM164 731q0 -129 49 -242.5t135 -199.5t200 -135.5t243 -49.5 q131 0 244.5 49.5t197.5 135.5t133 199.5t49 242.5t-49 242.5t-133 198.5t-197.5 134.5t-244.5 49.5q-129 0 -243 -49.5t-200 -134.5t-135 -198.5t-49 -242.5zM207 731q0 119 46 224.5t126 184.5t185.5 124t226.5 45q119 0 225 -45t185 -124t125 -184.5t46 -224.5 q0 -121 -46 -227.5t-125 -185t-185 -125t-225 -46.5q-121 0 -226.5 46.5t-185.5 125t-126 185t-46 227.5zM330 664l112 -177q346 -80 699 0l110 177h-921zM451 1063l151 -189q4 -4 15.5 -0.5t23.5 9.5t20.5 12t8.5 8q-29 57 -47.5 118.5t-53.5 111.5q-6 8 -26.5 -0.5 t-42 -22.5t-38 -28.5t-11.5 -18.5zM463 457q20 -35 51 -74t73 -70.5t92.5 -53t111.5 -21.5q59 0 110 21.5t92 53t73 70.5t52 74q-164 -43 -326.5 -42t-328.5 42zM715 731h155l-77 187zM918 903q-4 -2 4 -8t19 -12t23.5 -9.5t18.5 0.5l147 189q4 4 -11 18.5t-36.5 28.5 t-42 22.5t-26.5 0.5q-39 -49 -55.5 -110.5t-40.5 -119.5zM1290 102v23h84v-23h-31v-77h-22v77h-31zM1384 25v100h31l19 -78l18 78h29v-100h-19v77l-20 -77h-19l-20 77v-77h-19z" />
<glyph unicode="&#xb7;" d="M68 731q0 150 56 282t154.5 230t230.5 155.5t282 57.5t281.5 -57.5t230 -155.5t156 -230t57.5 -282t-57.5 -282t-156 -230t-230 -155.5t-281.5 -57.5t-282 57.5t-230.5 155.5t-154.5 230.5t-56 281.5zM164 731q0 -129 49 -242.5t135 -199.5t200 -135.5t243 -49.5 q131 0 244.5 49.5t197.5 135.5t133 199.5t49 242.5t-49 242.5t-133 198.5t-197.5 134.5t-244.5 49.5q-129 0 -243 -49.5t-200 -134.5t-135 -198.5t-49 -242.5zM207 731q0 119 46 224.5t126 184.5t185.5 124t226.5 45q119 0 225 -45t185 -124t125 -184.5t46 -224.5 q0 -121 -46 -227.5t-125 -185t-185 -125t-225 -46.5q-121 0 -226.5 46.5t-185.5 125t-126 185t-46 227.5zM330 664l112 -177q346 -80 699 0l110 177h-921zM451 1063l151 -189q4 -4 15.5 -0.5t23.5 9.5t20.5 12t8.5 8q-29 57 -47.5 118.5t-53.5 111.5q-6 8 -26.5 -0.5 t-42 -22.5t-38 -28.5t-11.5 -18.5zM463 457q20 -35 51 -74t73 -70.5t92.5 -53t111.5 -21.5q59 0 110 21.5t92 53t73 70.5t52 74q-164 -43 -326.5 -42t-328.5 42zM715 731h155l-77 187zM918 903q-4 -2 4 -8t19 -12t23.5 -9.5t18.5 0.5l147 189q4 4 -11 18.5t-36.5 28.5 t-42 22.5t-26.5 0.5q-39 -49 -55.5 -110.5t-40.5 -119.5zM1290 102v23h84v-23h-31v-77h-22v77h-31zM1384 25v100h31l19 -78l18 78h29v-100h-19v77l-20 -77h-19l-20 77v-77h-19z" />
<glyph unicode="&#xb8;" d="M68 731q0 150 56 282t154.5 230t230.5 155.5t282 57.5t281.5 -57.5t230 -155.5t156 -230t57.5 -282t-57.5 -282t-156 -230t-230 -155.5t-281.5 -57.5t-282 57.5t-230.5 155.5t-154.5 230.5t-56 281.5zM164 731q0 -129 49 -242.5t135 -199.5t200 -135.5t243 -49.5 q131 0 244.5 49.5t197.5 135.5t133 199.5t49 242.5t-49 242.5t-133 198.5t-197.5 134.5t-244.5 49.5q-129 0 -243 -49.5t-200 -134.5t-135 -198.5t-49 -242.5zM207 731q0 119 46 224.5t126 184.5t185.5 124t226.5 45q119 0 225 -45t185 -124t125 -184.5t46 -224.5 q0 -121 -46 -227.5t-125 -185t-185 -125t-225 -46.5q-121 0 -226.5 46.5t-185.5 125t-126 185t-46 227.5zM330 664l112 -177q346 -80 699 0l110 177h-921zM451 1063l151 -189q4 -4 15.5 -0.5t23.5 9.5t20.5 12t8.5 8q-29 57 -47.5 118.5t-53.5 111.5q-6 8 -26.5 -0.5 t-42 -22.5t-38 -28.5t-11.5 -18.5zM463 457q20 -35 51 -74t73 -70.5t92.5 -53t111.5 -21.5q59 0 110 21.5t92 53t73 70.5t52 74q-164 -43 -326.5 -42t-328.5 42zM715 731h155l-77 187zM918 903q-4 -2 4 -8t19 -12t23.5 -9.5t18.5 0.5l147 189q4 4 -11 18.5t-36.5 28.5 t-42 22.5t-26.5 0.5q-39 -49 -55.5 -110.5t-40.5 -119.5zM1290 102v23h84v-23h-31v-77h-22v77h-31zM1384 25v100h31l19 -78l18 78h29v-100h-19v77l-20 -77h-19l-20 77v-77h-19z" />
<glyph unicode="&#xb9;" d="M68 731q0 150 56 282t154.5 230t230.5 155.5t282 57.5t281.5 -57.5t230 -155.5t156 -230t57.5 -282t-57.5 -282t-156 -230t-230 -155.5t-281.5 -57.5t-282 57.5t-230.5 155.5t-154.5 230.5t-56 281.5zM164 731q0 -129 49 -242.5t135 -199.5t200 -135.5t243 -49.5 q131 0 244.5 49.5t197.5 135.5t133 199.5t49 242.5t-49 242.5t-133 198.5t-197.5 134.5t-244.5 49.5q-129 0 -243 -49.5t-200 -134.5t-135 -198.5t-49 -242.5zM207 731q0 119 46 224.5t126 184.5t185.5 124t226.5 45q119 0 225 -45t185 -124t125 -184.5t46 -224.5 q0 -121 -46 -227.5t-125 -185t-185 -125t-225 -46.5q-121 0 -226.5 46.5t-185.5 125t-126 185t-46 227.5zM330 664l112 -177q346 -80 699 0l110 177h-921zM451 1063l151 -189q4 -4 15.5 -0.5t23.5 9.5t20.5 12t8.5 8q-29 57 -47.5 118.5t-53.5 111.5q-6 8 -26.5 -0.5 t-42 -22.5t-38 -28.5t-11.5 -18.5zM463 457q20 -35 51 -74t73 -70.5t92.5 -53t111.5 -21.5q59 0 110 21.5t92 53t73 70.5t52 74q-164 -43 -326.5 -42t-328.5 42zM715 731h155l-77 187zM918 903q-4 -2 4 -8t19 -12t23.5 -9.5t18.5 0.5l147 189q4 4 -11 18.5t-36.5 28.5 t-42 22.5t-26.5 0.5q-39 -49 -55.5 -110.5t-40.5 -119.5zM1290 102v23h84v-23h-31v-77h-22v77h-31zM1384 25v100h31l19 -78l18 78h29v-100h-19v77l-20 -77h-19l-20 77v-77h-19z" />
<glyph unicode="&#xba;" d="M68 731q0 150 56 282t154.5 230t230.5 155.5t282 57.5t281.5 -57.5t230 -155.5t156 -230t57.5 -282t-57.5 -282t-156 -230t-230 -155.5t-281.5 -57.5t-282 57.5t-230.5 155.5t-154.5 230.5t-56 281.5zM164 731q0 -129 49 -242.5t135 -199.5t200 -135.5t243 -49.5 q131 0 244.5 49.5t197.5 135.5t133 199.5t49 242.5t-49 242.5t-133 198.5t-197.5 134.5t-244.5 49.5q-129 0 -243 -49.5t-200 -134.5t-135 -198.5t-49 -242.5zM207 731q0 119 46 224.5t126 184.5t185.5 124t226.5 45q119 0 225 -45t185 -124t125 -184.5t46 -224.5 q0 -121 -46 -227.5t-125 -185t-185 -125t-225 -46.5q-121 0 -226.5 46.5t-185.5 125t-126 185t-46 227.5zM330 664l112 -177q346 -80 699 0l110 177h-921zM451 1063l151 -189q4 -4 15.5 -0.5t23.5 9.5t20.5 12t8.5 8q-29 57 -47.5 118.5t-53.5 111.5q-6 8 -26.5 -0.5 t-42 -22.5t-38 -28.5t-11.5 -18.5zM463 457q20 -35 51 -74t73 -70.5t92.5 -53t111.5 -21.5q59 0 110 21.5t92 53t73 70.5t52 74q-164 -43 -326.5 -42t-328.5 42zM715 731h155l-77 187zM918 903q-4 -2 4 -8t19 -12t23.5 -9.5t18.5 0.5l147 189q4 4 -11 18.5t-36.5 28.5 t-42 22.5t-26.5 0.5q-39 -49 -55.5 -110.5t-40.5 -119.5zM1290 102v23h84v-23h-31v-77h-22v77h-31zM1384 25v100h31l19 -78l18 78h29v-100h-19v77l-20 -77h-19l-20 77v-77h-19z" />
<glyph unicode="&#xbb;" d="M68 731q0 150 56 282t154.5 230t230.5 155.5t282 57.5t281.5 -57.5t230 -155.5t156 -230t57.5 -282t-57.5 -282t-156 -230t-230 -155.5t-281.5 -57.5t-282 57.5t-230.5 155.5t-154.5 230.5t-56 281.5zM164 731q0 -129 49 -242.5t135 -199.5t200 -135.5t243 -49.5 q131 0 244.5 49.5t197.5 135.5t133 199.5t49 242.5t-49 242.5t-133 198.5t-197.5 134.5t-244.5 49.5q-129 0 -243 -49.5t-200 -134.5t-135 -198.5t-49 -242.5zM207 731q0 119 46 224.5t126 184.5t185.5 124t226.5 45q119 0 225 -45t185 -124t125 -184.5t46 -224.5 q0 -121 -46 -227.5t-125 -185t-185 -125t-225 -46.5q-121 0 -226.5 46.5t-185.5 125t-126 185t-46 227.5zM330 664l112 -177q346 -80 699 0l110 177h-921zM451 1063l151 -189q4 -4 15.5 -0.5t23.5 9.5t20.5 12t8.5 8q-29 57 -47.5 118.5t-53.5 111.5q-6 8 -26.5 -0.5 t-42 -22.5t-38 -28.5t-11.5 -18.5zM463 457q20 -35 51 -74t73 -70.5t92.5 -53t111.5 -21.5q59 0 110 21.5t92 53t73 70.5t52 74q-164 -43 -326.5 -42t-328.5 42zM715 731h155l-77 187zM918 903q-4 -2 4 -8t19 -12t23.5 -9.5t18.5 0.5l147 189q4 4 -11 18.5t-36.5 28.5 t-42 22.5t-26.5 0.5q-39 -49 -55.5 -110.5t-40.5 -119.5zM1290 102v23h84v-23h-31v-77h-22v77h-31zM1384 25v100h31l19 -78l18 78h29v-100h-19v77l-20 -77h-19l-20 77v-77h-19z" />
<glyph unicode="&#xbc;" d="M68 731q0 150 56 282t154.5 230t230.5 155.5t282 57.5t281.5 -57.5t230 -155.5t156 -230t57.5 -282t-57.5 -282t-156 -230t-230 -155.5t-281.5 -57.5t-282 57.5t-230.5 155.5t-154.5 230.5t-56 281.5zM164 731q0 -129 49 -242.5t135 -199.5t200 -135.5t243 -49.5 q131 0 244.5 49.5t197.5 135.5t133 199.5t49 242.5t-49 242.5t-133 198.5t-197.5 134.5t-244.5 49.5q-129 0 -243 -49.5t-200 -134.5t-135 -198.5t-49 -242.5zM207 731q0 119 46 224.5t126 184.5t185.5 124t226.5 45q119 0 225 -45t185 -124t125 -184.5t46 -224.5 q0 -121 -46 -227.5t-125 -185t-185 -125t-225 -46.5q-121 0 -226.5 46.5t-185.5 125t-126 185t-46 227.5zM330 664l112 -177q346 -80 699 0l110 177h-921zM451 1063l151 -189q4 -4 15.5 -0.5t23.5 9.5t20.5 12t8.5 8q-29 57 -47.5 118.5t-53.5 111.5q-6 8 -26.5 -0.5 t-42 -22.5t-38 -28.5t-11.5 -18.5zM463 457q20 -35 51 -74t73 -70.5t92.5 -53t111.5 -21.5q59 0 110 21.5t92 53t73 70.5t52 74q-164 -43 -326.5 -42t-328.5 42zM715 731h155l-77 187zM918 903q-4 -2 4 -8t19 -12t23.5 -9.5t18.5 0.5l147 189q4 4 -11 18.5t-36.5 28.5 t-42 22.5t-26.5 0.5q-39 -49 -55.5 -110.5t-40.5 -119.5zM1290 102v23h84v-23h-31v-77h-22v77h-31zM1384 25v100h31l19 -78l18 78h29v-100h-19v77l-20 -77h-19l-20 77v-77h-19z" />
<glyph unicode="&#xbd;" d="M68 731q0 150 56 282t154.5 230t230.5 155.5t282 57.5t281.5 -57.5t230 -155.5t156 -230t57.5 -282t-57.5 -282t-156 -230t-230 -155.5t-281.5 -57.5t-282 57.5t-230.5 155.5t-154.5 230.5t-56 281.5zM164 731q0 -129 49 -242.5t135 -199.5t200 -135.5t243 -49.5 q131 0 244.5 49.5t197.5 135.5t133 199.5t49 242.5t-49 242.5t-133 198.5t-197.5 134.5t-244.5 49.5q-129 0 -243 -49.5t-200 -134.5t-135 -198.5t-49 -242.5zM207 731q0 119 46 224.5t126 184.5t185.5 124t226.5 45q119 0 225 -45t185 -124t125 -184.5t46 -224.5 q0 -121 -46 -227.5t-125 -185t-185 -125t-225 -46.5q-121 0 -226.5 46.5t-185.5 125t-126 185t-46 227.5zM330 664l112 -177q346 -80 699 0l110 177h-921zM451 1063l151 -189q4 -4 15.5 -0.5t23.5 9.5t20.5 12t8.5 8q-29 57 -47.5 118.5t-53.5 111.5q-6 8 -26.5 -0.5 t-42 -22.5t-38 -28.5t-11.5 -18.5zM463 457q20 -35 51 -74t73 -70.5t92.5 -53t111.5 -21.5q59 0 110 21.5t92 53t73 70.5t52 74q-164 -43 -326.5 -42t-328.5 42zM715 731h155l-77 187zM918 903q-4 -2 4 -8t19 -12t23.5 -9.5t18.5 0.5l147 189q4 4 -11 18.5t-36.5 28.5 t-42 22.5t-26.5 0.5q-39 -49 -55.5 -110.5t-40.5 -119.5zM1290 102v23h84v-23h-31v-77h-22v77h-31zM1384 25v100h31l19 -78l18 78h29v-100h-19v77l-20 -77h-19l-20 77v-77h-19z" />
<glyph unicode="&#xbe;" d="M68 731q0 150 56 282t154.5 230t230.5 155.5t282 57.5t281.5 -57.5t230 -155.5t156 -230t57.5 -282t-57.5 -282t-156 -230t-230 -155.5t-281.5 -57.5t-282 57.5t-230.5 155.5t-154.5 230.5t-56 281.5zM164 731q0 -129 49 -242.5t135 -199.5t200 -135.5t243 -49.5 q131 0 244.5 49.5t197.5 135.5t133 199.5t49 242.5t-49 242.5t-133 198.5t-197.5 134.5t-244.5 49.5q-129 0 -243 -49.5t-200 -134.5t-135 -198.5t-49 -242.5zM207 731q0 119 46 224.5t126 184.5t185.5 124t226.5 45q119 0 225 -45t185 -124t125 -184.5t46 -224.5 q0 -121 -46 -227.5t-125 -185t-185 -125t-225 -46.5q-121 0 -226.5 46.5t-185.5 125t-126 185t-46 227.5zM330 664l112 -177q346 -80 699 0l110 177h-921zM451 1063l151 -189q4 -4 15.5 -0.5t23.5 9.5t20.5 12t8.5 8q-29 57 -47.5 118.5t-53.5 111.5q-6 8 -26.5 -0.5 t-42 -22.5t-38 -28.5t-11.5 -18.5zM463 457q20 -35 51 -74t73 -70.5t92.5 -53t111.5 -21.5q59 0 110 21.5t92 53t73 70.5t52 74q-164 -43 -326.5 -42t-328.5 42zM715 731h155l-77 187zM918 903q-4 -2 4 -8t19 -12t23.5 -9.5t18.5 0.5l147 189q4 4 -11 18.5t-36.5 28.5 t-42 22.5t-26.5 0.5q-39 -49 -55.5 -110.5t-40.5 -119.5zM1290 102v23h84v-23h-31v-77h-22v77h-31zM1384 25v100h31l19 -78l18 78h29v-100h-19v77l-20 -77h-19l-20 77v-77h-19z" />
<glyph unicode="&#xbf;" d="M68 731q0 150 56 282t154.5 230t230.5 155.5t282 57.5t281.5 -57.5t230 -155.5t156 -230t57.5 -282t-57.5 -282t-156 -230t-230 -155.5t-281.5 -57.5t-282 57.5t-230.5 155.5t-154.5 230.5t-56 281.5zM164 731q0 -129 49 -242.5t135 -199.5t200 -135.5t243 -49.5 q131 0 244.5 49.5t197.5 135.5t133 199.5t49 242.5t-49 242.5t-133 198.5t-197.5 134.5t-244.5 49.5q-129 0 -243 -49.5t-200 -134.5t-135 -198.5t-49 -242.5zM207 731q0 119 46 224.5t126 184.5t185.5 124t226.5 45q119 0 225 -45t185 -124t125 -184.5t46 -224.5 q0 -121 -46 -227.5t-125 -185t-185 -125t-225 -46.5q-121 0 -226.5 46.5t-185.5 125t-126 185t-46 227.5zM330 664l112 -177q346 -80 699 0l110 177h-921zM451 1063l151 -189q4 -4 15.5 -0.5t23.5 9.5t20.5 12t8.5 8q-29 57 -47.5 118.5t-53.5 111.5q-6 8 -26.5 -0.5 t-42 -22.5t-38 -28.5t-11.5 -18.5zM463 457q20 -35 51 -74t73 -70.5t92.5 -53t111.5 -21.5q59 0 110 21.5t92 53t73 70.5t52 74q-164 -43 -326.5 -42t-328.5 42zM715 731h155l-77 187zM918 903q-4 -2 4 -8t19 -12t23.5 -9.5t18.5 0.5l147 189q4 4 -11 18.5t-36.5 28.5 t-42 22.5t-26.5 0.5q-39 -49 -55.5 -110.5t-40.5 -119.5zM1290 102v23h84v-23h-31v-77h-22v77h-31zM1384 25v100h31l19 -78l18 78h29v-100h-19v77l-20 -77h-19l-20 77v-77h-19z" />
<glyph unicode="&#xc0;" d="M68 731q0 150 56 282t154.5 230t230.5 155.5t282 57.5t281.5 -57.5t230 -155.5t156 -230t57.5 -282t-57.5 -282t-156 -230t-230 -155.5t-281.5 -57.5t-282 57.5t-230.5 155.5t-154.5 230.5t-56 281.5zM164 731q0 -129 49 -242.5t135 -199.5t200 -135.5t243 -49.5 q131 0 244.5 49.5t197.5 135.5t133 199.5t49 242.5t-49 242.5t-133 198.5t-197.5 134.5t-244.5 49.5q-129 0 -243 -49.5t-200 -134.5t-135 -198.5t-49 -242.5zM207 731q0 119 46 224.5t126 184.5t185.5 124t226.5 45q119 0 225 -45t185 -124t125 -184.5t46 -224.5 q0 -121 -46 -227.5t-125 -185t-185 -125t-225 -46.5q-121 0 -226.5 46.5t-185.5 125t-126 185t-46 227.5zM330 664l112 -177q346 -80 699 0l110 177h-921zM451 1063l151 -189q4 -4 15.5 -0.5t23.5 9.5t20.5 12t8.5 8q-29 57 -47.5 118.5t-53.5 111.5q-6 8 -26.5 -0.5 t-42 -22.5t-38 -28.5t-11.5 -18.5zM463 457q20 -35 51 -74t73 -70.5t92.5 -53t111.5 -21.5q59 0 110 21.5t92 53t73 70.5t52 74q-164 -43 -326.5 -42t-328.5 42zM715 731h155l-77 187zM918 903q-4 -2 4 -8t19 -12t23.5 -9.5t18.5 0.5l147 189q4 4 -11 18.5t-36.5 28.5 t-42 22.5t-26.5 0.5q-39 -49 -55.5 -110.5t-40.5 -119.5zM1290 102v23h84v-23h-31v-77h-22v77h-31zM1384 25v100h31l19 -78l18 78h29v-100h-19v77l-20 -77h-19l-20 77v-77h-19z" />
<glyph unicode="&#xc1;" d="M68 731q0 150 56 282t154.5 230t230.5 155.5t282 57.5t281.5 -57.5t230 -155.5t156 -230t57.5 -282t-57.5 -282t-156 -230t-230 -155.5t-281.5 -57.5t-282 57.5t-230.5 155.5t-154.5 230.5t-56 281.5zM164 731q0 -129 49 -242.5t135 -199.5t200 -135.5t243 -49.5 q131 0 244.5 49.5t197.5 135.5t133 199.5t49 242.5t-49 242.5t-133 198.5t-197.5 134.5t-244.5 49.5q-129 0 -243 -49.5t-200 -134.5t-135 -198.5t-49 -242.5zM207 731q0 119 46 224.5t126 184.5t185.5 124t226.5 45q119 0 225 -45t185 -124t125 -184.5t46 -224.5 q0 -121 -46 -227.5t-125 -185t-185 -125t-225 -46.5q-121 0 -226.5 46.5t-185.5 125t-126 185t-46 227.5zM330 664l112 -177q346 -80 699 0l110 177h-921zM451 1063l151 -189q4 -4 15.5 -0.5t23.5 9.5t20.5 12t8.5 8q-29 57 -47.5 118.5t-53.5 111.5q-6 8 -26.5 -0.5 t-42 -22.5t-38 -28.5t-11.5 -18.5zM463 457q20 -35 51 -74t73 -70.5t92.5 -53t111.5 -21.5q59 0 110 21.5t92 53t73 70.5t52 74q-164 -43 -326.5 -42t-328.5 42zM715 731h155l-77 187zM918 903q-4 -2 4 -8t19 -12t23.5 -9.5t18.5 0.5l147 189q4 4 -11 18.5t-36.5 28.5 t-42 22.5t-26.5 0.5q-39 -49 -55.5 -110.5t-40.5 -119.5zM1290 102v23h84v-23h-31v-77h-22v77h-31zM1384 25v100h31l19 -78l18 78h29v-100h-19v77l-20 -77h-19l-20 77v-77h-19z" />
<glyph unicode="&#xc2;" d="M68 731q0 150 56 282t154.5 230t230.5 155.5t282 57.5t281.5 -57.5t230 -155.5t156 -230t57.5 -282t-57.5 -282t-156 -230t-230 -155.5t-281.5 -57.5t-282 57.5t-230.5 155.5t-154.5 230.5t-56 281.5zM164 731q0 -129 49 -242.5t135 -199.5t200 -135.5t243 -49.5 q131 0 244.5 49.5t197.5 135.5t133 199.5t49 242.5t-49 242.5t-133 198.5t-197.5 134.5t-244.5 49.5q-129 0 -243 -49.5t-200 -134.5t-135 -198.5t-49 -242.5zM207 731q0 119 46 224.5t126 184.5t185.5 124t226.5 45q119 0 225 -45t185 -124t125 -184.5t46 -224.5 q0 -121 -46 -227.5t-125 -185t-185 -125t-225 -46.5q-121 0 -226.5 46.5t-185.5 125t-126 185t-46 227.5zM330 664l112 -177q346 -80 699 0l110 177h-921zM451 1063l151 -189q4 -4 15.5 -0.5t23.5 9.5t20.5 12t8.5 8q-29 57 -47.5 118.5t-53.5 111.5q-6 8 -26.5 -0.5 t-42 -22.5t-38 -28.5t-11.5 -18.5zM463 457q20 -35 51 -74t73 -70.5t92.5 -53t111.5 -21.5q59 0 110 21.5t92 53t73 70.5t52 74q-164 -43 -326.5 -42t-328.5 42zM715 731h155l-77 187zM918 903q-4 -2 4 -8t19 -12t23.5 -9.5t18.5 0.5l147 189q4 4 -11 18.5t-36.5 28.5 t-42 22.5t-26.5 0.5q-39 -49 -55.5 -110.5t-40.5 -119.5zM1290 102v23h84v-23h-31v-77h-22v77h-31zM1384 25v100h31l19 -78l18 78h29v-100h-19v77l-20 -77h-19l-20 77v-77h-19z" />
<glyph unicode="&#xc3;" d="M68 731q0 150 56 282t154.5 230t230.5 155.5t282 57.5t281.5 -57.5t230 -155.5t156 -230t57.5 -282t-57.5 -282t-156 -230t-230 -155.5t-281.5 -57.5t-282 57.5t-230.5 155.5t-154.5 230.5t-56 281.5zM164 731q0 -129 49 -242.5t135 -199.5t200 -135.5t243 -49.5 q131 0 244.5 49.5t197.5 135.5t133 199.5t49 242.5t-49 242.5t-133 198.5t-197.5 134.5t-244.5 49.5q-129 0 -243 -49.5t-200 -134.5t-135 -198.5t-49 -242.5zM207 731q0 119 46 224.5t126 184.5t185.5 124t226.5 45q119 0 225 -45t185 -124t125 -184.5t46 -224.5 q0 -121 -46 -227.5t-125 -185t-185 -125t-225 -46.5q-121 0 -226.5 46.5t-185.5 125t-126 185t-46 227.5zM330 664l112 -177q346 -80 699 0l110 177h-921zM451 1063l151 -189q4 -4 15.5 -0.5t23.5 9.5t20.5 12t8.5 8q-29 57 -47.5 118.5t-53.5 111.5q-6 8 -26.5 -0.5 t-42 -22.5t-38 -28.5t-11.5 -18.5zM463 457q20 -35 51 -74t73 -70.5t92.5 -53t111.5 -21.5q59 0 110 21.5t92 53t73 70.5t52 74q-164 -43 -326.5 -42t-328.5 42zM715 731h155l-77 187zM918 903q-4 -2 4 -8t19 -12t23.5 -9.5t18.5 0.5l147 189q4 4 -11 18.5t-36.5 28.5 t-42 22.5t-26.5 0.5q-39 -49 -55.5 -110.5t-40.5 -119.5zM1290 102v23h84v-23h-31v-77h-22v77h-31zM1384 25v100h31l19 -78l18 78h29v-100h-19v77l-20 -77h-19l-20 77v-77h-19z" />
<glyph unicode="&#xc4;" d="M68 731q0 150 56 282t154.5 230t230.5 155.5t282 57.5t281.5 -57.5t230 -155.5t156 -230t57.5 -282t-57.5 -282t-156 -230t-230 -155.5t-281.5 -57.5t-282 57.5t-230.5 155.5t-154.5 230.5t-56 281.5zM164 731q0 -129 49 -242.5t135 -199.5t200 -135.5t243 -49.5 q131 0 244.5 49.5t197.5 135.5t133 199.5t49 242.5t-49 242.5t-133 198.5t-197.5 134.5t-244.5 49.5q-129 0 -243 -49.5t-200 -134.5t-135 -198.5t-49 -242.5zM207 731q0 119 46 224.5t126 184.5t185.5 124t226.5 45q119 0 225 -45t185 -124t125 -184.5t46 -224.5 q0 -121 -46 -227.5t-125 -185t-185 -125t-225 -46.5q-121 0 -226.5 46.5t-185.5 125t-126 185t-46 227.5zM330 664l112 -177q346 -80 699 0l110 177h-921zM451 1063l151 -189q4 -4 15.5 -0.5t23.5 9.5t20.5 12t8.5 8q-29 57 -47.5 118.5t-53.5 111.5q-6 8 -26.5 -0.5 t-42 -22.5t-38 -28.5t-11.5 -18.5zM463 457q20 -35 51 -74t73 -70.5t92.5 -53t111.5 -21.5q59 0 110 21.5t92 53t73 70.5t52 74q-164 -43 -326.5 -42t-328.5 42zM715 731h155l-77 187zM918 903q-4 -2 4 -8t19 -12t23.5 -9.5t18.5 0.5l147 189q4 4 -11 18.5t-36.5 28.5 t-42 22.5t-26.5 0.5q-39 -49 -55.5 -110.5t-40.5 -119.5zM1290 102v23h84v-23h-31v-77h-22v77h-31zM1384 25v100h31l19 -78l18 78h29v-100h-19v77l-20 -77h-19l-20 77v-77h-19z" />
<glyph unicode="&#xc5;" d="M68 731q0 150 56 282t154.5 230t230.5 155.5t282 57.5t281.5 -57.5t230 -155.5t156 -230t57.5 -282t-57.5 -282t-156 -230t-230 -155.5t-281.5 -57.5t-282 57.5t-230.5 155.5t-154.5 230.5t-56 281.5zM164 731q0 -129 49 -242.5t135 -199.5t200 -135.5t243 -49.5 q131 0 244.5 49.5t197.5 135.5t133 199.5t49 242.5t-49 242.5t-133 198.5t-197.5 134.5t-244.5 49.5q-129 0 -243 -49.5t-200 -134.5t-135 -198.5t-49 -242.5zM207 731q0 119 46 224.5t126 184.5t185.5 124t226.5 45q119 0 225 -45t185 -124t125 -184.5t46 -224.5 q0 -121 -46 -227.5t-125 -185t-185 -125t-225 -46.5q-121 0 -226.5 46.5t-185.5 125t-126 185t-46 227.5zM330 664l112 -177q346 -80 699 0l110 177h-921zM451 1063l151 -189q4 -4 15.5 -0.5t23.5 9.5t20.5 12t8.5 8q-29 57 -47.5 118.5t-53.5 111.5q-6 8 -26.5 -0.5 t-42 -22.5t-38 -28.5t-11.5 -18.5zM463 457q20 -35 51 -74t73 -70.5t92.5 -53t111.5 -21.5q59 0 110 21.5t92 53t73 70.5t52 74q-164 -43 -326.5 -42t-328.5 42zM715 731h155l-77 187zM918 903q-4 -2 4 -8t19 -12t23.5 -9.5t18.5 0.5l147 189q4 4 -11 18.5t-36.5 28.5 t-42 22.5t-26.5 0.5q-39 -49 -55.5 -110.5t-40.5 -119.5zM1290 102v23h84v-23h-31v-77h-22v77h-31zM1384 25v100h31l19 -78l18 78h29v-100h-19v77l-20 -77h-19l-20 77v-77h-19z" />
<glyph unicode="&#xc6;" d="M68 731q0 150 56 282t154.5 230t230.5 155.5t282 57.5t281.5 -57.5t230 -155.5t156 -230t57.5 -282t-57.5 -282t-156 -230t-230 -155.5t-281.5 -57.5t-282 57.5t-230.5 155.5t-154.5 230.5t-56 281.5zM164 731q0 -129 49 -242.5t135 -199.5t200 -135.5t243 -49.5 q131 0 244.5 49.5t197.5 135.5t133 199.5t49 242.5t-49 242.5t-133 198.5t-197.5 134.5t-244.5 49.5q-129 0 -243 -49.5t-200 -134.5t-135 -198.5t-49 -242.5zM207 731q0 119 46 224.5t126 184.5t185.5 124t226.5 45q119 0 225 -45t185 -124t125 -184.5t46 -224.5 q0 -121 -46 -227.5t-125 -185t-185 -125t-225 -46.5q-121 0 -226.5 46.5t-185.5 125t-126 185t-46 227.5zM330 664l112 -177q346 -80 699 0l110 177h-921zM451 1063l151 -189q4 -4 15.5 -0.5t23.5 9.5t20.5 12t8.5 8q-29 57 -47.5 118.5t-53.5 111.5q-6 8 -26.5 -0.5 t-42 -22.5t-38 -28.5t-11.5 -18.5zM463 457q20 -35 51 -74t73 -70.5t92.5 -53t111.5 -21.5q59 0 110 21.5t92 53t73 70.5t52 74q-164 -43 -326.5 -42t-328.5 42zM715 731h155l-77 187zM918 903q-4 -2 4 -8t19 -12t23.5 -9.5t18.5 0.5l147 189q4 4 -11 18.5t-36.5 28.5 t-42 22.5t-26.5 0.5q-39 -49 -55.5 -110.5t-40.5 -119.5zM1290 102v23h84v-23h-31v-77h-22v77h-31zM1384 25v100h31l19 -78l18 78h29v-100h-19v77l-20 -77h-19l-20 77v-77h-19z" />
<glyph unicode="&#xc7;" d="M68 731q0 150 56 282t154.5 230t230.5 155.5t282 57.5t281.5 -57.5t230 -155.5t156 -230t57.5 -282t-57.5 -282t-156 -230t-230 -155.5t-281.5 -57.5t-282 57.5t-230.5 155.5t-154.5 230.5t-56 281.5zM164 731q0 -129 49 -242.5t135 -199.5t200 -135.5t243 -49.5 q131 0 244.5 49.5t197.5 135.5t133 199.5t49 242.5t-49 242.5t-133 198.5t-197.5 134.5t-244.5 49.5q-129 0 -243 -49.5t-200 -134.5t-135 -198.5t-49 -242.5zM207 731q0 119 46 224.5t126 184.5t185.5 124t226.5 45q119 0 225 -45t185 -124t125 -184.5t46 -224.5 q0 -121 -46 -227.5t-125 -185t-185 -125t-225 -46.5q-121 0 -226.5 46.5t-185.5 125t-126 185t-46 227.5zM330 664l112 -177q346 -80 699 0l110 177h-921zM451 1063l151 -189q4 -4 15.5 -0.5t23.5 9.5t20.5 12t8.5 8q-29 57 -47.5 118.5t-53.5 111.5q-6 8 -26.5 -0.5 t-42 -22.5t-38 -28.5t-11.5 -18.5zM463 457q20 -35 51 -74t73 -70.5t92.5 -53t111.5 -21.5q59 0 110 21.5t92 53t73 70.5t52 74q-164 -43 -326.5 -42t-328.5 42zM715 731h155l-77 187zM918 903q-4 -2 4 -8t19 -12t23.5 -9.5t18.5 0.5l147 189q4 4 -11 18.5t-36.5 28.5 t-42 22.5t-26.5 0.5q-39 -49 -55.5 -110.5t-40.5 -119.5zM1290 102v23h84v-23h-31v-77h-22v77h-31zM1384 25v100h31l19 -78l18 78h29v-100h-19v77l-20 -77h-19l-20 77v-77h-19z" />
<glyph unicode="&#xc8;" d="M68 731q0 150 56 282t154.5 230t230.5 155.5t282 57.5t281.5 -57.5t230 -155.5t156 -230t57.5 -282t-57.5 -282t-156 -230t-230 -155.5t-281.5 -57.5t-282 57.5t-230.5 155.5t-154.5 230.5t-56 281.5zM164 731q0 -129 49 -242.5t135 -199.5t200 -135.5t243 -49.5 q131 0 244.5 49.5t197.5 135.5t133 199.5t49 242.5t-49 242.5t-133 198.5t-197.5 134.5t-244.5 49.5q-129 0 -243 -49.5t-200 -134.5t-135 -198.5t-49 -242.5zM207 731q0 119 46 224.5t126 184.5t185.5 124t226.5 45q119 0 225 -45t185 -124t125 -184.5t46 -224.5 q0 -121 -46 -227.5t-125 -185t-185 -125t-225 -46.5q-121 0 -226.5 46.5t-185.5 125t-126 185t-46 227.5zM330 664l112 -177q346 -80 699 0l110 177h-921zM451 1063l151 -189q4 -4 15.5 -0.5t23.5 9.5t20.5 12t8.5 8q-29 57 -47.5 118.5t-53.5 111.5q-6 8 -26.5 -0.5 t-42 -22.5t-38 -28.5t-11.5 -18.5zM463 457q20 -35 51 -74t73 -70.5t92.5 -53t111.5 -21.5q59 0 110 21.5t92 53t73 70.5t52 74q-164 -43 -326.5 -42t-328.5 42zM715 731h155l-77 187zM918 903q-4 -2 4 -8t19 -12t23.5 -9.5t18.5 0.5l147 189q4 4 -11 18.5t-36.5 28.5 t-42 22.5t-26.5 0.5q-39 -49 -55.5 -110.5t-40.5 -119.5zM1290 102v23h84v-23h-31v-77h-22v77h-31zM1384 25v100h31l19 -78l18 78h29v-100h-19v77l-20 -77h-19l-20 77v-77h-19z" />
<glyph unicode="&#xc9;" d="M68 731q0 150 56 282t154.5 230t230.5 155.5t282 57.5t281.5 -57.5t230 -155.5t156 -230t57.5 -282t-57.5 -282t-156 -230t-230 -155.5t-281.5 -57.5t-282 57.5t-230.5 155.5t-154.5 230.5t-56 281.5zM164 731q0 -129 49 -242.5t135 -199.5t200 -135.5t243 -49.5 q131 0 244.5 49.5t197.5 135.5t133 199.5t49 242.5t-49 242.5t-133 198.5t-197.5 134.5t-244.5 49.5q-129 0 -243 -49.5t-200 -134.5t-135 -198.5t-49 -242.5zM207 731q0 119 46 224.5t126 184.5t185.5 124t226.5 45q119 0 225 -45t185 -124t125 -184.5t46 -224.5 q0 -121 -46 -227.5t-125 -185t-185 -125t-225 -46.5q-121 0 -226.5 46.5t-185.5 125t-126 185t-46 227.5zM330 664l112 -177q346 -80 699 0l110 177h-921zM451 1063l151 -189q4 -4 15.5 -0.5t23.5 9.5t20.5 12t8.5 8q-29 57 -47.5 118.5t-53.5 111.5q-6 8 -26.5 -0.5 t-42 -22.5t-38 -28.5t-11.5 -18.5zM463 457q20 -35 51 -74t73 -70.5t92.5 -53t111.5 -21.5q59 0 110 21.5t92 53t73 70.5t52 74q-164 -43 -326.5 -42t-328.5 42zM715 731h155l-77 187zM918 903q-4 -2 4 -8t19 -12t23.5 -9.5t18.5 0.5l147 189q4 4 -11 18.5t-36.5 28.5 t-42 22.5t-26.5 0.5q-39 -49 -55.5 -110.5t-40.5 -119.5zM1290 102v23h84v-23h-31v-77h-22v77h-31zM1384 25v100h31l19 -78l18 78h29v-100h-19v77l-20 -77h-19l-20 77v-77h-19z" />
<glyph unicode="&#xca;" d="M68 731q0 150 56 282t154.5 230t230.5 155.5t282 57.5t281.5 -57.5t230 -155.5t156 -230t57.5 -282t-57.5 -282t-156 -230t-230 -155.5t-281.5 -57.5t-282 57.5t-230.5 155.5t-154.5 230.5t-56 281.5zM164 731q0 -129 49 -242.5t135 -199.5t200 -135.5t243 -49.5 q131 0 244.5 49.5t197.5 135.5t133 199.5t49 242.5t-49 242.5t-133 198.5t-197.5 134.5t-244.5 49.5q-129 0 -243 -49.5t-200 -134.5t-135 -198.5t-49 -242.5zM207 731q0 119 46 224.5t126 184.5t185.5 124t226.5 45q119 0 225 -45t185 -124t125 -184.5t46 -224.5 q0 -121 -46 -227.5t-125 -185t-185 -125t-225 -46.5q-121 0 -226.5 46.5t-185.5 125t-126 185t-46 227.5zM330 664l112 -177q346 -80 699 0l110 177h-921zM451 1063l151 -189q4 -4 15.5 -0.5t23.5 9.5t20.5 12t8.5 8q-29 57 -47.5 118.5t-53.5 111.5q-6 8 -26.5 -0.5 t-42 -22.5t-38 -28.5t-11.5 -18.5zM463 457q20 -35 51 -74t73 -70.5t92.5 -53t111.5 -21.5q59 0 110 21.5t92 53t73 70.5t52 74q-164 -43 -326.5 -42t-328.5 42zM715 731h155l-77 187zM918 903q-4 -2 4 -8t19 -12t23.5 -9.5t18.5 0.5l147 189q4 4 -11 18.5t-36.5 28.5 t-42 22.5t-26.5 0.5q-39 -49 -55.5 -110.5t-40.5 -119.5zM1290 102v23h84v-23h-31v-77h-22v77h-31zM1384 25v100h31l19 -78l18 78h29v-100h-19v77l-20 -77h-19l-20 77v-77h-19z" />
<glyph unicode="&#xcb;" d="M68 731q0 150 56 282t154.5 230t230.5 155.5t282 57.5t281.5 -57.5t230 -155.5t156 -230t57.5 -282t-57.5 -282t-156 -230t-230 -155.5t-281.5 -57.5t-282 57.5t-230.5 155.5t-154.5 230.5t-56 281.5zM164 731q0 -129 49 -242.5t135 -199.5t200 -135.5t243 -49.5 q131 0 244.5 49.5t197.5 135.5t133 199.5t49 242.5t-49 242.5t-133 198.5t-197.5 134.5t-244.5 49.5q-129 0 -243 -49.5t-200 -134.5t-135 -198.5t-49 -242.5zM207 731q0 119 46 224.5t126 184.5t185.5 124t226.5 45q119 0 225 -45t185 -124t125 -184.5t46 -224.5 q0 -121 -46 -227.5t-125 -185t-185 -125t-225 -46.5q-121 0 -226.5 46.5t-185.5 125t-126 185t-46 227.5zM330 664l112 -177q346 -80 699 0l110 177h-921zM451 1063l151 -189q4 -4 15.5 -0.5t23.5 9.5t20.5 12t8.5 8q-29 57 -47.5 118.5t-53.5 111.5q-6 8 -26.5 -0.5 t-42 -22.5t-38 -28.5t-11.5 -18.5zM463 457q20 -35 51 -74t73 -70.5t92.5 -53t111.5 -21.5q59 0 110 21.5t92 53t73 70.5t52 74q-164 -43 -326.5 -42t-328.5 42zM715 731h155l-77 187zM918 903q-4 -2 4 -8t19 -12t23.5 -9.5t18.5 0.5l147 189q4 4 -11 18.5t-36.5 28.5 t-42 22.5t-26.5 0.5q-39 -49 -55.5 -110.5t-40.5 -119.5zM1290 102v23h84v-23h-31v-77h-22v77h-31zM1384 25v100h31l19 -78l18 78h29v-100h-19v77l-20 -77h-19l-20 77v-77h-19z" />
<glyph unicode="&#xcc;" d="M68 731q0 150 56 282t154.5 230t230.5 155.5t282 57.5t281.5 -57.5t230 -155.5t156 -230t57.5 -282t-57.5 -282t-156 -230t-230 -155.5t-281.5 -57.5t-282 57.5t-230.5 155.5t-154.5 230.5t-56 281.5zM164 731q0 -129 49 -242.5t135 -199.5t200 -135.5t243 -49.5 q131 0 244.5 49.5t197.5 135.5t133 199.5t49 242.5t-49 242.5t-133 198.5t-197.5 134.5t-244.5 49.5q-129 0 -243 -49.5t-200 -134.5t-135 -198.5t-49 -242.5zM207 731q0 119 46 224.5t126 184.5t185.5 124t226.5 45q119 0 225 -45t185 -124t125 -184.5t46 -224.5 q0 -121 -46 -227.5t-125 -185t-185 -125t-225 -46.5q-121 0 -226.5 46.5t-185.5 125t-126 185t-46 227.5zM330 664l112 -177q346 -80 699 0l110 177h-921zM451 1063l151 -189q4 -4 15.5 -0.5t23.5 9.5t20.5 12t8.5 8q-29 57 -47.5 118.5t-53.5 111.5q-6 8 -26.5 -0.5 t-42 -22.5t-38 -28.5t-11.5 -18.5zM463 457q20 -35 51 -74t73 -70.5t92.5 -53t111.5 -21.5q59 0 110 21.5t92 53t73 70.5t52 74q-164 -43 -326.5 -42t-328.5 42zM715 731h155l-77 187zM918 903q-4 -2 4 -8t19 -12t23.5 -9.5t18.5 0.5l147 189q4 4 -11 18.5t-36.5 28.5 t-42 22.5t-26.5 0.5q-39 -49 -55.5 -110.5t-40.5 -119.5zM1290 102v23h84v-23h-31v-77h-22v77h-31zM1384 25v100h31l19 -78l18 78h29v-100h-19v77l-20 -77h-19l-20 77v-77h-19z" />
<glyph unicode="&#xcd;" d="M68 731q0 150 56 282t154.5 230t230.5 155.5t282 57.5t281.5 -57.5t230 -155.5t156 -230t57.5 -282t-57.5 -282t-156 -230t-230 -155.5t-281.5 -57.5t-282 57.5t-230.5 155.5t-154.5 230.5t-56 281.5zM164 731q0 -129 49 -242.5t135 -199.5t200 -135.5t243 -49.5 q131 0 244.5 49.5t197.5 135.5t133 199.5t49 242.5t-49 242.5t-133 198.5t-197.5 134.5t-244.5 49.5q-129 0 -243 -49.5t-200 -134.5t-135 -198.5t-49 -242.5zM207 731q0 119 46 224.5t126 184.5t185.5 124t226.5 45q119 0 225 -45t185 -124t125 -184.5t46 -224.5 q0 -121 -46 -227.5t-125 -185t-185 -125t-225 -46.5q-121 0 -226.5 46.5t-185.5 125t-126 185t-46 227.5zM330 664l112 -177q346 -80 699 0l110 177h-921zM451 1063l151 -189q4 -4 15.5 -0.5t23.5 9.5t20.5 12t8.5 8q-29 57 -47.5 118.5t-53.5 111.5q-6 8 -26.5 -0.5 t-42 -22.5t-38 -28.5t-11.5 -18.5zM463 457q20 -35 51 -74t73 -70.5t92.5 -53t111.5 -21.5q59 0 110 21.5t92 53t73 70.5t52 74q-164 -43 -326.5 -42t-328.5 42zM715 731h155l-77 187zM918 903q-4 -2 4 -8t19 -12t23.5 -9.5t18.5 0.5l147 189q4 4 -11 18.5t-36.5 28.5 t-42 22.5t-26.5 0.5q-39 -49 -55.5 -110.5t-40.5 -119.5zM1290 102v23h84v-23h-31v-77h-22v77h-31zM1384 25v100h31l19 -78l18 78h29v-100h-19v77l-20 -77h-19l-20 77v-77h-19z" />
<glyph unicode="&#xce;" d="M68 731q0 150 56 282t154.5 230t230.5 155.5t282 57.5t281.5 -57.5t230 -155.5t156 -230t57.5 -282t-57.5 -282t-156 -230t-230 -155.5t-281.5 -57.5t-282 57.5t-230.5 155.5t-154.5 230.5t-56 281.5zM164 731q0 -129 49 -242.5t135 -199.5t200 -135.5t243 -49.5 q131 0 244.5 49.5t197.5 135.5t133 199.5t49 242.5t-49 242.5t-133 198.5t-197.5 134.5t-244.5 49.5q-129 0 -243 -49.5t-200 -134.5t-135 -198.5t-49 -242.5zM207 731q0 119 46 224.5t126 184.5t185.5 124t226.5 45q119 0 225 -45t185 -124t125 -184.5t46 -224.5 q0 -121 -46 -227.5t-125 -185t-185 -125t-225 -46.5q-121 0 -226.5 46.5t-185.5 125t-126 185t-46 227.5zM330 664l112 -177q346 -80 699 0l110 177h-921zM451 1063l151 -189q4 -4 15.5 -0.5t23.5 9.5t20.5 12t8.5 8q-29 57 -47.5 118.5t-53.5 111.5q-6 8 -26.5 -0.5 t-42 -22.5t-38 -28.5t-11.5 -18.5zM463 457q20 -35 51 -74t73 -70.5t92.5 -53t111.5 -21.5q59 0 110 21.5t92 53t73 70.5t52 74q-164 -43 -326.5 -42t-328.5 42zM715 731h155l-77 187zM918 903q-4 -2 4 -8t19 -12t23.5 -9.5t18.5 0.5l147 189q4 4 -11 18.5t-36.5 28.5 t-42 22.5t-26.5 0.5q-39 -49 -55.5 -110.5t-40.5 -119.5zM1290 102v23h84v-23h-31v-77h-22v77h-31zM1384 25v100h31l19 -78l18 78h29v-100h-19v77l-20 -77h-19l-20 77v-77h-19z" />
<glyph unicode="&#xcf;" d="M68 731q0 150 56 282t154.5 230t230.5 155.5t282 57.5t281.5 -57.5t230 -155.5t156 -230t57.5 -282t-57.5 -282t-156 -230t-230 -155.5t-281.5 -57.5t-282 57.5t-230.5 155.5t-154.5 230.5t-56 281.5zM164 731q0 -129 49 -242.5t135 -199.5t200 -135.5t243 -49.5 q131 0 244.5 49.5t197.5 135.5t133 199.5t49 242.5t-49 242.5t-133 198.5t-197.5 134.5t-244.5 49.5q-129 0 -243 -49.5t-200 -134.5t-135 -198.5t-49 -242.5zM207 731q0 119 46 224.5t126 184.5t185.5 124t226.5 45q119 0 225 -45t185 -124t125 -184.5t46 -224.5 q0 -121 -46 -227.5t-125 -185t-185 -125t-225 -46.5q-121 0 -226.5 46.5t-185.5 125t-126 185t-46 227.5zM330 664l112 -177q346 -80 699 0l110 177h-921zM451 1063l151 -189q4 -4 15.5 -0.5t23.5 9.5t20.5 12t8.5 8q-29 57 -47.5 118.5t-53.5 111.5q-6 8 -26.5 -0.5 t-42 -22.5t-38 -28.5t-11.5 -18.5zM463 457q20 -35 51 -74t73 -70.5t92.5 -53t111.5 -21.5q59 0 110 21.5t92 53t73 70.5t52 74q-164 -43 -326.5 -42t-328.5 42zM715 731h155l-77 187zM918 903q-4 -2 4 -8t19 -12t23.5 -9.5t18.5 0.5l147 189q4 4 -11 18.5t-36.5 28.5 t-42 22.5t-26.5 0.5q-39 -49 -55.5 -110.5t-40.5 -119.5zM1290 102v23h84v-23h-31v-77h-22v77h-31zM1384 25v100h31l19 -78l18 78h29v-100h-19v77l-20 -77h-19l-20 77v-77h-19z" />
<glyph unicode="&#xd0;" d="M68 731q0 150 56 282t154.5 230t230.5 155.5t282 57.5t281.5 -57.5t230 -155.5t156 -230t57.5 -282t-57.5 -282t-156 -230t-230 -155.5t-281.5 -57.5t-282 57.5t-230.5 155.5t-154.5 230.5t-56 281.5zM164 731q0 -129 49 -242.5t135 -199.5t200 -135.5t243 -49.5 q131 0 244.5 49.5t197.5 135.5t133 199.5t49 242.5t-49 242.5t-133 198.5t-197.5 134.5t-244.5 49.5q-129 0 -243 -49.5t-200 -134.5t-135 -198.5t-49 -242.5zM207 731q0 119 46 224.5t126 184.5t185.5 124t226.5 45q119 0 225 -45t185 -124t125 -184.5t46 -224.5 q0 -121 -46 -227.5t-125 -185t-185 -125t-225 -46.5q-121 0 -226.5 46.5t-185.5 125t-126 185t-46 227.5zM330 664l112 -177q346 -80 699 0l110 177h-921zM451 1063l151 -189q4 -4 15.5 -0.5t23.5 9.5t20.5 12t8.5 8q-29 57 -47.5 118.5t-53.5 111.5q-6 8 -26.5 -0.5 t-42 -22.5t-38 -28.5t-11.5 -18.5zM463 457q20 -35 51 -74t73 -70.5t92.5 -53t111.5 -21.5q59 0 110 21.5t92 53t73 70.5t52 74q-164 -43 -326.5 -42t-328.5 42zM715 731h155l-77 187zM918 903q-4 -2 4 -8t19 -12t23.5 -9.5t18.5 0.5l147 189q4 4 -11 18.5t-36.5 28.5 t-42 22.5t-26.5 0.5q-39 -49 -55.5 -110.5t-40.5 -119.5zM1290 102v23h84v-23h-31v-77h-22v77h-31zM1384 25v100h31l19 -78l18 78h29v-100h-19v77l-20 -77h-19l-20 77v-77h-19z" />
<glyph unicode="&#xd1;" d="M68 731q0 150 56 282t154.5 230t230.5 155.5t282 57.5t281.5 -57.5t230 -155.5t156 -230t57.5 -282t-57.5 -282t-156 -230t-230 -155.5t-281.5 -57.5t-282 57.5t-230.5 155.5t-154.5 230.5t-56 281.5zM164 731q0 -129 49 -242.5t135 -199.5t200 -135.5t243 -49.5 q131 0 244.5 49.5t197.5 135.5t133 199.5t49 242.5t-49 242.5t-133 198.5t-197.5 134.5t-244.5 49.5q-129 0 -243 -49.5t-200 -134.5t-135 -198.5t-49 -242.5zM207 731q0 119 46 224.5t126 184.5t185.5 124t226.5 45q119 0 225 -45t185 -124t125 -184.5t46 -224.5 q0 -121 -46 -227.5t-125 -185t-185 -125t-225 -46.5q-121 0 -226.5 46.5t-185.5 125t-126 185t-46 227.5zM330 664l112 -177q346 -80 699 0l110 177h-921zM451 1063l151 -189q4 -4 15.5 -0.5t23.5 9.5t20.5 12t8.5 8q-29 57 -47.5 118.5t-53.5 111.5q-6 8 -26.5 -0.5 t-42 -22.5t-38 -28.5t-11.5 -18.5zM463 457q20 -35 51 -74t73 -70.5t92.5 -53t111.5 -21.5q59 0 110 21.5t92 53t73 70.5t52 74q-164 -43 -326.5 -42t-328.5 42zM715 731h155l-77 187zM918 903q-4 -2 4 -8t19 -12t23.5 -9.5t18.5 0.5l147 189q4 4 -11 18.5t-36.5 28.5 t-42 22.5t-26.5 0.5q-39 -49 -55.5 -110.5t-40.5 -119.5zM1290 102v23h84v-23h-31v-77h-22v77h-31zM1384 25v100h31l19 -78l18 78h29v-100h-19v77l-20 -77h-19l-20 77v-77h-19z" />
<glyph unicode="&#xd2;" d="M68 731q0 150 56 282t154.5 230t230.5 155.5t282 57.5t281.5 -57.5t230 -155.5t156 -230t57.5 -282t-57.5 -282t-156 -230t-230 -155.5t-281.5 -57.5t-282 57.5t-230.5 155.5t-154.5 230.5t-56 281.5zM164 731q0 -129 49 -242.5t135 -199.5t200 -135.5t243 -49.5 q131 0 244.5 49.5t197.5 135.5t133 199.5t49 242.5t-49 242.5t-133 198.5t-197.5 134.5t-244.5 49.5q-129 0 -243 -49.5t-200 -134.5t-135 -198.5t-49 -242.5zM207 731q0 119 46 224.5t126 184.5t185.5 124t226.5 45q119 0 225 -45t185 -124t125 -184.5t46 -224.5 q0 -121 -46 -227.5t-125 -185t-185 -125t-225 -46.5q-121 0 -226.5 46.5t-185.5 125t-126 185t-46 227.5zM330 664l112 -177q346 -80 699 0l110 177h-921zM451 1063l151 -189q4 -4 15.5 -0.5t23.5 9.5t20.5 12t8.5 8q-29 57 -47.5 118.5t-53.5 111.5q-6 8 -26.5 -0.5 t-42 -22.5t-38 -28.5t-11.5 -18.5zM463 457q20 -35 51 -74t73 -70.5t92.5 -53t111.5 -21.5q59 0 110 21.5t92 53t73 70.5t52 74q-164 -43 -326.5 -42t-328.5 42zM715 731h155l-77 187zM918 903q-4 -2 4 -8t19 -12t23.5 -9.5t18.5 0.5l147 189q4 4 -11 18.5t-36.5 28.5 t-42 22.5t-26.5 0.5q-39 -49 -55.5 -110.5t-40.5 -119.5zM1290 102v23h84v-23h-31v-77h-22v77h-31zM1384 25v100h31l19 -78l18 78h29v-100h-19v77l-20 -77h-19l-20 77v-77h-19z" />
<glyph unicode="&#xd3;" d="M68 731q0 150 56 282t154.5 230t230.5 155.5t282 57.5t281.5 -57.5t230 -155.5t156 -230t57.5 -282t-57.5 -282t-156 -230t-230 -155.5t-281.5 -57.5t-282 57.5t-230.5 155.5t-154.5 230.5t-56 281.5zM164 731q0 -129 49 -242.5t135 -199.5t200 -135.5t243 -49.5 q131 0 244.5 49.5t197.5 135.5t133 199.5t49 242.5t-49 242.5t-133 198.5t-197.5 134.5t-244.5 49.5q-129 0 -243 -49.5t-200 -134.5t-135 -198.5t-49 -242.5zM207 731q0 119 46 224.5t126 184.5t185.5 124t226.5 45q119 0 225 -45t185 -124t125 -184.5t46 -224.5 q0 -121 -46 -227.5t-125 -185t-185 -125t-225 -46.5q-121 0 -226.5 46.5t-185.5 125t-126 185t-46 227.5zM330 664l112 -177q346 -80 699 0l110 177h-921zM451 1063l151 -189q4 -4 15.5 -0.5t23.5 9.5t20.5 12t8.5 8q-29 57 -47.5 118.5t-53.5 111.5q-6 8 -26.5 -0.5 t-42 -22.5t-38 -28.5t-11.5 -18.5zM463 457q20 -35 51 -74t73 -70.5t92.5 -53t111.5 -21.5q59 0 110 21.5t92 53t73 70.5t52 74q-164 -43 -326.5 -42t-328.5 42zM715 731h155l-77 187zM918 903q-4 -2 4 -8t19 -12t23.5 -9.5t18.5 0.5l147 189q4 4 -11 18.5t-36.5 28.5 t-42 22.5t-26.5 0.5q-39 -49 -55.5 -110.5t-40.5 -119.5zM1290 102v23h84v-23h-31v-77h-22v77h-31zM1384 25v100h31l19 -78l18 78h29v-100h-19v77l-20 -77h-19l-20 77v-77h-19z" />
<glyph unicode="&#xd4;" d="M68 731q0 150 56 282t154.5 230t230.5 155.5t282 57.5t281.5 -57.5t230 -155.5t156 -230t57.5 -282t-57.5 -282t-156 -230t-230 -155.5t-281.5 -57.5t-282 57.5t-230.5 155.5t-154.5 230.5t-56 281.5zM164 731q0 -129 49 -242.5t135 -199.5t200 -135.5t243 -49.5 q131 0 244.5 49.5t197.5 135.5t133 199.5t49 242.5t-49 242.5t-133 198.5t-197.5 134.5t-244.5 49.5q-129 0 -243 -49.5t-200 -134.5t-135 -198.5t-49 -242.5zM207 731q0 119 46 224.5t126 184.5t185.5 124t226.5 45q119 0 225 -45t185 -124t125 -184.5t46 -224.5 q0 -121 -46 -227.5t-125 -185t-185 -125t-225 -46.5q-121 0 -226.5 46.5t-185.5 125t-126 185t-46 227.5zM330 664l112 -177q346 -80 699 0l110 177h-921zM451 1063l151 -189q4 -4 15.5 -0.5t23.5 9.5t20.5 12t8.5 8q-29 57 -47.5 118.5t-53.5 111.5q-6 8 -26.5 -0.5 t-42 -22.5t-38 -28.5t-11.5 -18.5zM463 457q20 -35 51 -74t73 -70.5t92.5 -53t111.5 -21.5q59 0 110 21.5t92 53t73 70.5t52 74q-164 -43 -326.5 -42t-328.5 42zM715 731h155l-77 187zM918 903q-4 -2 4 -8t19 -12t23.5 -9.5t18.5 0.5l147 189q4 4 -11 18.5t-36.5 28.5 t-42 22.5t-26.5 0.5q-39 -49 -55.5 -110.5t-40.5 -119.5zM1290 102v23h84v-23h-31v-77h-22v77h-31zM1384 25v100h31l19 -78l18 78h29v-100h-19v77l-20 -77h-19l-20 77v-77h-19z" />
<glyph unicode="&#xd5;" d="M68 731q0 150 56 282t154.5 230t230.5 155.5t282 57.5t281.5 -57.5t230 -155.5t156 -230t57.5 -282t-57.5 -282t-156 -230t-230 -155.5t-281.5 -57.5t-282 57.5t-230.5 155.5t-154.5 230.5t-56 281.5zM164 731q0 -129 49 -242.5t135 -199.5t200 -135.5t243 -49.5 q131 0 244.5 49.5t197.5 135.5t133 199.5t49 242.5t-49 242.5t-133 198.5t-197.5 134.5t-244.5 49.5q-129 0 -243 -49.5t-200 -134.5t-135 -198.5t-49 -242.5zM207 731q0 119 46 224.5t126 184.5t185.5 124t226.5 45q119 0 225 -45t185 -124t125 -184.5t46 -224.5 q0 -121 -46 -227.5t-125 -185t-185 -125t-225 -46.5q-121 0 -226.5 46.5t-185.5 125t-126 185t-46 227.5zM330 664l112 -177q346 -80 699 0l110 177h-921zM451 1063l151 -189q4 -4 15.5 -0.5t23.5 9.5t20.5 12t8.5 8q-29 57 -47.5 118.5t-53.5 111.5q-6 8 -26.5 -0.5 t-42 -22.5t-38 -28.5t-11.5 -18.5zM463 457q20 -35 51 -74t73 -70.5t92.5 -53t111.5 -21.5q59 0 110 21.5t92 53t73 70.5t52 74q-164 -43 -326.5 -42t-328.5 42zM715 731h155l-77 187zM918 903q-4 -2 4 -8t19 -12t23.5 -9.5t18.5 0.5l147 189q4 4 -11 18.5t-36.5 28.5 t-42 22.5t-26.5 0.5q-39 -49 -55.5 -110.5t-40.5 -119.5zM1290 102v23h84v-23h-31v-77h-22v77h-31zM1384 25v100h31l19 -78l18 78h29v-100h-19v77l-20 -77h-19l-20 77v-77h-19z" />
<glyph unicode="&#xd6;" d="M68 731q0 150 56 282t154.5 230t230.5 155.5t282 57.5t281.5 -57.5t230 -155.5t156 -230t57.5 -282t-57.5 -282t-156 -230t-230 -155.5t-281.5 -57.5t-282 57.5t-230.5 155.5t-154.5 230.5t-56 281.5zM164 731q0 -129 49 -242.5t135 -199.5t200 -135.5t243 -49.5 q131 0 244.5 49.5t197.5 135.5t133 199.5t49 242.5t-49 242.5t-133 198.5t-197.5 134.5t-244.5 49.5q-129 0 -243 -49.5t-200 -134.5t-135 -198.5t-49 -242.5zM207 731q0 119 46 224.5t126 184.5t185.5 124t226.5 45q119 0 225 -45t185 -124t125 -184.5t46 -224.5 q0 -121 -46 -227.5t-125 -185t-185 -125t-225 -46.5q-121 0 -226.5 46.5t-185.5 125t-126 185t-46 227.5zM330 664l112 -177q346 -80 699 0l110 177h-921zM451 1063l151 -189q4 -4 15.5 -0.5t23.5 9.5t20.5 12t8.5 8q-29 57 -47.5 118.5t-53.5 111.5q-6 8 -26.5 -0.5 t-42 -22.5t-38 -28.5t-11.5 -18.5zM463 457q20 -35 51 -74t73 -70.5t92.5 -53t111.5 -21.5q59 0 110 21.5t92 53t73 70.5t52 74q-164 -43 -326.5 -42t-328.5 42zM715 731h155l-77 187zM918 903q-4 -2 4 -8t19 -12t23.5 -9.5t18.5 0.5l147 189q4 4 -11 18.5t-36.5 28.5 t-42 22.5t-26.5 0.5q-39 -49 -55.5 -110.5t-40.5 -119.5zM1290 102v23h84v-23h-31v-77h-22v77h-31zM1384 25v100h31l19 -78l18 78h29v-100h-19v77l-20 -77h-19l-20 77v-77h-19z" />
<glyph unicode="&#xd7;" d="M68 731q0 150 56 282t154.5 230t230.5 155.5t282 57.5t281.5 -57.5t230 -155.5t156 -230t57.5 -282t-57.5 -282t-156 -230t-230 -155.5t-281.5 -57.5t-282 57.5t-230.5 155.5t-154.5 230.5t-56 281.5zM164 731q0 -129 49 -242.5t135 -199.5t200 -135.5t243 -49.5 q131 0 244.5 49.5t197.5 135.5t133 199.5t49 242.5t-49 242.5t-133 198.5t-197.5 134.5t-244.5 49.5q-129 0 -243 -49.5t-200 -134.5t-135 -198.5t-49 -242.5zM207 731q0 119 46 224.5t126 184.5t185.5 124t226.5 45q119 0 225 -45t185 -124t125 -184.5t46 -224.5 q0 -121 -46 -227.5t-125 -185t-185 -125t-225 -46.5q-121 0 -226.5 46.5t-185.5 125t-126 185t-46 227.5zM330 664l112 -177q346 -80 699 0l110 177h-921zM451 1063l151 -189q4 -4 15.5 -0.5t23.5 9.5t20.5 12t8.5 8q-29 57 -47.5 118.5t-53.5 111.5q-6 8 -26.5 -0.5 t-42 -22.5t-38 -28.5t-11.5 -18.5zM463 457q20 -35 51 -74t73 -70.5t92.5 -53t111.5 -21.5q59 0 110 21.5t92 53t73 70.5t52 74q-164 -43 -326.5 -42t-328.5 42zM715 731h155l-77 187zM918 903q-4 -2 4 -8t19 -12t23.5 -9.5t18.5 0.5l147 189q4 4 -11 18.5t-36.5 28.5 t-42 22.5t-26.5 0.5q-39 -49 -55.5 -110.5t-40.5 -119.5zM1290 102v23h84v-23h-31v-77h-22v77h-31zM1384 25v100h31l19 -78l18 78h29v-100h-19v77l-20 -77h-19l-20 77v-77h-19z" />
<glyph unicode="&#xd8;" d="M68 731q0 150 56 282t154.5 230t230.5 155.5t282 57.5t281.5 -57.5t230 -155.5t156 -230t57.5 -282t-57.5 -282t-156 -230t-230 -155.5t-281.5 -57.5t-282 57.5t-230.5 155.5t-154.5 230.5t-56 281.5zM164 731q0 -129 49 -242.5t135 -199.5t200 -135.5t243 -49.5 q131 0 244.5 49.5t197.5 135.5t133 199.5t49 242.5t-49 242.5t-133 198.5t-197.5 134.5t-244.5 49.5q-129 0 -243 -49.5t-200 -134.5t-135 -198.5t-49 -242.5zM207 731q0 119 46 224.5t126 184.5t185.5 124t226.5 45q119 0 225 -45t185 -124t125 -184.5t46 -224.5 q0 -121 -46 -227.5t-125 -185t-185 -125t-225 -46.5q-121 0 -226.5 46.5t-185.5 125t-126 185t-46 227.5zM330 664l112 -177q346 -80 699 0l110 177h-921zM451 1063l151 -189q4 -4 15.5 -0.5t23.5 9.5t20.5 12t8.5 8q-29 57 -47.5 118.5t-53.5 111.5q-6 8 -26.5 -0.5 t-42 -22.5t-38 -28.5t-11.5 -18.5zM463 457q20 -35 51 -74t73 -70.5t92.5 -53t111.5 -21.5q59 0 110 21.5t92 53t73 70.5t52 74q-164 -43 -326.5 -42t-328.5 42zM715 731h155l-77 187zM918 903q-4 -2 4 -8t19 -12t23.5 -9.5t18.5 0.5l147 189q4 4 -11 18.5t-36.5 28.5 t-42 22.5t-26.5 0.5q-39 -49 -55.5 -110.5t-40.5 -119.5zM1290 102v23h84v-23h-31v-77h-22v77h-31zM1384 25v100h31l19 -78l18 78h29v-100h-19v77l-20 -77h-19l-20 77v-77h-19z" />
<glyph unicode="&#xd9;" d="M68 731q0 150 56 282t154.5 230t230.5 155.5t282 57.5t281.5 -57.5t230 -155.5t156 -230t57.5 -282t-57.5 -282t-156 -230t-230 -155.5t-281.5 -57.5t-282 57.5t-230.5 155.5t-154.5 230.5t-56 281.5zM164 731q0 -129 49 -242.5t135 -199.5t200 -135.5t243 -49.5 q131 0 244.5 49.5t197.5 135.5t133 199.5t49 242.5t-49 242.5t-133 198.5t-197.5 134.5t-244.5 49.5q-129 0 -243 -49.5t-200 -134.5t-135 -198.5t-49 -242.5zM207 731q0 119 46 224.5t126 184.5t185.5 124t226.5 45q119 0 225 -45t185 -124t125 -184.5t46 -224.5 q0 -121 -46 -227.5t-125 -185t-185 -125t-225 -46.5q-121 0 -226.5 46.5t-185.5 125t-126 185t-46 227.5zM330 664l112 -177q346 -80 699 0l110 177h-921zM451 1063l151 -189q4 -4 15.5 -0.5t23.5 9.5t20.5 12t8.5 8q-29 57 -47.5 118.5t-53.5 111.5q-6 8 -26.5 -0.5 t-42 -22.5t-38 -28.5t-11.5 -18.5zM463 457q20 -35 51 -74t73 -70.5t92.5 -53t111.5 -21.5q59 0 110 21.5t92 53t73 70.5t52 74q-164 -43 -326.5 -42t-328.5 42zM715 731h155l-77 187zM918 903q-4 -2 4 -8t19 -12t23.5 -9.5t18.5 0.5l147 189q4 4 -11 18.5t-36.5 28.5 t-42 22.5t-26.5 0.5q-39 -49 -55.5 -110.5t-40.5 -119.5zM1290 102v23h84v-23h-31v-77h-22v77h-31zM1384 25v100h31l19 -78l18 78h29v-100h-19v77l-20 -77h-19l-20 77v-77h-19z" />
<glyph unicode="&#xda;" d="M68 731q0 150 56 282t154.5 230t230.5 155.5t282 57.5t281.5 -57.5t230 -155.5t156 -230t57.5 -282t-57.5 -282t-156 -230t-230 -155.5t-281.5 -57.5t-282 57.5t-230.5 155.5t-154.5 230.5t-56 281.5zM164 731q0 -129 49 -242.5t135 -199.5t200 -135.5t243 -49.5 q131 0 244.5 49.5t197.5 135.5t133 199.5t49 242.5t-49 242.5t-133 198.5t-197.5 134.5t-244.5 49.5q-129 0 -243 -49.5t-200 -134.5t-135 -198.5t-49 -242.5zM207 731q0 119 46 224.5t126 184.5t185.5 124t226.5 45q119 0 225 -45t185 -124t125 -184.5t46 -224.5 q0 -121 -46 -227.5t-125 -185t-185 -125t-225 -46.5q-121 0 -226.5 46.5t-185.5 125t-126 185t-46 227.5zM330 664l112 -177q346 -80 699 0l110 177h-921zM451 1063l151 -189q4 -4 15.5 -0.5t23.5 9.5t20.5 12t8.5 8q-29 57 -47.5 118.5t-53.5 111.5q-6 8 -26.5 -0.5 t-42 -22.5t-38 -28.5t-11.5 -18.5zM463 457q20 -35 51 -74t73 -70.5t92.5 -53t111.5 -21.5q59 0 110 21.5t92 53t73 70.5t52 74q-164 -43 -326.5 -42t-328.5 42zM715 731h155l-77 187zM918 903q-4 -2 4 -8t19 -12t23.5 -9.5t18.5 0.5l147 189q4 4 -11 18.5t-36.5 28.5 t-42 22.5t-26.5 0.5q-39 -49 -55.5 -110.5t-40.5 -119.5zM1290 102v23h84v-23h-31v-77h-22v77h-31zM1384 25v100h31l19 -78l18 78h29v-100h-19v77l-20 -77h-19l-20 77v-77h-19z" />
<glyph unicode="&#xdb;" d="M68 731q0 150 56 282t154.5 230t230.5 155.5t282 57.5t281.5 -57.5t230 -155.5t156 -230t57.5 -282t-57.5 -282t-156 -230t-230 -155.5t-281.5 -57.5t-282 57.5t-230.5 155.5t-154.5 230.5t-56 281.5zM164 731q0 -129 49 -242.5t135 -199.5t200 -135.5t243 -49.5 q131 0 244.5 49.5t197.5 135.5t133 199.5t49 242.5t-49 242.5t-133 198.5t-197.5 134.5t-244.5 49.5q-129 0 -243 -49.5t-200 -134.5t-135 -198.5t-49 -242.5zM207 731q0 119 46 224.5t126 184.5t185.5 124t226.5 45q119 0 225 -45t185 -124t125 -184.5t46 -224.5 q0 -121 -46 -227.5t-125 -185t-185 -125t-225 -46.5q-121 0 -226.5 46.5t-185.5 125t-126 185t-46 227.5zM330 664l112 -177q346 -80 699 0l110 177h-921zM451 1063l151 -189q4 -4 15.5 -0.5t23.5 9.5t20.5 12t8.5 8q-29 57 -47.5 118.5t-53.5 111.5q-6 8 -26.5 -0.5 t-42 -22.5t-38 -28.5t-11.5 -18.5zM463 457q20 -35 51 -74t73 -70.5t92.5 -53t111.5 -21.5q59 0 110 21.5t92 53t73 70.5t52 74q-164 -43 -326.5 -42t-328.5 42zM715 731h155l-77 187zM918 903q-4 -2 4 -8t19 -12t23.5 -9.5t18.5 0.5l147 189q4 4 -11 18.5t-36.5 28.5 t-42 22.5t-26.5 0.5q-39 -49 -55.5 -110.5t-40.5 -119.5zM1290 102v23h84v-23h-31v-77h-22v77h-31zM1384 25v100h31l19 -78l18 78h29v-100h-19v77l-20 -77h-19l-20 77v-77h-19z" />
<glyph unicode="&#xdc;" d="M68 731q0 150 56 282t154.5 230t230.5 155.5t282 57.5t281.5 -57.5t230 -155.5t156 -230t57.5 -282t-57.5 -282t-156 -230t-230 -155.5t-281.5 -57.5t-282 57.5t-230.5 155.5t-154.5 230.5t-56 281.5zM164 731q0 -129 49 -242.5t135 -199.5t200 -135.5t243 -49.5 q131 0 244.5 49.5t197.5 135.5t133 199.5t49 242.5t-49 242.5t-133 198.5t-197.5 134.5t-244.5 49.5q-129 0 -243 -49.5t-200 -134.5t-135 -198.5t-49 -242.5zM207 731q0 119 46 224.5t126 184.5t185.5 124t226.5 45q119 0 225 -45t185 -124t125 -184.5t46 -224.5 q0 -121 -46 -227.5t-125 -185t-185 -125t-225 -46.5q-121 0 -226.5 46.5t-185.5 125t-126 185t-46 227.5zM330 664l112 -177q346 -80 699 0l110 177h-921zM451 1063l151 -189q4 -4 15.5 -0.5t23.5 9.5t20.5 12t8.5 8q-29 57 -47.5 118.5t-53.5 111.5q-6 8 -26.5 -0.5 t-42 -22.5t-38 -28.5t-11.5 -18.5zM463 457q20 -35 51 -74t73 -70.5t92.5 -53t111.5 -21.5q59 0 110 21.5t92 53t73 70.5t52 74q-164 -43 -326.5 -42t-328.5 42zM715 731h155l-77 187zM918 903q-4 -2 4 -8t19 -12t23.5 -9.5t18.5 0.5l147 189q4 4 -11 18.5t-36.5 28.5 t-42 22.5t-26.5 0.5q-39 -49 -55.5 -110.5t-40.5 -119.5zM1290 102v23h84v-23h-31v-77h-22v77h-31zM1384 25v100h31l19 -78l18 78h29v-100h-19v77l-20 -77h-19l-20 77v-77h-19z" />
<glyph unicode="&#xdd;" d="M68 731q0 150 56 282t154.5 230t230.5 155.5t282 57.5t281.5 -57.5t230 -155.5t156 -230t57.5 -282t-57.5 -282t-156 -230t-230 -155.5t-281.5 -57.5t-282 57.5t-230.5 155.5t-154.5 230.5t-56 281.5zM164 731q0 -129 49 -242.5t135 -199.5t200 -135.5t243 -49.5 q131 0 244.5 49.5t197.5 135.5t133 199.5t49 242.5t-49 242.5t-133 198.5t-197.5 134.5t-244.5 49.5q-129 0 -243 -49.5t-200 -134.5t-135 -198.5t-49 -242.5zM207 731q0 119 46 224.5t126 184.5t185.5 124t226.5 45q119 0 225 -45t185 -124t125 -184.5t46 -224.5 q0 -121 -46 -227.5t-125 -185t-185 -125t-225 -46.5q-121 0 -226.5 46.5t-185.5 125t-126 185t-46 227.5zM330 664l112 -177q346 -80 699 0l110 177h-921zM451 1063l151 -189q4 -4 15.5 -0.5t23.5 9.5t20.5 12t8.5 8q-29 57 -47.5 118.5t-53.5 111.5q-6 8 -26.5 -0.5 t-42 -22.5t-38 -28.5t-11.5 -18.5zM463 457q20 -35 51 -74t73 -70.5t92.5 -53t111.5 -21.5q59 0 110 21.5t92 53t73 70.5t52 74q-164 -43 -326.5 -42t-328.5 42zM715 731h155l-77 187zM918 903q-4 -2 4 -8t19 -12t23.5 -9.5t18.5 0.5l147 189q4 4 -11 18.5t-36.5 28.5 t-42 22.5t-26.5 0.5q-39 -49 -55.5 -110.5t-40.5 -119.5zM1290 102v23h84v-23h-31v-77h-22v77h-31zM1384 25v100h31l19 -78l18 78h29v-100h-19v77l-20 -77h-19l-20 77v-77h-19z" />
<glyph unicode="&#xde;" d="M68 731q0 150 56 282t154.5 230t230.5 155.5t282 57.5t281.5 -57.5t230 -155.5t156 -230t57.5 -282t-57.5 -282t-156 -230t-230 -155.5t-281.5 -57.5t-282 57.5t-230.5 155.5t-154.5 230.5t-56 281.5zM164 731q0 -129 49 -242.5t135 -199.5t200 -135.5t243 -49.5 q131 0 244.5 49.5t197.5 135.5t133 199.5t49 242.5t-49 242.5t-133 198.5t-197.5 134.5t-244.5 49.5q-129 0 -243 -49.5t-200 -134.5t-135 -198.5t-49 -242.5zM207 731q0 119 46 224.5t126 184.5t185.5 124t226.5 45q119 0 225 -45t185 -124t125 -184.5t46 -224.5 q0 -121 -46 -227.5t-125 -185t-185 -125t-225 -46.5q-121 0 -226.5 46.5t-185.5 125t-126 185t-46 227.5zM330 664l112 -177q346 -80 699 0l110 177h-921zM451 1063l151 -189q4 -4 15.5 -0.5t23.5 9.5t20.5 12t8.5 8q-29 57 -47.5 118.5t-53.5 111.5q-6 8 -26.5 -0.5 t-42 -22.5t-38 -28.5t-11.5 -18.5zM463 457q20 -35 51 -74t73 -70.5t92.5 -53t111.5 -21.5q59 0 110 21.5t92 53t73 70.5t52 74q-164 -43 -326.5 -42t-328.5 42zM715 731h155l-77 187zM918 903q-4 -2 4 -8t19 -12t23.5 -9.5t18.5 0.5l147 189q4 4 -11 18.5t-36.5 28.5 t-42 22.5t-26.5 0.5q-39 -49 -55.5 -110.5t-40.5 -119.5zM1290 102v23h84v-23h-31v-77h-22v77h-31zM1384 25v100h31l19 -78l18 78h29v-100h-19v77l-20 -77h-19l-20 77v-77h-19z" />
<glyph unicode="&#xdf;" d="M68 731q0 150 56 282t154.5 230t230.5 155.5t282 57.5t281.5 -57.5t230 -155.5t156 -230t57.5 -282t-57.5 -282t-156 -230t-230 -155.5t-281.5 -57.5t-282 57.5t-230.5 155.5t-154.5 230.5t-56 281.5zM164 731q0 -129 49 -242.5t135 -199.5t200 -135.5t243 -49.5 q131 0 244.5 49.5t197.5 135.5t133 199.5t49 242.5t-49 242.5t-133 198.5t-197.5 134.5t-244.5 49.5q-129 0 -243 -49.5t-200 -134.5t-135 -198.5t-49 -242.5zM207 731q0 119 46 224.5t126 184.5t185.5 124t226.5 45q119 0 225 -45t185 -124t125 -184.5t46 -224.5 q0 -121 -46 -227.5t-125 -185t-185 -125t-225 -46.5q-121 0 -226.5 46.5t-185.5 125t-126 185t-46 227.5zM330 664l112 -177q346 -80 699 0l110 177h-921zM451 1063l151 -189q4 -4 15.5 -0.5t23.5 9.5t20.5 12t8.5 8q-29 57 -47.5 118.5t-53.5 111.5q-6 8 -26.5 -0.5 t-42 -22.5t-38 -28.5t-11.5 -18.5zM463 457q20 -35 51 -74t73 -70.5t92.5 -53t111.5 -21.5q59 0 110 21.5t92 53t73 70.5t52 74q-164 -43 -326.5 -42t-328.5 42zM715 731h155l-77 187zM918 903q-4 -2 4 -8t19 -12t23.5 -9.5t18.5 0.5l147 189q4 4 -11 18.5t-36.5 28.5 t-42 22.5t-26.5 0.5q-39 -49 -55.5 -110.5t-40.5 -119.5zM1290 102v23h84v-23h-31v-77h-22v77h-31zM1384 25v100h31l19 -78l18 78h29v-100h-19v77l-20 -77h-19l-20 77v-77h-19z" />
<glyph unicode="&#xe0;" d="M68 731q0 150 56 282t154.5 230t230.5 155.5t282 57.5t281.5 -57.5t230 -155.5t156 -230t57.5 -282t-57.5 -282t-156 -230t-230 -155.5t-281.5 -57.5t-282 57.5t-230.5 155.5t-154.5 230.5t-56 281.5zM164 731q0 -129 49 -242.5t135 -199.5t200 -135.5t243 -49.5 q131 0 244.5 49.5t197.5 135.5t133 199.5t49 242.5t-49 242.5t-133 198.5t-197.5 134.5t-244.5 49.5q-129 0 -243 -49.5t-200 -134.5t-135 -198.5t-49 -242.5zM207 731q0 119 46 224.5t126 184.5t185.5 124t226.5 45q119 0 225 -45t185 -124t125 -184.5t46 -224.5 q0 -121 -46 -227.5t-125 -185t-185 -125t-225 -46.5q-121 0 -226.5 46.5t-185.5 125t-126 185t-46 227.5zM330 664l112 -177q346 -80 699 0l110 177h-921zM451 1063l151 -189q4 -4 15.5 -0.5t23.5 9.5t20.5 12t8.5 8q-29 57 -47.5 118.5t-53.5 111.5q-6 8 -26.5 -0.5 t-42 -22.5t-38 -28.5t-11.5 -18.5zM463 457q20 -35 51 -74t73 -70.5t92.5 -53t111.5 -21.5q59 0 110 21.5t92 53t73 70.5t52 74q-164 -43 -326.5 -42t-328.5 42zM715 731h155l-77 187zM918 903q-4 -2 4 -8t19 -12t23.5 -9.5t18.5 0.5l147 189q4 4 -11 18.5t-36.5 28.5 t-42 22.5t-26.5 0.5q-39 -49 -55.5 -110.5t-40.5 -119.5zM1290 102v23h84v-23h-31v-77h-22v77h-31zM1384 25v100h31l19 -78l18 78h29v-100h-19v77l-20 -77h-19l-20 77v-77h-19z" />
<glyph unicode="&#xe1;" d="M68 731q0 150 56 282t154.5 230t230.5 155.5t282 57.5t281.5 -57.5t230 -155.5t156 -230t57.5 -282t-57.5 -282t-156 -230t-230 -155.5t-281.5 -57.5t-282 57.5t-230.5 155.5t-154.5 230.5t-56 281.5zM164 731q0 -129 49 -242.5t135 -199.5t200 -135.5t243 -49.5 q131 0 244.5 49.5t197.5 135.5t133 199.5t49 242.5t-49 242.5t-133 198.5t-197.5 134.5t-244.5 49.5q-129 0 -243 -49.5t-200 -134.5t-135 -198.5t-49 -242.5zM207 731q0 119 46 224.5t126 184.5t185.5 124t226.5 45q119 0 225 -45t185 -124t125 -184.5t46 -224.5 q0 -121 -46 -227.5t-125 -185t-185 -125t-225 -46.5q-121 0 -226.5 46.5t-185.5 125t-126 185t-46 227.5zM330 664l112 -177q346 -80 699 0l110 177h-921zM451 1063l151 -189q4 -4 15.5 -0.5t23.5 9.5t20.5 12t8.5 8q-29 57 -47.5 118.5t-53.5 111.5q-6 8 -26.5 -0.5 t-42 -22.5t-38 -28.5t-11.5 -18.5zM463 457q20 -35 51 -74t73 -70.5t92.5 -53t111.5 -21.5q59 0 110 21.5t92 53t73 70.5t52 74q-164 -43 -326.5 -42t-328.5 42zM715 731h155l-77 187zM918 903q-4 -2 4 -8t19 -12t23.5 -9.5t18.5 0.5l147 189q4 4 -11 18.5t-36.5 28.5 t-42 22.5t-26.5 0.5q-39 -49 -55.5 -110.5t-40.5 -119.5zM1290 102v23h84v-23h-31v-77h-22v77h-31zM1384 25v100h31l19 -78l18 78h29v-100h-19v77l-20 -77h-19l-20 77v-77h-19z" />
<glyph unicode="&#xe2;" d="M68 731q0 150 56 282t154.5 230t230.5 155.5t282 57.5t281.5 -57.5t230 -155.5t156 -230t57.5 -282t-57.5 -282t-156 -230t-230 -155.5t-281.5 -57.5t-282 57.5t-230.5 155.5t-154.5 230.5t-56 281.5zM164 731q0 -129 49 -242.5t135 -199.5t200 -135.5t243 -49.5 q131 0 244.5 49.5t197.5 135.5t133 199.5t49 242.5t-49 242.5t-133 198.5t-197.5 134.5t-244.5 49.5q-129 0 -243 -49.5t-200 -134.5t-135 -198.5t-49 -242.5zM207 731q0 119 46 224.5t126 184.5t185.5 124t226.5 45q119 0 225 -45t185 -124t125 -184.5t46 -224.5 q0 -121 -46 -227.5t-125 -185t-185 -125t-225 -46.5q-121 0 -226.5 46.5t-185.5 125t-126 185t-46 227.5zM330 664l112 -177q346 -80 699 0l110 177h-921zM451 1063l151 -189q4 -4 15.5 -0.5t23.5 9.5t20.5 12t8.5 8q-29 57 -47.5 118.5t-53.5 111.5q-6 8 -26.5 -0.5 t-42 -22.5t-38 -28.5t-11.5 -18.5zM463 457q20 -35 51 -74t73 -70.5t92.5 -53t111.5 -21.5q59 0 110 21.5t92 53t73 70.5t52 74q-164 -43 -326.5 -42t-328.5 42zM715 731h155l-77 187zM918 903q-4 -2 4 -8t19 -12t23.5 -9.5t18.5 0.5l147 189q4 4 -11 18.5t-36.5 28.5 t-42 22.5t-26.5 0.5q-39 -49 -55.5 -110.5t-40.5 -119.5zM1290 102v23h84v-23h-31v-77h-22v77h-31zM1384 25v100h31l19 -78l18 78h29v-100h-19v77l-20 -77h-19l-20 77v-77h-19z" />
<glyph unicode="&#xe3;" d="M68 731q0 150 56 282t154.5 230t230.5 155.5t282 57.5t281.5 -57.5t230 -155.5t156 -230t57.5 -282t-57.5 -282t-156 -230t-230 -155.5t-281.5 -57.5t-282 57.5t-230.5 155.5t-154.5 230.5t-56 281.5zM164 731q0 -129 49 -242.5t135 -199.5t200 -135.5t243 -49.5 q131 0 244.5 49.5t197.5 135.5t133 199.5t49 242.5t-49 242.5t-133 198.5t-197.5 134.5t-244.5 49.5q-129 0 -243 -49.5t-200 -134.5t-135 -198.5t-49 -242.5zM207 731q0 119 46 224.5t126 184.5t185.5 124t226.5 45q119 0 225 -45t185 -124t125 -184.5t46 -224.5 q0 -121 -46 -227.5t-125 -185t-185 -125t-225 -46.5q-121 0 -226.5 46.5t-185.5 125t-126 185t-46 227.5zM330 664l112 -177q346 -80 699 0l110 177h-921zM451 1063l151 -189q4 -4 15.5 -0.5t23.5 9.5t20.5 12t8.5 8q-29 57 -47.5 118.5t-53.5 111.5q-6 8 -26.5 -0.5 t-42 -22.5t-38 -28.5t-11.5 -18.5zM463 457q20 -35 51 -74t73 -70.5t92.5 -53t111.5 -21.5q59 0 110 21.5t92 53t73 70.5t52 74q-164 -43 -326.5 -42t-328.5 42zM715 731h155l-77 187zM918 903q-4 -2 4 -8t19 -12t23.5 -9.5t18.5 0.5l147 189q4 4 -11 18.5t-36.5 28.5 t-42 22.5t-26.5 0.5q-39 -49 -55.5 -110.5t-40.5 -119.5zM1290 102v23h84v-23h-31v-77h-22v77h-31zM1384 25v100h31l19 -78l18 78h29v-100h-19v77l-20 -77h-19l-20 77v-77h-19z" />
<glyph unicode="&#xe4;" d="M68 731q0 150 56 282t154.5 230t230.5 155.5t282 57.5t281.5 -57.5t230 -155.5t156 -230t57.5 -282t-57.5 -282t-156 -230t-230 -155.5t-281.5 -57.5t-282 57.5t-230.5 155.5t-154.5 230.5t-56 281.5zM164 731q0 -129 49 -242.5t135 -199.5t200 -135.5t243 -49.5 q131 0 244.5 49.5t197.5 135.5t133 199.5t49 242.5t-49 242.5t-133 198.5t-197.5 134.5t-244.5 49.5q-129 0 -243 -49.5t-200 -134.5t-135 -198.5t-49 -242.5zM207 731q0 119 46 224.5t126 184.5t185.5 124t226.5 45q119 0 225 -45t185 -124t125 -184.5t46 -224.5 q0 -121 -46 -227.5t-125 -185t-185 -125t-225 -46.5q-121 0 -226.5 46.5t-185.5 125t-126 185t-46 227.5zM330 664l112 -177q346 -80 699 0l110 177h-921zM451 1063l151 -189q4 -4 15.5 -0.5t23.5 9.5t20.5 12t8.5 8q-29 57 -47.5 118.5t-53.5 111.5q-6 8 -26.5 -0.5 t-42 -22.5t-38 -28.5t-11.5 -18.5zM463 457q20 -35 51 -74t73 -70.5t92.5 -53t111.5 -21.5q59 0 110 21.5t92 53t73 70.5t52 74q-164 -43 -326.5 -42t-328.5 42zM715 731h155l-77 187zM918 903q-4 -2 4 -8t19 -12t23.5 -9.5t18.5 0.5l147 189q4 4 -11 18.5t-36.5 28.5 t-42 22.5t-26.5 0.5q-39 -49 -55.5 -110.5t-40.5 -119.5zM1290 102v23h84v-23h-31v-77h-22v77h-31zM1384 25v100h31l19 -78l18 78h29v-100h-19v77l-20 -77h-19l-20 77v-77h-19z" />
<glyph unicode="&#xe5;" d="M68 731q0 150 56 282t154.5 230t230.5 155.5t282 57.5t281.5 -57.5t230 -155.5t156 -230t57.5 -282t-57.5 -282t-156 -230t-230 -155.5t-281.5 -57.5t-282 57.5t-230.5 155.5t-154.5 230.5t-56 281.5zM164 731q0 -129 49 -242.5t135 -199.5t200 -135.5t243 -49.5 q131 0 244.5 49.5t197.5 135.5t133 199.5t49 242.5t-49 242.5t-133 198.5t-197.5 134.5t-244.5 49.5q-129 0 -243 -49.5t-200 -134.5t-135 -198.5t-49 -242.5zM207 731q0 119 46 224.5t126 184.5t185.5 124t226.5 45q119 0 225 -45t185 -124t125 -184.5t46 -224.5 q0 -121 -46 -227.5t-125 -185t-185 -125t-225 -46.5q-121 0 -226.5 46.5t-185.5 125t-126 185t-46 227.5zM330 664l112 -177q346 -80 699 0l110 177h-921zM451 1063l151 -189q4 -4 15.5 -0.5t23.5 9.5t20.5 12t8.5 8q-29 57 -47.5 118.5t-53.5 111.5q-6 8 -26.5 -0.5 t-42 -22.5t-38 -28.5t-11.5 -18.5zM463 457q20 -35 51 -74t73 -70.5t92.5 -53t111.5 -21.5q59 0 110 21.5t92 53t73 70.5t52 74q-164 -43 -326.5 -42t-328.5 42zM715 731h155l-77 187zM918 903q-4 -2 4 -8t19 -12t23.5 -9.5t18.5 0.5l147 189q4 4 -11 18.5t-36.5 28.5 t-42 22.5t-26.5 0.5q-39 -49 -55.5 -110.5t-40.5 -119.5zM1290 102v23h84v-23h-31v-77h-22v77h-31zM1384 25v100h31l19 -78l18 78h29v-100h-19v77l-20 -77h-19l-20 77v-77h-19z" />
<glyph unicode="&#xe6;" d="M68 731q0 150 56 282t154.5 230t230.5 155.5t282 57.5t281.5 -57.5t230 -155.5t156 -230t57.5 -282t-57.5 -282t-156 -230t-230 -155.5t-281.5 -57.5t-282 57.5t-230.5 155.5t-154.5 230.5t-56 281.5zM164 731q0 -129 49 -242.5t135 -199.5t200 -135.5t243 -49.5 q131 0 244.5 49.5t197.5 135.5t133 199.5t49 242.5t-49 242.5t-133 198.5t-197.5 134.5t-244.5 49.5q-129 0 -243 -49.5t-200 -134.5t-135 -198.5t-49 -242.5zM207 731q0 119 46 224.5t126 184.5t185.5 124t226.5 45q119 0 225 -45t185 -124t125 -184.5t46 -224.5 q0 -121 -46 -227.5t-125 -185t-185 -125t-225 -46.5q-121 0 -226.5 46.5t-185.5 125t-126 185t-46 227.5zM330 664l112 -177q346 -80 699 0l110 177h-921zM451 1063l151 -189q4 -4 15.5 -0.5t23.5 9.5t20.5 12t8.5 8q-29 57 -47.5 118.5t-53.5 111.5q-6 8 -26.5 -0.5 t-42 -22.5t-38 -28.5t-11.5 -18.5zM463 457q20 -35 51 -74t73 -70.5t92.5 -53t111.5 -21.5q59 0 110 21.5t92 53t73 70.5t52 74q-164 -43 -326.5 -42t-328.5 42zM715 731h155l-77 187zM918 903q-4 -2 4 -8t19 -12t23.5 -9.5t18.5 0.5l147 189q4 4 -11 18.5t-36.5 28.5 t-42 22.5t-26.5 0.5q-39 -49 -55.5 -110.5t-40.5 -119.5zM1290 102v23h84v-23h-31v-77h-22v77h-31zM1384 25v100h31l19 -78l18 78h29v-100h-19v77l-20 -77h-19l-20 77v-77h-19z" />
<glyph unicode="&#xe7;" d="M68 731q0 150 56 282t154.5 230t230.5 155.5t282 57.5t281.5 -57.5t230 -155.5t156 -230t57.5 -282t-57.5 -282t-156 -230t-230 -155.5t-281.5 -57.5t-282 57.5t-230.5 155.5t-154.5 230.5t-56 281.5zM164 731q0 -129 49 -242.5t135 -199.5t200 -135.5t243 -49.5 q131 0 244.5 49.5t197.5 135.5t133 199.5t49 242.5t-49 242.5t-133 198.5t-197.5 134.5t-244.5 49.5q-129 0 -243 -49.5t-200 -134.5t-135 -198.5t-49 -242.5zM207 731q0 119 46 224.5t126 184.5t185.5 124t226.5 45q119 0 225 -45t185 -124t125 -184.5t46 -224.5 q0 -121 -46 -227.5t-125 -185t-185 -125t-225 -46.5q-121 0 -226.5 46.5t-185.5 125t-126 185t-46 227.5zM330 664l112 -177q346 -80 699 0l110 177h-921zM451 1063l151 -189q4 -4 15.5 -0.5t23.5 9.5t20.5 12t8.5 8q-29 57 -47.5 118.5t-53.5 111.5q-6 8 -26.5 -0.5 t-42 -22.5t-38 -28.5t-11.5 -18.5zM463 457q20 -35 51 -74t73 -70.5t92.5 -53t111.5 -21.5q59 0 110 21.5t92 53t73 70.5t52 74q-164 -43 -326.5 -42t-328.5 42zM715 731h155l-77 187zM918 903q-4 -2 4 -8t19 -12t23.5 -9.5t18.5 0.5l147 189q4 4 -11 18.5t-36.5 28.5 t-42 22.5t-26.5 0.5q-39 -49 -55.5 -110.5t-40.5 -119.5zM1290 102v23h84v-23h-31v-77h-22v77h-31zM1384 25v100h31l19 -78l18 78h29v-100h-19v77l-20 -77h-19l-20 77v-77h-19z" />
<glyph unicode="&#xe8;" d="M68 731q0 150 56 282t154.5 230t230.5 155.5t282 57.5t281.5 -57.5t230 -155.5t156 -230t57.5 -282t-57.5 -282t-156 -230t-230 -155.5t-281.5 -57.5t-282 57.5t-230.5 155.5t-154.5 230.5t-56 281.5zM164 731q0 -129 49 -242.5t135 -199.5t200 -135.5t243 -49.5 q131 0 244.5 49.5t197.5 135.5t133 199.5t49 242.5t-49 242.5t-133 198.5t-197.5 134.5t-244.5 49.5q-129 0 -243 -49.5t-200 -134.5t-135 -198.5t-49 -242.5zM207 731q0 119 46 224.5t126 184.5t185.5 124t226.5 45q119 0 225 -45t185 -124t125 -184.5t46 -224.5 q0 -121 -46 -227.5t-125 -185t-185 -125t-225 -46.5q-121 0 -226.5 46.5t-185.5 125t-126 185t-46 227.5zM330 664l112 -177q346 -80 699 0l110 177h-921zM451 1063l151 -189q4 -4 15.5 -0.5t23.5 9.5t20.5 12t8.5 8q-29 57 -47.5 118.5t-53.5 111.5q-6 8 -26.5 -0.5 t-42 -22.5t-38 -28.5t-11.5 -18.5zM463 457q20 -35 51 -74t73 -70.5t92.5 -53t111.5 -21.5q59 0 110 21.5t92 53t73 70.5t52 74q-164 -43 -326.5 -42t-328.5 42zM715 731h155l-77 187zM918 903q-4 -2 4 -8t19 -12t23.5 -9.5t18.5 0.5l147 189q4 4 -11 18.5t-36.5 28.5 t-42 22.5t-26.5 0.5q-39 -49 -55.5 -110.5t-40.5 -119.5zM1290 102v23h84v-23h-31v-77h-22v77h-31zM1384 25v100h31l19 -78l18 78h29v-100h-19v77l-20 -77h-19l-20 77v-77h-19z" />
<glyph unicode="&#xe9;" d="M68 731q0 150 56 282t154.5 230t230.5 155.5t282 57.5t281.5 -57.5t230 -155.5t156 -230t57.5 -282t-57.5 -282t-156 -230t-230 -155.5t-281.5 -57.5t-282 57.5t-230.5 155.5t-154.5 230.5t-56 281.5zM164 731q0 -129 49 -242.5t135 -199.5t200 -135.5t243 -49.5 q131 0 244.5 49.5t197.5 135.5t133 199.5t49 242.5t-49 242.5t-133 198.5t-197.5 134.5t-244.5 49.5q-129 0 -243 -49.5t-200 -134.5t-135 -198.5t-49 -242.5zM207 731q0 119 46 224.5t126 184.5t185.5 124t226.5 45q119 0 225 -45t185 -124t125 -184.5t46 -224.5 q0 -121 -46 -227.5t-125 -185t-185 -125t-225 -46.5q-121 0 -226.5 46.5t-185.5 125t-126 185t-46 227.5zM330 664l112 -177q346 -80 699 0l110 177h-921zM451 1063l151 -189q4 -4 15.5 -0.5t23.5 9.5t20.5 12t8.5 8q-29 57 -47.5 118.5t-53.5 111.5q-6 8 -26.5 -0.5 t-42 -22.5t-38 -28.5t-11.5 -18.5zM463 457q20 -35 51 -74t73 -70.5t92.5 -53t111.5 -21.5q59 0 110 21.5t92 53t73 70.5t52 74q-164 -43 -326.5 -42t-328.5 42zM715 731h155l-77 187zM918 903q-4 -2 4 -8t19 -12t23.5 -9.5t18.5 0.5l147 189q4 4 -11 18.5t-36.5 28.5 t-42 22.5t-26.5 0.5q-39 -49 -55.5 -110.5t-40.5 -119.5zM1290 102v23h84v-23h-31v-77h-22v77h-31zM1384 25v100h31l19 -78l18 78h29v-100h-19v77l-20 -77h-19l-20 77v-77h-19z" />
<glyph unicode="&#xea;" d="M68 731q0 150 56 282t154.5 230t230.5 155.5t282 57.5t281.5 -57.5t230 -155.5t156 -230t57.5 -282t-57.5 -282t-156 -230t-230 -155.5t-281.5 -57.5t-282 57.5t-230.5 155.5t-154.5 230.5t-56 281.5zM164 731q0 -129 49 -242.5t135 -199.5t200 -135.5t243 -49.5 q131 0 244.5 49.5t197.5 135.5t133 199.5t49 242.5t-49 242.5t-133 198.5t-197.5 134.5t-244.5 49.5q-129 0 -243 -49.5t-200 -134.5t-135 -198.5t-49 -242.5zM207 731q0 119 46 224.5t126 184.5t185.5 124t226.5 45q119 0 225 -45t185 -124t125 -184.5t46 -224.5 q0 -121 -46 -227.5t-125 -185t-185 -125t-225 -46.5q-121 0 -226.5 46.5t-185.5 125t-126 185t-46 227.5zM330 664l112 -177q346 -80 699 0l110 177h-921zM451 1063l151 -189q4 -4 15.5 -0.5t23.5 9.5t20.5 12t8.5 8q-29 57 -47.5 118.5t-53.5 111.5q-6 8 -26.5 -0.5 t-42 -22.5t-38 -28.5t-11.5 -18.5zM463 457q20 -35 51 -74t73 -70.5t92.5 -53t111.5 -21.5q59 0 110 21.5t92 53t73 70.5t52 74q-164 -43 -326.5 -42t-328.5 42zM715 731h155l-77 187zM918 903q-4 -2 4 -8t19 -12t23.5 -9.5t18.5 0.5l147 189q4 4 -11 18.5t-36.5 28.5 t-42 22.5t-26.5 0.5q-39 -49 -55.5 -110.5t-40.5 -119.5zM1290 102v23h84v-23h-31v-77h-22v77h-31zM1384 25v100h31l19 -78l18 78h29v-100h-19v77l-20 -77h-19l-20 77v-77h-19z" />
<glyph unicode="&#xeb;" d="M68 731q0 150 56 282t154.5 230t230.5 155.5t282 57.5t281.5 -57.5t230 -155.5t156 -230t57.5 -282t-57.5 -282t-156 -230t-230 -155.5t-281.5 -57.5t-282 57.5t-230.5 155.5t-154.5 230.5t-56 281.5zM164 731q0 -129 49 -242.5t135 -199.5t200 -135.5t243 -49.5 q131 0 244.5 49.5t197.5 135.5t133 199.5t49 242.5t-49 242.5t-133 198.5t-197.5 134.5t-244.5 49.5q-129 0 -243 -49.5t-200 -134.5t-135 -198.5t-49 -242.5zM207 731q0 119 46 224.5t126 184.5t185.5 124t226.5 45q119 0 225 -45t185 -124t125 -184.5t46 -224.5 q0 -121 -46 -227.5t-125 -185t-185 -125t-225 -46.5q-121 0 -226.5 46.5t-185.5 125t-126 185t-46 227.5zM330 664l112 -177q346 -80 699 0l110 177h-921zM451 1063l151 -189q4 -4 15.5 -0.5t23.5 9.5t20.5 12t8.5 8q-29 57 -47.5 118.5t-53.5 111.5q-6 8 -26.5 -0.5 t-42 -22.5t-38 -28.5t-11.5 -18.5zM463 457q20 -35 51 -74t73 -70.5t92.5 -53t111.5 -21.5q59 0 110 21.5t92 53t73 70.5t52 74q-164 -43 -326.5 -42t-328.5 42zM715 731h155l-77 187zM918 903q-4 -2 4 -8t19 -12t23.5 -9.5t18.5 0.5l147 189q4 4 -11 18.5t-36.5 28.5 t-42 22.5t-26.5 0.5q-39 -49 -55.5 -110.5t-40.5 -119.5zM1290 102v23h84v-23h-31v-77h-22v77h-31zM1384 25v100h31l19 -78l18 78h29v-100h-19v77l-20 -77h-19l-20 77v-77h-19z" />
<glyph unicode="&#xec;" d="M68 731q0 150 56 282t154.5 230t230.5 155.5t282 57.5t281.5 -57.5t230 -155.5t156 -230t57.5 -282t-57.5 -282t-156 -230t-230 -155.5t-281.5 -57.5t-282 57.5t-230.5 155.5t-154.5 230.5t-56 281.5zM164 731q0 -129 49 -242.5t135 -199.5t200 -135.5t243 -49.5 q131 0 244.5 49.5t197.5 135.5t133 199.5t49 242.5t-49 242.5t-133 198.5t-197.5 134.5t-244.5 49.5q-129 0 -243 -49.5t-200 -134.5t-135 -198.5t-49 -242.5zM207 731q0 119 46 224.5t126 184.5t185.5 124t226.5 45q119 0 225 -45t185 -124t125 -184.5t46 -224.5 q0 -121 -46 -227.5t-125 -185t-185 -125t-225 -46.5q-121 0 -226.5 46.5t-185.5 125t-126 185t-46 227.5zM330 664l112 -177q346 -80 699 0l110 177h-921zM451 1063l151 -189q4 -4 15.5 -0.5t23.5 9.5t20.5 12t8.5 8q-29 57 -47.5 118.5t-53.5 111.5q-6 8 -26.5 -0.5 t-42 -22.5t-38 -28.5t-11.5 -18.5zM463 457q20 -35 51 -74t73 -70.5t92.5 -53t111.5 -21.5q59 0 110 21.5t92 53t73 70.5t52 74q-164 -43 -326.5 -42t-328.5 42zM715 731h155l-77 187zM918 903q-4 -2 4 -8t19 -12t23.5 -9.5t18.5 0.5l147 189q4 4 -11 18.5t-36.5 28.5 t-42 22.5t-26.5 0.5q-39 -49 -55.5 -110.5t-40.5 -119.5zM1290 102v23h84v-23h-31v-77h-22v77h-31zM1384 25v100h31l19 -78l18 78h29v-100h-19v77l-20 -77h-19l-20 77v-77h-19z" />
<glyph unicode="&#xed;" d="M68 731q0 150 56 282t154.5 230t230.5 155.5t282 57.5t281.5 -57.5t230 -155.5t156 -230t57.5 -282t-57.5 -282t-156 -230t-230 -155.5t-281.5 -57.5t-282 57.5t-230.5 155.5t-154.5 230.5t-56 281.5zM164 731q0 -129 49 -242.5t135 -199.5t200 -135.5t243 -49.5 q131 0 244.5 49.5t197.5 135.5t133 199.5t49 242.5t-49 242.5t-133 198.5t-197.5 134.5t-244.5 49.5q-129 0 -243 -49.5t-200 -134.5t-135 -198.5t-49 -242.5zM207 731q0 119 46 224.5t126 184.5t185.5 124t226.5 45q119 0 225 -45t185 -124t125 -184.5t46 -224.5 q0 -121 -46 -227.5t-125 -185t-185 -125t-225 -46.5q-121 0 -226.5 46.5t-185.5 125t-126 185t-46 227.5zM330 664l112 -177q346 -80 699 0l110 177h-921zM451 1063l151 -189q4 -4 15.5 -0.5t23.5 9.5t20.5 12t8.5 8q-29 57 -47.5 118.5t-53.5 111.5q-6 8 -26.5 -0.5 t-42 -22.5t-38 -28.5t-11.5 -18.5zM463 457q20 -35 51 -74t73 -70.5t92.5 -53t111.5 -21.5q59 0 110 21.5t92 53t73 70.5t52 74q-164 -43 -326.5 -42t-328.5 42zM715 731h155l-77 187zM918 903q-4 -2 4 -8t19 -12t23.5 -9.5t18.5 0.5l147 189q4 4 -11 18.5t-36.5 28.5 t-42 22.5t-26.5 0.5q-39 -49 -55.5 -110.5t-40.5 -119.5zM1290 102v23h84v-23h-31v-77h-22v77h-31zM1384 25v100h31l19 -78l18 78h29v-100h-19v77l-20 -77h-19l-20 77v-77h-19z" />
<glyph unicode="&#xee;" d="M68 731q0 150 56 282t154.5 230t230.5 155.5t282 57.5t281.5 -57.5t230 -155.5t156 -230t57.5 -282t-57.5 -282t-156 -230t-230 -155.5t-281.5 -57.5t-282 57.5t-230.5 155.5t-154.5 230.5t-56 281.5zM164 731q0 -129 49 -242.5t135 -199.5t200 -135.5t243 -49.5 q131 0 244.5 49.5t197.5 135.5t133 199.5t49 242.5t-49 242.5t-133 198.5t-197.5 134.5t-244.5 49.5q-129 0 -243 -49.5t-200 -134.5t-135 -198.5t-49 -242.5zM207 731q0 119 46 224.5t126 184.5t185.5 124t226.5 45q119 0 225 -45t185 -124t125 -184.5t46 -224.5 q0 -121 -46 -227.5t-125 -185t-185 -125t-225 -46.5q-121 0 -226.5 46.5t-185.5 125t-126 185t-46 227.5zM330 664l112 -177q346 -80 699 0l110 177h-921zM451 1063l151 -189q4 -4 15.5 -0.5t23.5 9.5t20.5 12t8.5 8q-29 57 -47.5 118.5t-53.5 111.5q-6 8 -26.5 -0.5 t-42 -22.5t-38 -28.5t-11.5 -18.5zM463 457q20 -35 51 -74t73 -70.5t92.5 -53t111.5 -21.5q59 0 110 21.5t92 53t73 70.5t52 74q-164 -43 -326.5 -42t-328.5 42zM715 731h155l-77 187zM918 903q-4 -2 4 -8t19 -12t23.5 -9.5t18.5 0.5l147 189q4 4 -11 18.5t-36.5 28.5 t-42 22.5t-26.5 0.5q-39 -49 -55.5 -110.5t-40.5 -119.5zM1290 102v23h84v-23h-31v-77h-22v77h-31zM1384 25v100h31l19 -78l18 78h29v-100h-19v77l-20 -77h-19l-20 77v-77h-19z" />
<glyph unicode="&#xef;" d="M68 731q0 150 56 282t154.5 230t230.5 155.5t282 57.5t281.5 -57.5t230 -155.5t156 -230t57.5 -282t-57.5 -282t-156 -230t-230 -155.5t-281.5 -57.5t-282 57.5t-230.5 155.5t-154.5 230.5t-56 281.5zM164 731q0 -129 49 -242.5t135 -199.5t200 -135.5t243 -49.5 q131 0 244.5 49.5t197.5 135.5t133 199.5t49 242.5t-49 242.5t-133 198.5t-197.5 134.5t-244.5 49.5q-129 0 -243 -49.5t-200 -134.5t-135 -198.5t-49 -242.5zM207 731q0 119 46 224.5t126 184.5t185.5 124t226.5 45q119 0 225 -45t185 -124t125 -184.5t46 -224.5 q0 -121 -46 -227.5t-125 -185t-185 -125t-225 -46.5q-121 0 -226.5 46.5t-185.5 125t-126 185t-46 227.5zM330 664l112 -177q346 -80 699 0l110 177h-921zM451 1063l151 -189q4 -4 15.5 -0.5t23.5 9.5t20.5 12t8.5 8q-29 57 -47.5 118.5t-53.5 111.5q-6 8 -26.5 -0.5 t-42 -22.5t-38 -28.5t-11.5 -18.5zM463 457q20 -35 51 -74t73 -70.5t92.5 -53t111.5 -21.5q59 0 110 21.5t92 53t73 70.5t52 74q-164 -43 -326.5 -42t-328.5 42zM715 731h155l-77 187zM918 903q-4 -2 4 -8t19 -12t23.5 -9.5t18.5 0.5l147 189q4 4 -11 18.5t-36.5 28.5 t-42 22.5t-26.5 0.5q-39 -49 -55.5 -110.5t-40.5 -119.5zM1290 102v23h84v-23h-31v-77h-22v77h-31zM1384 25v100h31l19 -78l18 78h29v-100h-19v77l-20 -77h-19l-20 77v-77h-19z" />
<glyph unicode="&#xf0;" d="M68 731q0 150 56 282t154.5 230t230.5 155.5t282 57.5t281.5 -57.5t230 -155.5t156 -230t57.5 -282t-57.5 -282t-156 -230t-230 -155.5t-281.5 -57.5t-282 57.5t-230.5 155.5t-154.5 230.5t-56 281.5zM164 731q0 -129 49 -242.5t135 -199.5t200 -135.5t243 -49.5 q131 0 244.5 49.5t197.5 135.5t133 199.5t49 242.5t-49 242.5t-133 198.5t-197.5 134.5t-244.5 49.5q-129 0 -243 -49.5t-200 -134.5t-135 -198.5t-49 -242.5zM207 731q0 119 46 224.5t126 184.5t185.5 124t226.5 45q119 0 225 -45t185 -124t125 -184.5t46 -224.5 q0 -121 -46 -227.5t-125 -185t-185 -125t-225 -46.5q-121 0 -226.5 46.5t-185.5 125t-126 185t-46 227.5zM330 664l112 -177q346 -80 699 0l110 177h-921zM451 1063l151 -189q4 -4 15.5 -0.5t23.5 9.5t20.5 12t8.5 8q-29 57 -47.5 118.5t-53.5 111.5q-6 8 -26.5 -0.5 t-42 -22.5t-38 -28.5t-11.5 -18.5zM463 457q20 -35 51 -74t73 -70.5t92.5 -53t111.5 -21.5q59 0 110 21.5t92 53t73 70.5t52 74q-164 -43 -326.5 -42t-328.5 42zM715 731h155l-77 187zM918 903q-4 -2 4 -8t19 -12t23.5 -9.5t18.5 0.5l147 189q4 4 -11 18.5t-36.5 28.5 t-42 22.5t-26.5 0.5q-39 -49 -55.5 -110.5t-40.5 -119.5zM1290 102v23h84v-23h-31v-77h-22v77h-31zM1384 25v100h31l19 -78l18 78h29v-100h-19v77l-20 -77h-19l-20 77v-77h-19z" />
<glyph unicode="&#xf1;" d="M68 731q0 150 56 282t154.5 230t230.5 155.5t282 57.5t281.5 -57.5t230 -155.5t156 -230t57.5 -282t-57.5 -282t-156 -230t-230 -155.5t-281.5 -57.5t-282 57.5t-230.5 155.5t-154.5 230.5t-56 281.5zM164 731q0 -129 49 -242.5t135 -199.5t200 -135.5t243 -49.5 q131 0 244.5 49.5t197.5 135.5t133 199.5t49 242.5t-49 242.5t-133 198.5t-197.5 134.5t-244.5 49.5q-129 0 -243 -49.5t-200 -134.5t-135 -198.5t-49 -242.5zM207 731q0 119 46 224.5t126 184.5t185.5 124t226.5 45q119 0 225 -45t185 -124t125 -184.5t46 -224.5 q0 -121 -46 -227.5t-125 -185t-185 -125t-225 -46.5q-121 0 -226.5 46.5t-185.5 125t-126 185t-46 227.5zM330 664l112 -177q346 -80 699 0l110 177h-921zM451 1063l151 -189q4 -4 15.5 -0.5t23.5 9.5t20.5 12t8.5 8q-29 57 -47.5 118.5t-53.5 111.5q-6 8 -26.5 -0.5 t-42 -22.5t-38 -28.5t-11.5 -18.5zM463 457q20 -35 51 -74t73 -70.5t92.5 -53t111.5 -21.5q59 0 110 21.5t92 53t73 70.5t52 74q-164 -43 -326.5 -42t-328.5 42zM715 731h155l-77 187zM918 903q-4 -2 4 -8t19 -12t23.5 -9.5t18.5 0.5l147 189q4 4 -11 18.5t-36.5 28.5 t-42 22.5t-26.5 0.5q-39 -49 -55.5 -110.5t-40.5 -119.5zM1290 102v23h84v-23h-31v-77h-22v77h-31zM1384 25v100h31l19 -78l18 78h29v-100h-19v77l-20 -77h-19l-20 77v-77h-19z" />
<glyph unicode="&#xf2;" d="M68 731q0 150 56 282t154.5 230t230.5 155.5t282 57.5t281.5 -57.5t230 -155.5t156 -230t57.5 -282t-57.5 -282t-156 -230t-230 -155.5t-281.5 -57.5t-282 57.5t-230.5 155.5t-154.5 230.5t-56 281.5zM164 731q0 -129 49 -242.5t135 -199.5t200 -135.5t243 -49.5 q131 0 244.5 49.5t197.5 135.5t133 199.5t49 242.5t-49 242.5t-133 198.5t-197.5 134.5t-244.5 49.5q-129 0 -243 -49.5t-200 -134.5t-135 -198.5t-49 -242.5zM207 731q0 119 46 224.5t126 184.5t185.5 124t226.5 45q119 0 225 -45t185 -124t125 -184.5t46 -224.5 q0 -121 -46 -227.5t-125 -185t-185 -125t-225 -46.5q-121 0 -226.5 46.5t-185.5 125t-126 185t-46 227.5zM330 664l112 -177q346 -80 699 0l110 177h-921zM451 1063l151 -189q4 -4 15.5 -0.5t23.5 9.5t20.5 12t8.5 8q-29 57 -47.5 118.5t-53.5 111.5q-6 8 -26.5 -0.5 t-42 -22.5t-38 -28.5t-11.5 -18.5zM463 457q20 -35 51 -74t73 -70.5t92.5 -53t111.5 -21.5q59 0 110 21.5t92 53t73 70.5t52 74q-164 -43 -326.5 -42t-328.5 42zM715 731h155l-77 187zM918 903q-4 -2 4 -8t19 -12t23.5 -9.5t18.5 0.5l147 189q4 4 -11 18.5t-36.5 28.5 t-42 22.5t-26.5 0.5q-39 -49 -55.5 -110.5t-40.5 -119.5zM1290 102v23h84v-23h-31v-77h-22v77h-31zM1384 25v100h31l19 -78l18 78h29v-100h-19v77l-20 -77h-19l-20 77v-77h-19z" />
<glyph unicode="&#xf3;" d="M68 731q0 150 56 282t154.5 230t230.5 155.5t282 57.5t281.5 -57.5t230 -155.5t156 -230t57.5 -282t-57.5 -282t-156 -230t-230 -155.5t-281.5 -57.5t-282 57.5t-230.5 155.5t-154.5 230.5t-56 281.5zM164 731q0 -129 49 -242.5t135 -199.5t200 -135.5t243 -49.5 q131 0 244.5 49.5t197.5 135.5t133 199.5t49 242.5t-49 242.5t-133 198.5t-197.5 134.5t-244.5 49.5q-129 0 -243 -49.5t-200 -134.5t-135 -198.5t-49 -242.5zM207 731q0 119 46 224.5t126 184.5t185.5 124t226.5 45q119 0 225 -45t185 -124t125 -184.5t46 -224.5 q0 -121 -46 -227.5t-125 -185t-185 -125t-225 -46.5q-121 0 -226.5 46.5t-185.5 125t-126 185t-46 227.5zM330 664l112 -177q346 -80 699 0l110 177h-921zM451 1063l151 -189q4 -4 15.5 -0.5t23.5 9.5t20.5 12t8.5 8q-29 57 -47.5 118.5t-53.5 111.5q-6 8 -26.5 -0.5 t-42 -22.5t-38 -28.5t-11.5 -18.5zM463 457q20 -35 51 -74t73 -70.5t92.5 -53t111.5 -21.5q59 0 110 21.5t92 53t73 70.5t52 74q-164 -43 -326.5 -42t-328.5 42zM715 731h155l-77 187zM918 903q-4 -2 4 -8t19 -12t23.5 -9.5t18.5 0.5l147 189q4 4 -11 18.5t-36.5 28.5 t-42 22.5t-26.5 0.5q-39 -49 -55.5 -110.5t-40.5 -119.5zM1290 102v23h84v-23h-31v-77h-22v77h-31zM1384 25v100h31l19 -78l18 78h29v-100h-19v77l-20 -77h-19l-20 77v-77h-19z" />
<glyph unicode="&#xf4;" d="M68 731q0 150 56 282t154.5 230t230.5 155.5t282 57.5t281.5 -57.5t230 -155.5t156 -230t57.5 -282t-57.5 -282t-156 -230t-230 -155.5t-281.5 -57.5t-282 57.5t-230.5 155.5t-154.5 230.5t-56 281.5zM164 731q0 -129 49 -242.5t135 -199.5t200 -135.5t243 -49.5 q131 0 244.5 49.5t197.5 135.5t133 199.5t49 242.5t-49 242.5t-133 198.5t-197.5 134.5t-244.5 49.5q-129 0 -243 -49.5t-200 -134.5t-135 -198.5t-49 -242.5zM207 731q0 119 46 224.5t126 184.5t185.5 124t226.5 45q119 0 225 -45t185 -124t125 -184.5t46 -224.5 q0 -121 -46 -227.5t-125 -185t-185 -125t-225 -46.5q-121 0 -226.5 46.5t-185.5 125t-126 185t-46 227.5zM330 664l112 -177q346 -80 699 0l110 177h-921zM451 1063l151 -189q4 -4 15.5 -0.5t23.5 9.5t20.5 12t8.5 8q-29 57 -47.5 118.5t-53.5 111.5q-6 8 -26.5 -0.5 t-42 -22.5t-38 -28.5t-11.5 -18.5zM463 457q20 -35 51 -74t73 -70.5t92.5 -53t111.5 -21.5q59 0 110 21.5t92 53t73 70.5t52 74q-164 -43 -326.5 -42t-328.5 42zM715 731h155l-77 187zM918 903q-4 -2 4 -8t19 -12t23.5 -9.5t18.5 0.5l147 189q4 4 -11 18.5t-36.5 28.5 t-42 22.5t-26.5 0.5q-39 -49 -55.5 -110.5t-40.5 -119.5zM1290 102v23h84v-23h-31v-77h-22v77h-31zM1384 25v100h31l19 -78l18 78h29v-100h-19v77l-20 -77h-19l-20 77v-77h-19z" />
<glyph unicode="&#xf5;" d="M68 731q0 150 56 282t154.5 230t230.5 155.5t282 57.5t281.5 -57.5t230 -155.5t156 -230t57.5 -282t-57.5 -282t-156 -230t-230 -155.5t-281.5 -57.5t-282 57.5t-230.5 155.5t-154.5 230.5t-56 281.5zM164 731q0 -129 49 -242.5t135 -199.5t200 -135.5t243 -49.5 q131 0 244.5 49.5t197.5 135.5t133 199.5t49 242.5t-49 242.5t-133 198.5t-197.5 134.5t-244.5 49.5q-129 0 -243 -49.5t-200 -134.5t-135 -198.5t-49 -242.5zM207 731q0 119 46 224.5t126 184.5t185.5 124t226.5 45q119 0 225 -45t185 -124t125 -184.5t46 -224.5 q0 -121 -46 -227.5t-125 -185t-185 -125t-225 -46.5q-121 0 -226.5 46.5t-185.5 125t-126 185t-46 227.5zM330 664l112 -177q346 -80 699 0l110 177h-921zM451 1063l151 -189q4 -4 15.5 -0.5t23.5 9.5t20.5 12t8.5 8q-29 57 -47.5 118.5t-53.5 111.5q-6 8 -26.5 -0.5 t-42 -22.5t-38 -28.5t-11.5 -18.5zM463 457q20 -35 51 -74t73 -70.5t92.5 -53t111.5 -21.5q59 0 110 21.5t92 53t73 70.5t52 74q-164 -43 -326.5 -42t-328.5 42zM715 731h155l-77 187zM918 903q-4 -2 4 -8t19 -12t23.5 -9.5t18.5 0.5l147 189q4 4 -11 18.5t-36.5 28.5 t-42 22.5t-26.5 0.5q-39 -49 -55.5 -110.5t-40.5 -119.5zM1290 102v23h84v-23h-31v-77h-22v77h-31zM1384 25v100h31l19 -78l18 78h29v-100h-19v77l-20 -77h-19l-20 77v-77h-19z" />
<glyph unicode="&#xf6;" d="M68 731q0 150 56 282t154.5 230t230.5 155.5t282 57.5t281.5 -57.5t230 -155.5t156 -230t57.5 -282t-57.5 -282t-156 -230t-230 -155.5t-281.5 -57.5t-282 57.5t-230.5 155.5t-154.5 230.5t-56 281.5zM164 731q0 -129 49 -242.5t135 -199.5t200 -135.5t243 -49.5 q131 0 244.5 49.5t197.5 135.5t133 199.5t49 242.5t-49 242.5t-133 198.5t-197.5 134.5t-244.5 49.5q-129 0 -243 -49.5t-200 -134.5t-135 -198.5t-49 -242.5zM207 731q0 119 46 224.5t126 184.5t185.5 124t226.5 45q119 0 225 -45t185 -124t125 -184.5t46 -224.5 q0 -121 -46 -227.5t-125 -185t-185 -125t-225 -46.5q-121 0 -226.5 46.5t-185.5 125t-126 185t-46 227.5zM330 664l112 -177q346 -80 699 0l110 177h-921zM451 1063l151 -189q4 -4 15.5 -0.5t23.5 9.5t20.5 12t8.5 8q-29 57 -47.5 118.5t-53.5 111.5q-6 8 -26.5 -0.5 t-42 -22.5t-38 -28.5t-11.5 -18.5zM463 457q20 -35 51 -74t73 -70.5t92.5 -53t111.5 -21.5q59 0 110 21.5t92 53t73 70.5t52 74q-164 -43 -326.5 -42t-328.5 42zM715 731h155l-77 187zM918 903q-4 -2 4 -8t19 -12t23.5 -9.5t18.5 0.5l147 189q4 4 -11 18.5t-36.5 28.5 t-42 22.5t-26.5 0.5q-39 -49 -55.5 -110.5t-40.5 -119.5zM1290 102v23h84v-23h-31v-77h-22v77h-31zM1384 25v100h31l19 -78l18 78h29v-100h-19v77l-20 -77h-19l-20 77v-77h-19z" />
<glyph unicode="&#xf7;" d="M68 731q0 150 56 282t154.5 230t230.5 155.5t282 57.5t281.5 -57.5t230 -155.5t156 -230t57.5 -282t-57.5 -282t-156 -230t-230 -155.5t-281.5 -57.5t-282 57.5t-230.5 155.5t-154.5 230.5t-56 281.5zM164 731q0 -129 49 -242.5t135 -199.5t200 -135.5t243 -49.5 q131 0 244.5 49.5t197.5 135.5t133 199.5t49 242.5t-49 242.5t-133 198.5t-197.5 134.5t-244.5 49.5q-129 0 -243 -49.5t-200 -134.5t-135 -198.5t-49 -242.5zM207 731q0 119 46 224.5t126 184.5t185.5 124t226.5 45q119 0 225 -45t185 -124t125 -184.5t46 -224.5 q0 -121 -46 -227.5t-125 -185t-185 -125t-225 -46.5q-121 0 -226.5 46.5t-185.5 125t-126 185t-46 227.5zM330 664l112 -177q346 -80 699 0l110 177h-921zM451 1063l151 -189q4 -4 15.5 -0.5t23.5 9.5t20.5 12t8.5 8q-29 57 -47.5 118.5t-53.5 111.5q-6 8 -26.5 -0.5 t-42 -22.5t-38 -28.5t-11.5 -18.5zM463 457q20 -35 51 -74t73 -70.5t92.5 -53t111.5 -21.5q59 0 110 21.5t92 53t73 70.5t52 74q-164 -43 -326.5 -42t-328.5 42zM715 731h155l-77 187zM918 903q-4 -2 4 -8t19 -12t23.5 -9.5t18.5 0.5l147 189q4 4 -11 18.5t-36.5 28.5 t-42 22.5t-26.5 0.5q-39 -49 -55.5 -110.5t-40.5 -119.5zM1290 102v23h84v-23h-31v-77h-22v77h-31zM1384 25v100h31l19 -78l18 78h29v-100h-19v77l-20 -77h-19l-20 77v-77h-19z" />
<glyph unicode="&#xf8;" d="M68 731q0 150 56 282t154.5 230t230.5 155.5t282 57.5t281.5 -57.5t230 -155.5t156 -230t57.5 -282t-57.5 -282t-156 -230t-230 -155.5t-281.5 -57.5t-282 57.5t-230.5 155.5t-154.5 230.5t-56 281.5zM164 731q0 -129 49 -242.5t135 -199.5t200 -135.5t243 -49.5 q131 0 244.5 49.5t197.5 135.5t133 199.5t49 242.5t-49 242.5t-133 198.5t-197.5 134.5t-244.5 49.5q-129 0 -243 -49.5t-200 -134.5t-135 -198.5t-49 -242.5zM207 731q0 119 46 224.5t126 184.5t185.5 124t226.5 45q119 0 225 -45t185 -124t125 -184.5t46 -224.5 q0 -121 -46 -227.5t-125 -185t-185 -125t-225 -46.5q-121 0 -226.5 46.5t-185.5 125t-126 185t-46 227.5zM330 664l112 -177q346 -80 699 0l110 177h-921zM451 1063l151 -189q4 -4 15.5 -0.5t23.5 9.5t20.5 12t8.5 8q-29 57 -47.5 118.5t-53.5 111.5q-6 8 -26.5 -0.5 t-42 -22.5t-38 -28.5t-11.5 -18.5zM463 457q20 -35 51 -74t73 -70.5t92.5 -53t111.5 -21.5q59 0 110 21.5t92 53t73 70.5t52 74q-164 -43 -326.5 -42t-328.5 42zM715 731h155l-77 187zM918 903q-4 -2 4 -8t19 -12t23.5 -9.5t18.5 0.5l147 189q4 4 -11 18.5t-36.5 28.5 t-42 22.5t-26.5 0.5q-39 -49 -55.5 -110.5t-40.5 -119.5zM1290 102v23h84v-23h-31v-77h-22v77h-31zM1384 25v100h31l19 -78l18 78h29v-100h-19v77l-20 -77h-19l-20 77v-77h-19z" />
<glyph unicode="&#xf9;" d="M68 731q0 150 56 282t154.5 230t230.5 155.5t282 57.5t281.5 -57.5t230 -155.5t156 -230t57.5 -282t-57.5 -282t-156 -230t-230 -155.5t-281.5 -57.5t-282 57.5t-230.5 155.5t-154.5 230.5t-56 281.5zM164 731q0 -129 49 -242.5t135 -199.5t200 -135.5t243 -49.5 q131 0 244.5 49.5t197.5 135.5t133 199.5t49 242.5t-49 242.5t-133 198.5t-197.5 134.5t-244.5 49.5q-129 0 -243 -49.5t-200 -134.5t-135 -198.5t-49 -242.5zM207 731q0 119 46 224.5t126 184.5t185.5 124t226.5 45q119 0 225 -45t185 -124t125 -184.5t46 -224.5 q0 -121 -46 -227.5t-125 -185t-185 -125t-225 -46.5q-121 0 -226.5 46.5t-185.5 125t-126 185t-46 227.5zM330 664l112 -177q346 -80 699 0l110 177h-921zM451 1063l151 -189q4 -4 15.5 -0.5t23.5 9.5t20.5 12t8.5 8q-29 57 -47.5 118.5t-53.5 111.5q-6 8 -26.5 -0.5 t-42 -22.5t-38 -28.5t-11.5 -18.5zM463 457q20 -35 51 -74t73 -70.5t92.5 -53t111.5 -21.5q59 0 110 21.5t92 53t73 70.5t52 74q-164 -43 -326.5 -42t-328.5 42zM715 731h155l-77 187zM918 903q-4 -2 4 -8t19 -12t23.5 -9.5t18.5 0.5l147 189q4 4 -11 18.5t-36.5 28.5 t-42 22.5t-26.5 0.5q-39 -49 -55.5 -110.5t-40.5 -119.5zM1290 102v23h84v-23h-31v-77h-22v77h-31zM1384 25v100h31l19 -78l18 78h29v-100h-19v77l-20 -77h-19l-20 77v-77h-19z" />
<glyph unicode="&#xfa;" d="M68 731q0 150 56 282t154.5 230t230.5 155.5t282 57.5t281.5 -57.5t230 -155.5t156 -230t57.5 -282t-57.5 -282t-156 -230t-230 -155.5t-281.5 -57.5t-282 57.5t-230.5 155.5t-154.5 230.5t-56 281.5zM164 731q0 -129 49 -242.5t135 -199.5t200 -135.5t243 -49.5 q131 0 244.5 49.5t197.5 135.5t133 199.5t49 242.5t-49 242.5t-133 198.5t-197.5 134.5t-244.5 49.5q-129 0 -243 -49.5t-200 -134.5t-135 -198.5t-49 -242.5zM207 731q0 119 46 224.5t126 184.5t185.5 124t226.5 45q119 0 225 -45t185 -124t125 -184.5t46 -224.5 q0 -121 -46 -227.5t-125 -185t-185 -125t-225 -46.5q-121 0 -226.5 46.5t-185.5 125t-126 185t-46 227.5zM330 664l112 -177q346 -80 699 0l110 177h-921zM451 1063l151 -189q4 -4 15.5 -0.5t23.5 9.5t20.5 12t8.5 8q-29 57 -47.5 118.5t-53.5 111.5q-6 8 -26.5 -0.5 t-42 -22.5t-38 -28.5t-11.5 -18.5zM463 457q20 -35 51 -74t73 -70.5t92.5 -53t111.5 -21.5q59 0 110 21.5t92 53t73 70.5t52 74q-164 -43 -326.5 -42t-328.5 42zM715 731h155l-77 187zM918 903q-4 -2 4 -8t19 -12t23.5 -9.5t18.5 0.5l147 189q4 4 -11 18.5t-36.5 28.5 t-42 22.5t-26.5 0.5q-39 -49 -55.5 -110.5t-40.5 -119.5zM1290 102v23h84v-23h-31v-77h-22v77h-31zM1384 25v100h31l19 -78l18 78h29v-100h-19v77l-20 -77h-19l-20 77v-77h-19z" />
<glyph unicode="&#xfb;" d="M68 731q0 150 56 282t154.5 230t230.5 155.5t282 57.5t281.5 -57.5t230 -155.5t156 -230t57.5 -282t-57.5 -282t-156 -230t-230 -155.5t-281.5 -57.5t-282 57.5t-230.5 155.5t-154.5 230.5t-56 281.5zM164 731q0 -129 49 -242.5t135 -199.5t200 -135.5t243 -49.5 q131 0 244.5 49.5t197.5 135.5t133 199.5t49 242.5t-49 242.5t-133 198.5t-197.5 134.5t-244.5 49.5q-129 0 -243 -49.5t-200 -134.5t-135 -198.5t-49 -242.5zM207 731q0 119 46 224.5t126 184.5t185.5 124t226.5 45q119 0 225 -45t185 -124t125 -184.5t46 -224.5 q0 -121 -46 -227.5t-125 -185t-185 -125t-225 -46.5q-121 0 -226.5 46.5t-185.5 125t-126 185t-46 227.5zM330 664l112 -177q346 -80 699 0l110 177h-921zM451 1063l151 -189q4 -4 15.5 -0.5t23.5 9.5t20.5 12t8.5 8q-29 57 -47.5 118.5t-53.5 111.5q-6 8 -26.5 -0.5 t-42 -22.5t-38 -28.5t-11.5 -18.5zM463 457q20 -35 51 -74t73 -70.5t92.5 -53t111.5 -21.5q59 0 110 21.5t92 53t73 70.5t52 74q-164 -43 -326.5 -42t-328.5 42zM715 731h155l-77 187zM918 903q-4 -2 4 -8t19 -12t23.5 -9.5t18.5 0.5l147 189q4 4 -11 18.5t-36.5 28.5 t-42 22.5t-26.5 0.5q-39 -49 -55.5 -110.5t-40.5 -119.5zM1290 102v23h84v-23h-31v-77h-22v77h-31zM1384 25v100h31l19 -78l18 78h29v-100h-19v77l-20 -77h-19l-20 77v-77h-19z" />
<glyph unicode="&#xfc;" d="M68 731q0 150 56 282t154.5 230t230.5 155.5t282 57.5t281.5 -57.5t230 -155.5t156 -230t57.5 -282t-57.5 -282t-156 -230t-230 -155.5t-281.5 -57.5t-282 57.5t-230.5 155.5t-154.5 230.5t-56 281.5zM164 731q0 -129 49 -242.5t135 -199.5t200 -135.5t243 -49.5 q131 0 244.5 49.5t197.5 135.5t133 199.5t49 242.5t-49 242.5t-133 198.5t-197.5 134.5t-244.5 49.5q-129 0 -243 -49.5t-200 -134.5t-135 -198.5t-49 -242.5zM207 731q0 119 46 224.5t126 184.5t185.5 124t226.5 45q119 0 225 -45t185 -124t125 -184.5t46 -224.5 q0 -121 -46 -227.5t-125 -185t-185 -125t-225 -46.5q-121 0 -226.5 46.5t-185.5 125t-126 185t-46 227.5zM330 664l112 -177q346 -80 699 0l110 177h-921zM451 1063l151 -189q4 -4 15.5 -0.5t23.5 9.5t20.5 12t8.5 8q-29 57 -47.5 118.5t-53.5 111.5q-6 8 -26.5 -0.5 t-42 -22.5t-38 -28.5t-11.5 -18.5zM463 457q20 -35 51 -74t73 -70.5t92.5 -53t111.5 -21.5q59 0 110 21.5t92 53t73 70.5t52 74q-164 -43 -326.5 -42t-328.5 42zM715 731h155l-77 187zM918 903q-4 -2 4 -8t19 -12t23.5 -9.5t18.5 0.5l147 189q4 4 -11 18.5t-36.5 28.5 t-42 22.5t-26.5 0.5q-39 -49 -55.5 -110.5t-40.5 -119.5zM1290 102v23h84v-23h-31v-77h-22v77h-31zM1384 25v100h31l19 -78l18 78h29v-100h-19v77l-20 -77h-19l-20 77v-77h-19z" />
<glyph unicode="&#xfd;" d="M68 731q0 150 56 282t154.5 230t230.5 155.5t282 57.5t281.5 -57.5t230 -155.5t156 -230t57.5 -282t-57.5 -282t-156 -230t-230 -155.5t-281.5 -57.5t-282 57.5t-230.5 155.5t-154.5 230.5t-56 281.5zM164 731q0 -129 49 -242.5t135 -199.5t200 -135.5t243 -49.5 q131 0 244.5 49.5t197.5 135.5t133 199.5t49 242.5t-49 242.5t-133 198.5t-197.5 134.5t-244.5 49.5q-129 0 -243 -49.5t-200 -134.5t-135 -198.5t-49 -242.5zM207 731q0 119 46 224.5t126 184.5t185.5 124t226.5 45q119 0 225 -45t185 -124t125 -184.5t46 -224.5 q0 -121 -46 -227.5t-125 -185t-185 -125t-225 -46.5q-121 0 -226.5 46.5t-185.5 125t-126 185t-46 227.5zM330 664l112 -177q346 -80 699 0l110 177h-921zM451 1063l151 -189q4 -4 15.5 -0.5t23.5 9.5t20.5 12t8.5 8q-29 57 -47.5 118.5t-53.5 111.5q-6 8 -26.5 -0.5 t-42 -22.5t-38 -28.5t-11.5 -18.5zM463 457q20 -35 51 -74t73 -70.5t92.5 -53t111.5 -21.5q59 0 110 21.5t92 53t73 70.5t52 74q-164 -43 -326.5 -42t-328.5 42zM715 731h155l-77 187zM918 903q-4 -2 4 -8t19 -12t23.5 -9.5t18.5 0.5l147 189q4 4 -11 18.5t-36.5 28.5 t-42 22.5t-26.5 0.5q-39 -49 -55.5 -110.5t-40.5 -119.5zM1290 102v23h84v-23h-31v-77h-22v77h-31zM1384 25v100h31l19 -78l18 78h29v-100h-19v77l-20 -77h-19l-20 77v-77h-19z" />
<glyph unicode="&#xfe;" d="M68 731q0 150 56 282t154.5 230t230.5 155.5t282 57.5t281.5 -57.5t230 -155.5t156 -230t57.5 -282t-57.5 -282t-156 -230t-230 -155.5t-281.5 -57.5t-282 57.5t-230.5 155.5t-154.5 230.5t-56 281.5zM164 731q0 -129 49 -242.5t135 -199.5t200 -135.5t243 -49.5 q131 0 244.5 49.5t197.5 135.5t133 199.5t49 242.5t-49 242.5t-133 198.5t-197.5 134.5t-244.5 49.5q-129 0 -243 -49.5t-200 -134.5t-135 -198.5t-49 -242.5zM207 731q0 119 46 224.5t126 184.5t185.5 124t226.5 45q119 0 225 -45t185 -124t125 -184.5t46 -224.5 q0 -121 -46 -227.5t-125 -185t-185 -125t-225 -46.5q-121 0 -226.5 46.5t-185.5 125t-126 185t-46 227.5zM330 664l112 -177q346 -80 699 0l110 177h-921zM451 1063l151 -189q4 -4 15.5 -0.5t23.5 9.5t20.5 12t8.5 8q-29 57 -47.5 118.5t-53.5 111.5q-6 8 -26.5 -0.5 t-42 -22.5t-38 -28.5t-11.5 -18.5zM463 457q20 -35 51 -74t73 -70.5t92.5 -53t111.5 -21.5q59 0 110 21.5t92 53t73 70.5t52 74q-164 -43 -326.5 -42t-328.5 42zM715 731h155l-77 187zM918 903q-4 -2 4 -8t19 -12t23.5 -9.5t18.5 0.5l147 189q4 4 -11 18.5t-36.5 28.5 t-42 22.5t-26.5 0.5q-39 -49 -55.5 -110.5t-40.5 -119.5zM1290 102v23h84v-23h-31v-77h-22v77h-31zM1384 25v100h31l19 -78l18 78h29v-100h-19v77l-20 -77h-19l-20 77v-77h-19z" />
<glyph unicode="&#xff;" d="M68 731q0 150 56 282t154.5 230t230.5 155.5t282 57.5t281.5 -57.5t230 -155.5t156 -230t57.5 -282t-57.5 -282t-156 -230t-230 -155.5t-281.5 -57.5t-282 57.5t-230.5 155.5t-154.5 230.5t-56 281.5zM164 731q0 -129 49 -242.5t135 -199.5t200 -135.5t243 -49.5 q131 0 244.5 49.5t197.5 135.5t133 199.5t49 242.5t-49 242.5t-133 198.5t-197.5 134.5t-244.5 49.5q-129 0 -243 -49.5t-200 -134.5t-135 -198.5t-49 -242.5zM207 731q0 119 46 224.5t126 184.5t185.5 124t226.5 45q119 0 225 -45t185 -124t125 -184.5t46 -224.5 q0 -121 -46 -227.5t-125 -185t-185 -125t-225 -46.5q-121 0 -226.5 46.5t-185.5 125t-126 185t-46 227.5zM330 664l112 -177q346 -80 699 0l110 177h-921zM451 1063l151 -189q4 -4 15.5 -0.5t23.5 9.5t20.5 12t8.5 8q-29 57 -47.5 118.5t-53.5 111.5q-6 8 -26.5 -0.5 t-42 -22.5t-38 -28.5t-11.5 -18.5zM463 457q20 -35 51 -74t73 -70.5t92.5 -53t111.5 -21.5q59 0 110 21.5t92 53t73 70.5t52 74q-164 -43 -326.5 -42t-328.5 42zM715 731h155l-77 187zM918 903q-4 -2 4 -8t19 -12t23.5 -9.5t18.5 0.5l147 189q4 4 -11 18.5t-36.5 28.5 t-42 22.5t-26.5 0.5q-39 -49 -55.5 -110.5t-40.5 -119.5zM1290 102v23h84v-23h-31v-77h-22v77h-31zM1384 25v100h31l19 -78l18 78h29v-100h-19v77l-20 -77h-19l-20 77v-77h-19z" />
<glyph unicode="&#x152;" d="M68 731q0 150 56 282t154.5 230t230.5 155.5t282 57.5t281.5 -57.5t230 -155.5t156 -230t57.5 -282t-57.5 -282t-156 -230t-230 -155.5t-281.5 -57.5t-282 57.5t-230.5 155.5t-154.5 230.5t-56 281.5zM164 731q0 -129 49 -242.5t135 -199.5t200 -135.5t243 -49.5 q131 0 244.5 49.5t197.5 135.5t133 199.5t49 242.5t-49 242.5t-133 198.5t-197.5 134.5t-244.5 49.5q-129 0 -243 -49.5t-200 -134.5t-135 -198.5t-49 -242.5zM207 731q0 119 46 224.5t126 184.5t185.5 124t226.5 45q119 0 225 -45t185 -124t125 -184.5t46 -224.5 q0 -121 -46 -227.5t-125 -185t-185 -125t-225 -46.5q-121 0 -226.5 46.5t-185.5 125t-126 185t-46 227.5zM330 664l112 -177q346 -80 699 0l110 177h-921zM451 1063l151 -189q4 -4 15.5 -0.5t23.5 9.5t20.5 12t8.5 8q-29 57 -47.5 118.5t-53.5 111.5q-6 8 -26.5 -0.5 t-42 -22.5t-38 -28.5t-11.5 -18.5zM463 457q20 -35 51 -74t73 -70.5t92.5 -53t111.5 -21.5q59 0 110 21.5t92 53t73 70.5t52 74q-164 -43 -326.5 -42t-328.5 42zM715 731h155l-77 187zM918 903q-4 -2 4 -8t19 -12t23.5 -9.5t18.5 0.5l147 189q4 4 -11 18.5t-36.5 28.5 t-42 22.5t-26.5 0.5q-39 -49 -55.5 -110.5t-40.5 -119.5zM1290 102v23h84v-23h-31v-77h-22v77h-31zM1384 25v100h31l19 -78l18 78h29v-100h-19v77l-20 -77h-19l-20 77v-77h-19z" />
<glyph unicode="&#x153;" d="M68 731q0 150 56 282t154.5 230t230.5 155.5t282 57.5t281.5 -57.5t230 -155.5t156 -230t57.5 -282t-57.5 -282t-156 -230t-230 -155.5t-281.5 -57.5t-282 57.5t-230.5 155.5t-154.5 230.5t-56 281.5zM164 731q0 -129 49 -242.5t135 -199.5t200 -135.5t243 -49.5 q131 0 244.5 49.5t197.5 135.5t133 199.5t49 242.5t-49 242.5t-133 198.5t-197.5 134.5t-244.5 49.5q-129 0 -243 -49.5t-200 -134.5t-135 -198.5t-49 -242.5zM207 731q0 119 46 224.5t126 184.5t185.5 124t226.5 45q119 0 225 -45t185 -124t125 -184.5t46 -224.5 q0 -121 -46 -227.5t-125 -185t-185 -125t-225 -46.5q-121 0 -226.5 46.5t-185.5 125t-126 185t-46 227.5zM330 664l112 -177q346 -80 699 0l110 177h-921zM451 1063l151 -189q4 -4 15.5 -0.5t23.5 9.5t20.5 12t8.5 8q-29 57 -47.5 118.5t-53.5 111.5q-6 8 -26.5 -0.5 t-42 -22.5t-38 -28.5t-11.5 -18.5zM463 457q20 -35 51 -74t73 -70.5t92.5 -53t111.5 -21.5q59 0 110 21.5t92 53t73 70.5t52 74q-164 -43 -326.5 -42t-328.5 42zM715 731h155l-77 187zM918 903q-4 -2 4 -8t19 -12t23.5 -9.5t18.5 0.5l147 189q4 4 -11 18.5t-36.5 28.5 t-42 22.5t-26.5 0.5q-39 -49 -55.5 -110.5t-40.5 -119.5zM1290 102v23h84v-23h-31v-77h-22v77h-31zM1384 25v100h31l19 -78l18 78h29v-100h-19v77l-20 -77h-19l-20 77v-77h-19z" />
<glyph unicode="&#x178;" d="M68 731q0 150 56 282t154.5 230t230.5 155.5t282 57.5t281.5 -57.5t230 -155.5t156 -230t57.5 -282t-57.5 -282t-156 -230t-230 -155.5t-281.5 -57.5t-282 57.5t-230.5 155.5t-154.5 230.5t-56 281.5zM164 731q0 -129 49 -242.5t135 -199.5t200 -135.5t243 -49.5 q131 0 244.5 49.5t197.5 135.5t133 199.5t49 242.5t-49 242.5t-133 198.5t-197.5 134.5t-244.5 49.5q-129 0 -243 -49.5t-200 -134.5t-135 -198.5t-49 -242.5zM207 731q0 119 46 224.5t126 184.5t185.5 124t226.5 45q119 0 225 -45t185 -124t125 -184.5t46 -224.5 q0 -121 -46 -227.5t-125 -185t-185 -125t-225 -46.5q-121 0 -226.5 46.5t-185.5 125t-126 185t-46 227.5zM330 664l112 -177q346 -80 699 0l110 177h-921zM451 1063l151 -189q4 -4 15.5 -0.5t23.5 9.5t20.5 12t8.5 8q-29 57 -47.5 118.5t-53.5 111.5q-6 8 -26.5 -0.5 t-42 -22.5t-38 -28.5t-11.5 -18.5zM463 457q20 -35 51 -74t73 -70.5t92.5 -53t111.5 -21.5q59 0 110 21.5t92 53t73 70.5t52 74q-164 -43 -326.5 -42t-328.5 42zM715 731h155l-77 187zM918 903q-4 -2 4 -8t19 -12t23.5 -9.5t18.5 0.5l147 189q4 4 -11 18.5t-36.5 28.5 t-42 22.5t-26.5 0.5q-39 -49 -55.5 -110.5t-40.5 -119.5zM1290 102v23h84v-23h-31v-77h-22v77h-31zM1384 25v100h31l19 -78l18 78h29v-100h-19v77l-20 -77h-19l-20 77v-77h-19z" />
<glyph unicode="&#x2c6;" d="M68 731q0 150 56 282t154.5 230t230.5 155.5t282 57.5t281.5 -57.5t230 -155.5t156 -230t57.5 -282t-57.5 -282t-156 -230t-230 -155.5t-281.5 -57.5t-282 57.5t-230.5 155.5t-154.5 230.5t-56 281.5zM164 731q0 -129 49 -242.5t135 -199.5t200 -135.5t243 -49.5 q131 0 244.5 49.5t197.5 135.5t133 199.5t49 242.5t-49 242.5t-133 198.5t-197.5 134.5t-244.5 49.5q-129 0 -243 -49.5t-200 -134.5t-135 -198.5t-49 -242.5zM207 731q0 119 46 224.5t126 184.5t185.5 124t226.5 45q119 0 225 -45t185 -124t125 -184.5t46 -224.5 q0 -121 -46 -227.5t-125 -185t-185 -125t-225 -46.5q-121 0 -226.5 46.5t-185.5 125t-126 185t-46 227.5zM330 664l112 -177q346 -80 699 0l110 177h-921zM451 1063l151 -189q4 -4 15.5 -0.5t23.5 9.5t20.5 12t8.5 8q-29 57 -47.5 118.5t-53.5 111.5q-6 8 -26.5 -0.5 t-42 -22.5t-38 -28.5t-11.5 -18.5zM463 457q20 -35 51 -74t73 -70.5t92.5 -53t111.5 -21.5q59 0 110 21.5t92 53t73 70.5t52 74q-164 -43 -326.5 -42t-328.5 42zM715 731h155l-77 187zM918 903q-4 -2 4 -8t19 -12t23.5 -9.5t18.5 0.5l147 189q4 4 -11 18.5t-36.5 28.5 t-42 22.5t-26.5 0.5q-39 -49 -55.5 -110.5t-40.5 -119.5zM1290 102v23h84v-23h-31v-77h-22v77h-31zM1384 25v100h31l19 -78l18 78h29v-100h-19v77l-20 -77h-19l-20 77v-77h-19z" />
<glyph unicode="&#x2dc;" d="M68 731q0 150 56 282t154.5 230t230.5 155.5t282 57.5t281.5 -57.5t230 -155.5t156 -230t57.5 -282t-57.5 -282t-156 -230t-230 -155.5t-281.5 -57.5t-282 57.5t-230.5 155.5t-154.5 230.5t-56 281.5zM164 731q0 -129 49 -242.5t135 -199.5t200 -135.5t243 -49.5 q131 0 244.5 49.5t197.5 135.5t133 199.5t49 242.5t-49 242.5t-133 198.5t-197.5 134.5t-244.5 49.5q-129 0 -243 -49.5t-200 -134.5t-135 -198.5t-49 -242.5zM207 731q0 119 46 224.5t126 184.5t185.5 124t226.5 45q119 0 225 -45t185 -124t125 -184.5t46 -224.5 q0 -121 -46 -227.5t-125 -185t-185 -125t-225 -46.5q-121 0 -226.5 46.5t-185.5 125t-126 185t-46 227.5zM330 664l112 -177q346 -80 699 0l110 177h-921zM451 1063l151 -189q4 -4 15.5 -0.5t23.5 9.5t20.5 12t8.5 8q-29 57 -47.5 118.5t-53.5 111.5q-6 8 -26.5 -0.5 t-42 -22.5t-38 -28.5t-11.5 -18.5zM463 457q20 -35 51 -74t73 -70.5t92.5 -53t111.5 -21.5q59 0 110 21.5t92 53t73 70.5t52 74q-164 -43 -326.5 -42t-328.5 42zM715 731h155l-77 187zM918 903q-4 -2 4 -8t19 -12t23.5 -9.5t18.5 0.5l147 189q4 4 -11 18.5t-36.5 28.5 t-42 22.5t-26.5 0.5q-39 -49 -55.5 -110.5t-40.5 -119.5zM1290 102v23h84v-23h-31v-77h-22v77h-31zM1384 25v100h31l19 -78l18 78h29v-100h-19v77l-20 -77h-19l-20 77v-77h-19z" />
<glyph unicode="&#x2000;" horiz-adv-x="733" />
<glyph unicode="&#x2001;" horiz-adv-x="1466" />
<glyph unicode="&#x2002;" horiz-adv-x="733" />
<glyph unicode="&#x2003;" horiz-adv-x="1466" />
<glyph unicode="&#x2004;" horiz-adv-x="488" />
<glyph unicode="&#x2005;" horiz-adv-x="366" />
<glyph unicode="&#x2006;" horiz-adv-x="244" />
<glyph unicode="&#x2007;" horiz-adv-x="244" />
<glyph unicode="&#x2008;" horiz-adv-x="183" />
<glyph unicode="&#x2009;" horiz-adv-x="293" />
<glyph unicode="&#x200a;" horiz-adv-x="81" />
<glyph unicode="&#x2010;" horiz-adv-x="647" d="M88 647q0 14 3 34.5t12.5 40t29 35t49.5 17.5q43 4 95.5 6t101.5 1t92 -5t70 -10q27 -33 33 -67.5t6 -82.5q0 -29 -7.5 -57.5t-19.5 -40.5q-43 6 -102.5 9t-121 3t-117.5 -4t-95 -10q-14 18 -21.5 57t-7.5 74z" />
<glyph unicode="&#x2011;" horiz-adv-x="647" d="M88 647q0 14 3 34.5t12.5 40t29 35t49.5 17.5q43 4 95.5 6t101.5 1t92 -5t70 -10q27 -33 33 -67.5t6 -82.5q0 -29 -7.5 -57.5t-19.5 -40.5q-43 6 -102.5 9t-121 3t-117.5 -4t-95 -10q-14 18 -21.5 57t-7.5 74z" />
<glyph unicode="&#x2012;" horiz-adv-x="647" d="M88 647q0 14 3 34.5t12.5 40t29 35t49.5 17.5q43 4 95.5 6t101.5 1t92 -5t70 -10q27 -33 33 -67.5t6 -82.5q0 -29 -7.5 -57.5t-19.5 -40.5q-43 6 -102.5 9t-121 3t-117.5 -4t-95 -10q-14 18 -21.5 57t-7.5 74z" />
<glyph unicode="&#x2013;" d="M68 731q0 150 56 282t154.5 230t230.5 155.5t282 57.5t281.5 -57.5t230 -155.5t156 -230t57.5 -282t-57.5 -282t-156 -230t-230 -155.5t-281.5 -57.5t-282 57.5t-230.5 155.5t-154.5 230.5t-56 281.5zM164 731q0 -129 49 -242.5t135 -199.5t200 -135.5t243 -49.5 q131 0 244.5 49.5t197.5 135.5t133 199.5t49 242.5t-49 242.5t-133 198.5t-197.5 134.5t-244.5 49.5q-129 0 -243 -49.5t-200 -134.5t-135 -198.5t-49 -242.5zM207 731q0 119 46 224.5t126 184.5t185.5 124t226.5 45q119 0 225 -45t185 -124t125 -184.5t46 -224.5 q0 -121 -46 -227.5t-125 -185t-185 -125t-225 -46.5q-121 0 -226.5 46.5t-185.5 125t-126 185t-46 227.5zM330 664l112 -177q346 -80 699 0l110 177h-921zM451 1063l151 -189q4 -4 15.5 -0.5t23.5 9.5t20.5 12t8.5 8q-29 57 -47.5 118.5t-53.5 111.5q-6 8 -26.5 -0.5 t-42 -22.5t-38 -28.5t-11.5 -18.5zM463 457q20 -35 51 -74t73 -70.5t92.5 -53t111.5 -21.5q59 0 110 21.5t92 53t73 70.5t52 74q-164 -43 -326.5 -42t-328.5 42zM715 731h155l-77 187zM918 903q-4 -2 4 -8t19 -12t23.5 -9.5t18.5 0.5l147 189q4 4 -11 18.5t-36.5 28.5 t-42 22.5t-26.5 0.5q-39 -49 -55.5 -110.5t-40.5 -119.5zM1290 102v23h84v-23h-31v-77h-22v77h-31zM1384 25v100h31l19 -78l18 78h29v-100h-19v77l-20 -77h-19l-20 77v-77h-19z" />
<glyph unicode="&#x2014;" d="M68 731q0 150 56 282t154.5 230t230.5 155.5t282 57.5t281.5 -57.5t230 -155.5t156 -230t57.5 -282t-57.5 -282t-156 -230t-230 -155.5t-281.5 -57.5t-282 57.5t-230.5 155.5t-154.5 230.5t-56 281.5zM164 731q0 -129 49 -242.5t135 -199.5t200 -135.5t243 -49.5 q131 0 244.5 49.5t197.5 135.5t133 199.5t49 242.5t-49 242.5t-133 198.5t-197.5 134.5t-244.5 49.5q-129 0 -243 -49.5t-200 -134.5t-135 -198.5t-49 -242.5zM207 731q0 119 46 224.5t126 184.5t185.5 124t226.5 45q119 0 225 -45t185 -124t125 -184.5t46 -224.5 q0 -121 -46 -227.5t-125 -185t-185 -125t-225 -46.5q-121 0 -226.5 46.5t-185.5 125t-126 185t-46 227.5zM330 664l112 -177q346 -80 699 0l110 177h-921zM451 1063l151 -189q4 -4 15.5 -0.5t23.5 9.5t20.5 12t8.5 8q-29 57 -47.5 118.5t-53.5 111.5q-6 8 -26.5 -0.5 t-42 -22.5t-38 -28.5t-11.5 -18.5zM463 457q20 -35 51 -74t73 -70.5t92.5 -53t111.5 -21.5q59 0 110 21.5t92 53t73 70.5t52 74q-164 -43 -326.5 -42t-328.5 42zM715 731h155l-77 187zM918 903q-4 -2 4 -8t19 -12t23.5 -9.5t18.5 0.5l147 189q4 4 -11 18.5t-36.5 28.5 t-42 22.5t-26.5 0.5q-39 -49 -55.5 -110.5t-40.5 -119.5zM1290 102v23h84v-23h-31v-77h-22v77h-31zM1384 25v100h31l19 -78l18 78h29v-100h-19v77l-20 -77h-19l-20 77v-77h-19z" />
<glyph unicode="&#x2018;" d="M68 731q0 150 56 282t154.5 230t230.5 155.5t282 57.5t281.5 -57.5t230 -155.5t156 -230t57.5 -282t-57.5 -282t-156 -230t-230 -155.5t-281.5 -57.5t-282 57.5t-230.5 155.5t-154.5 230.5t-56 281.5zM164 731q0 -129 49 -242.5t135 -199.5t200 -135.5t243 -49.5 q131 0 244.5 49.5t197.5 135.5t133 199.5t49 242.5t-49 242.5t-133 198.5t-197.5 134.5t-244.5 49.5q-129 0 -243 -49.5t-200 -134.5t-135 -198.5t-49 -242.5zM207 731q0 119 46 224.5t126 184.5t185.5 124t226.5 45q119 0 225 -45t185 -124t125 -184.5t46 -224.5 q0 -121 -46 -227.5t-125 -185t-185 -125t-225 -46.5q-121 0 -226.5 46.5t-185.5 125t-126 185t-46 227.5zM330 664l112 -177q346 -80 699 0l110 177h-921zM451 1063l151 -189q4 -4 15.5 -0.5t23.5 9.5t20.5 12t8.5 8q-29 57 -47.5 118.5t-53.5 111.5q-6 8 -26.5 -0.5 t-42 -22.5t-38 -28.5t-11.5 -18.5zM463 457q20 -35 51 -74t73 -70.5t92.5 -53t111.5 -21.5q59 0 110 21.5t92 53t73 70.5t52 74q-164 -43 -326.5 -42t-328.5 42zM715 731h155l-77 187zM918 903q-4 -2 4 -8t19 -12t23.5 -9.5t18.5 0.5l147 189q4 4 -11 18.5t-36.5 28.5 t-42 22.5t-26.5 0.5q-39 -49 -55.5 -110.5t-40.5 -119.5zM1290 102v23h84v-23h-31v-77h-22v77h-31zM1384 25v100h31l19 -78l18 78h29v-100h-19v77l-20 -77h-19l-20 77v-77h-19z" />
<glyph unicode="&#x2019;" d="M68 731q0 150 56 282t154.5 230t230.5 155.5t282 57.5t281.5 -57.5t230 -155.5t156 -230t57.5 -282t-57.5 -282t-156 -230t-230 -155.5t-281.5 -57.5t-282 57.5t-230.5 155.5t-154.5 230.5t-56 281.5zM164 731q0 -129 49 -242.5t135 -199.5t200 -135.5t243 -49.5 q131 0 244.5 49.5t197.5 135.5t133 199.5t49 242.5t-49 242.5t-133 198.5t-197.5 134.5t-244.5 49.5q-129 0 -243 -49.5t-200 -134.5t-135 -198.5t-49 -242.5zM207 731q0 119 46 224.5t126 184.5t185.5 124t226.5 45q119 0 225 -45t185 -124t125 -184.5t46 -224.5 q0 -121 -46 -227.5t-125 -185t-185 -125t-225 -46.5q-121 0 -226.5 46.5t-185.5 125t-126 185t-46 227.5zM330 664l112 -177q346 -80 699 0l110 177h-921zM451 1063l151 -189q4 -4 15.5 -0.5t23.5 9.5t20.5 12t8.5 8q-29 57 -47.5 118.5t-53.5 111.5q-6 8 -26.5 -0.5 t-42 -22.5t-38 -28.5t-11.5 -18.5zM463 457q20 -35 51 -74t73 -70.5t92.5 -53t111.5 -21.5q59 0 110 21.5t92 53t73 70.5t52 74q-164 -43 -326.5 -42t-328.5 42zM715 731h155l-77 187zM918 903q-4 -2 4 -8t19 -12t23.5 -9.5t18.5 0.5l147 189q4 4 -11 18.5t-36.5 28.5 t-42 22.5t-26.5 0.5q-39 -49 -55.5 -110.5t-40.5 -119.5zM1290 102v23h84v-23h-31v-77h-22v77h-31zM1384 25v100h31l19 -78l18 78h29v-100h-19v77l-20 -77h-19l-20 77v-77h-19z" />
<glyph unicode="&#x201a;" d="M68 731q0 150 56 282t154.5 230t230.5 155.5t282 57.5t281.5 -57.5t230 -155.5t156 -230t57.5 -282t-57.5 -282t-156 -230t-230 -155.5t-281.5 -57.5t-282 57.5t-230.5 155.5t-154.5 230.5t-56 281.5zM164 731q0 -129 49 -242.5t135 -199.5t200 -135.5t243 -49.5 q131 0 244.5 49.5t197.5 135.5t133 199.5t49 242.5t-49 242.5t-133 198.5t-197.5 134.5t-244.5 49.5q-129 0 -243 -49.5t-200 -134.5t-135 -198.5t-49 -242.5zM207 731q0 119 46 224.5t126 184.5t185.5 124t226.5 45q119 0 225 -45t185 -124t125 -184.5t46 -224.5 q0 -121 -46 -227.5t-125 -185t-185 -125t-225 -46.5q-121 0 -226.5 46.5t-185.5 125t-126 185t-46 227.5zM330 664l112 -177q346 -80 699 0l110 177h-921zM451 1063l151 -189q4 -4 15.5 -0.5t23.5 9.5t20.5 12t8.5 8q-29 57 -47.5 118.5t-53.5 111.5q-6 8 -26.5 -0.5 t-42 -22.5t-38 -28.5t-11.5 -18.5zM463 457q20 -35 51 -74t73 -70.5t92.5 -53t111.5 -21.5q59 0 110 21.5t92 53t73 70.5t52 74q-164 -43 -326.5 -42t-328.5 42zM715 731h155l-77 187zM918 903q-4 -2 4 -8t19 -12t23.5 -9.5t18.5 0.5l147 189q4 4 -11 18.5t-36.5 28.5 t-42 22.5t-26.5 0.5q-39 -49 -55.5 -110.5t-40.5 -119.5zM1290 102v23h84v-23h-31v-77h-22v77h-31zM1384 25v100h31l19 -78l18 78h29v-100h-19v77l-20 -77h-19l-20 77v-77h-19z" />
<glyph unicode="&#x201c;" d="M68 731q0 150 56 282t154.5 230t230.5 155.5t282 57.5t281.5 -57.5t230 -155.5t156 -230t57.5 -282t-57.5 -282t-156 -230t-230 -155.5t-281.5 -57.5t-282 57.5t-230.5 155.5t-154.5 230.5t-56 281.5zM164 731q0 -129 49 -242.5t135 -199.5t200 -135.5t243 -49.5 q131 0 244.5 49.5t197.5 135.5t133 199.5t49 242.5t-49 242.5t-133 198.5t-197.5 134.5t-244.5 49.5q-129 0 -243 -49.5t-200 -134.5t-135 -198.5t-49 -242.5zM207 731q0 119 46 224.5t126 184.5t185.5 124t226.5 45q119 0 225 -45t185 -124t125 -184.5t46 -224.5 q0 -121 -46 -227.5t-125 -185t-185 -125t-225 -46.5q-121 0 -226.5 46.5t-185.5 125t-126 185t-46 227.5zM330 664l112 -177q346 -80 699 0l110 177h-921zM451 1063l151 -189q4 -4 15.5 -0.5t23.5 9.5t20.5 12t8.5 8q-29 57 -47.5 118.5t-53.5 111.5q-6 8 -26.5 -0.5 t-42 -22.5t-38 -28.5t-11.5 -18.5zM463 457q20 -35 51 -74t73 -70.5t92.5 -53t111.5 -21.5q59 0 110 21.5t92 53t73 70.5t52 74q-164 -43 -326.5 -42t-328.5 42zM715 731h155l-77 187zM918 903q-4 -2 4 -8t19 -12t23.5 -9.5t18.5 0.5l147 189q4 4 -11 18.5t-36.5 28.5 t-42 22.5t-26.5 0.5q-39 -49 -55.5 -110.5t-40.5 -119.5zM1290 102v23h84v-23h-31v-77h-22v77h-31zM1384 25v100h31l19 -78l18 78h29v-100h-19v77l-20 -77h-19l-20 77v-77h-19z" />
<glyph unicode="&#x201d;" d="M68 731q0 150 56 282t154.5 230t230.5 155.5t282 57.5t281.5 -57.5t230 -155.5t156 -230t57.5 -282t-57.5 -282t-156 -230t-230 -155.5t-281.5 -57.5t-282 57.5t-230.5 155.5t-154.5 230.5t-56 281.5zM164 731q0 -129 49 -242.5t135 -199.5t200 -135.5t243 -49.5 q131 0 244.5 49.5t197.5 135.5t133 199.5t49 242.5t-49 242.5t-133 198.5t-197.5 134.5t-244.5 49.5q-129 0 -243 -49.5t-200 -134.5t-135 -198.5t-49 -242.5zM207 731q0 119 46 224.5t126 184.5t185.5 124t226.5 45q119 0 225 -45t185 -124t125 -184.5t46 -224.5 q0 -121 -46 -227.5t-125 -185t-185 -125t-225 -46.5q-121 0 -226.5 46.5t-185.5 125t-126 185t-46 227.5zM330 664l112 -177q346 -80 699 0l110 177h-921zM451 1063l151 -189q4 -4 15.5 -0.5t23.5 9.5t20.5 12t8.5 8q-29 57 -47.5 118.5t-53.5 111.5q-6 8 -26.5 -0.5 t-42 -22.5t-38 -28.5t-11.5 -18.5zM463 457q20 -35 51 -74t73 -70.5t92.5 -53t111.5 -21.5q59 0 110 21.5t92 53t73 70.5t52 74q-164 -43 -326.5 -42t-328.5 42zM715 731h155l-77 187zM918 903q-4 -2 4 -8t19 -12t23.5 -9.5t18.5 0.5l147 189q4 4 -11 18.5t-36.5 28.5 t-42 22.5t-26.5 0.5q-39 -49 -55.5 -110.5t-40.5 -119.5zM1290 102v23h84v-23h-31v-77h-22v77h-31zM1384 25v100h31l19 -78l18 78h29v-100h-19v77l-20 -77h-19l-20 77v-77h-19z" />
<glyph unicode="&#x201e;" d="M68 731q0 150 56 282t154.5 230t230.5 155.5t282 57.5t281.5 -57.5t230 -155.5t156 -230t57.5 -282t-57.5 -282t-156 -230t-230 -155.5t-281.5 -57.5t-282 57.5t-230.5 155.5t-154.5 230.5t-56 281.5zM164 731q0 -129 49 -242.5t135 -199.5t200 -135.5t243 -49.5 q131 0 244.5 49.5t197.5 135.5t133 199.5t49 242.5t-49 242.5t-133 198.5t-197.5 134.5t-244.5 49.5q-129 0 -243 -49.5t-200 -134.5t-135 -198.5t-49 -242.5zM207 731q0 119 46 224.5t126 184.5t185.5 124t226.5 45q119 0 225 -45t185 -124t125 -184.5t46 -224.5 q0 -121 -46 -227.5t-125 -185t-185 -125t-225 -46.5q-121 0 -226.5 46.5t-185.5 125t-126 185t-46 227.5zM330 664l112 -177q346 -80 699 0l110 177h-921zM451 1063l151 -189q4 -4 15.5 -0.5t23.5 9.5t20.5 12t8.5 8q-29 57 -47.5 118.5t-53.5 111.5q-6 8 -26.5 -0.5 t-42 -22.5t-38 -28.5t-11.5 -18.5zM463 457q20 -35 51 -74t73 -70.5t92.5 -53t111.5 -21.5q59 0 110 21.5t92 53t73 70.5t52 74q-164 -43 -326.5 -42t-328.5 42zM715 731h155l-77 187zM918 903q-4 -2 4 -8t19 -12t23.5 -9.5t18.5 0.5l147 189q4 4 -11 18.5t-36.5 28.5 t-42 22.5t-26.5 0.5q-39 -49 -55.5 -110.5t-40.5 -119.5zM1290 102v23h84v-23h-31v-77h-22v77h-31zM1384 25v100h31l19 -78l18 78h29v-100h-19v77l-20 -77h-19l-20 77v-77h-19z" />
<glyph unicode="&#x2022;" d="M68 731q0 150 56 282t154.5 230t230.5 155.5t282 57.5t281.5 -57.5t230 -155.5t156 -230t57.5 -282t-57.5 -282t-156 -230t-230 -155.5t-281.5 -57.5t-282 57.5t-230.5 155.5t-154.5 230.5t-56 281.5zM164 731q0 -129 49 -242.5t135 -199.5t200 -135.5t243 -49.5 q131 0 244.5 49.5t197.5 135.5t133 199.5t49 242.5t-49 242.5t-133 198.5t-197.5 134.5t-244.5 49.5q-129 0 -243 -49.5t-200 -134.5t-135 -198.5t-49 -242.5zM207 731q0 119 46 224.5t126 184.5t185.5 124t226.5 45q119 0 225 -45t185 -124t125 -184.5t46 -224.5 q0 -121 -46 -227.5t-125 -185t-185 -125t-225 -46.5q-121 0 -226.5 46.5t-185.5 125t-126 185t-46 227.5zM330 664l112 -177q346 -80 699 0l110 177h-921zM451 1063l151 -189q4 -4 15.5 -0.5t23.5 9.5t20.5 12t8.5 8q-29 57 -47.5 118.5t-53.5 111.5q-6 8 -26.5 -0.5 t-42 -22.5t-38 -28.5t-11.5 -18.5zM463 457q20 -35 51 -74t73 -70.5t92.5 -53t111.5 -21.5q59 0 110 21.5t92 53t73 70.5t52 74q-164 -43 -326.5 -42t-328.5 42zM715 731h155l-77 187zM918 903q-4 -2 4 -8t19 -12t23.5 -9.5t18.5 0.5l147 189q4 4 -11 18.5t-36.5 28.5 t-42 22.5t-26.5 0.5q-39 -49 -55.5 -110.5t-40.5 -119.5zM1290 102v23h84v-23h-31v-77h-22v77h-31zM1384 25v100h31l19 -78l18 78h29v-100h-19v77l-20 -77h-19l-20 77v-77h-19z" />
<glyph unicode="&#x2026;" d="M68 731q0 150 56 282t154.5 230t230.5 155.5t282 57.5t281.5 -57.5t230 -155.5t156 -230t57.5 -282t-57.5 -282t-156 -230t-230 -155.5t-281.5 -57.5t-282 57.5t-230.5 155.5t-154.5 230.5t-56 281.5zM164 731q0 -129 49 -242.5t135 -199.5t200 -135.5t243 -49.5 q131 0 244.5 49.5t197.5 135.5t133 199.5t49 242.5t-49 242.5t-133 198.5t-197.5 134.5t-244.5 49.5q-129 0 -243 -49.5t-200 -134.5t-135 -198.5t-49 -242.5zM207 731q0 119 46 224.5t126 184.5t185.5 124t226.5 45q119 0 225 -45t185 -124t125 -184.5t46 -224.5 q0 -121 -46 -227.5t-125 -185t-185 -125t-225 -46.5q-121 0 -226.5 46.5t-185.5 125t-126 185t-46 227.5zM330 664l112 -177q346 -80 699 0l110 177h-921zM451 1063l151 -189q4 -4 15.5 -0.5t23.5 9.5t20.5 12t8.5 8q-29 57 -47.5 118.5t-53.5 111.5q-6 8 -26.5 -0.5 t-42 -22.5t-38 -28.5t-11.5 -18.5zM463 457q20 -35 51 -74t73 -70.5t92.5 -53t111.5 -21.5q59 0 110 21.5t92 53t73 70.5t52 74q-164 -43 -326.5 -42t-328.5 42zM715 731h155l-77 187zM918 903q-4 -2 4 -8t19 -12t23.5 -9.5t18.5 0.5l147 189q4 4 -11 18.5t-36.5 28.5 t-42 22.5t-26.5 0.5q-39 -49 -55.5 -110.5t-40.5 -119.5zM1290 102v23h84v-23h-31v-77h-22v77h-31zM1384 25v100h31l19 -78l18 78h29v-100h-19v77l-20 -77h-19l-20 77v-77h-19z" />
<glyph unicode="&#x202f;" horiz-adv-x="293" />
<glyph unicode="&#x2039;" d="M68 731q0 150 56 282t154.5 230t230.5 155.5t282 57.5t281.5 -57.5t230 -155.5t156 -230t57.5 -282t-57.5 -282t-156 -230t-230 -155.5t-281.5 -57.5t-282 57.5t-230.5 155.5t-154.5 230.5t-56 281.5zM164 731q0 -129 49 -242.5t135 -199.5t200 -135.5t243 -49.5 q131 0 244.5 49.5t197.5 135.5t133 199.5t49 242.5t-49 242.5t-133 198.5t-197.5 134.5t-244.5 49.5q-129 0 -243 -49.5t-200 -134.5t-135 -198.5t-49 -242.5zM207 731q0 119 46 224.5t126 184.5t185.5 124t226.5 45q119 0 225 -45t185 -124t125 -184.5t46 -224.5 q0 -121 -46 -227.5t-125 -185t-185 -125t-225 -46.5q-121 0 -226.5 46.5t-185.5 125t-126 185t-46 227.5zM330 664l112 -177q346 -80 699 0l110 177h-921zM451 1063l151 -189q4 -4 15.5 -0.5t23.5 9.5t20.5 12t8.5 8q-29 57 -47.5 118.5t-53.5 111.5q-6 8 -26.5 -0.5 t-42 -22.5t-38 -28.5t-11.5 -18.5zM463 457q20 -35 51 -74t73 -70.5t92.5 -53t111.5 -21.5q59 0 110 21.5t92 53t73 70.5t52 74q-164 -43 -326.5 -42t-328.5 42zM715 731h155l-77 187zM918 903q-4 -2 4 -8t19 -12t23.5 -9.5t18.5 0.5l147 189q4 4 -11 18.5t-36.5 28.5 t-42 22.5t-26.5 0.5q-39 -49 -55.5 -110.5t-40.5 -119.5zM1290 102v23h84v-23h-31v-77h-22v77h-31zM1384 25v100h31l19 -78l18 78h29v-100h-19v77l-20 -77h-19l-20 77v-77h-19z" />
<glyph unicode="&#x203a;" d="M68 731q0 150 56 282t154.5 230t230.5 155.5t282 57.5t281.5 -57.5t230 -155.5t156 -230t57.5 -282t-57.5 -282t-156 -230t-230 -155.5t-281.5 -57.5t-282 57.5t-230.5 155.5t-154.5 230.5t-56 281.5zM164 731q0 -129 49 -242.5t135 -199.5t200 -135.5t243 -49.5 q131 0 244.5 49.5t197.5 135.5t133 199.5t49 242.5t-49 242.5t-133 198.5t-197.5 134.5t-244.5 49.5q-129 0 -243 -49.5t-200 -134.5t-135 -198.5t-49 -242.5zM207 731q0 119 46 224.5t126 184.5t185.5 124t226.5 45q119 0 225 -45t185 -124t125 -184.5t46 -224.5 q0 -121 -46 -227.5t-125 -185t-185 -125t-225 -46.5q-121 0 -226.5 46.5t-185.5 125t-126 185t-46 227.5zM330 664l112 -177q346 -80 699 0l110 177h-921zM451 1063l151 -189q4 -4 15.5 -0.5t23.5 9.5t20.5 12t8.5 8q-29 57 -47.5 118.5t-53.5 111.5q-6 8 -26.5 -0.5 t-42 -22.5t-38 -28.5t-11.5 -18.5zM463 457q20 -35 51 -74t73 -70.5t92.5 -53t111.5 -21.5q59 0 110 21.5t92 53t73 70.5t52 74q-164 -43 -326.5 -42t-328.5 42zM715 731h155l-77 187zM918 903q-4 -2 4 -8t19 -12t23.5 -9.5t18.5 0.5l147 189q4 4 -11 18.5t-36.5 28.5 t-42 22.5t-26.5 0.5q-39 -49 -55.5 -110.5t-40.5 -119.5zM1290 102v23h84v-23h-31v-77h-22v77h-31zM1384 25v100h31l19 -78l18 78h29v-100h-19v77l-20 -77h-19l-20 77v-77h-19z" />
<glyph unicode="&#x205f;" horiz-adv-x="366" />
<glyph unicode="&#x20ac;" d="M68 731q0 150 56 282t154.5 230t230.5 155.5t282 57.5t281.5 -57.5t230 -155.5t156 -230t57.5 -282t-57.5 -282t-156 -230t-230 -155.5t-281.5 -57.5t-282 57.5t-230.5 155.5t-154.5 230.5t-56 281.5zM164 731q0 -129 49 -242.5t135 -199.5t200 -135.5t243 -49.5 q131 0 244.5 49.5t197.5 135.5t133 199.5t49 242.5t-49 242.5t-133 198.5t-197.5 134.5t-244.5 49.5q-129 0 -243 -49.5t-200 -134.5t-135 -198.5t-49 -242.5zM207 731q0 119 46 224.5t126 184.5t185.5 124t226.5 45q119 0 225 -45t185 -124t125 -184.5t46 -224.5 q0 -121 -46 -227.5t-125 -185t-185 -125t-225 -46.5q-121 0 -226.5 46.5t-185.5 125t-126 185t-46 227.5zM330 664l112 -177q346 -80 699 0l110 177h-921zM451 1063l151 -189q4 -4 15.5 -0.5t23.5 9.5t20.5 12t8.5 8q-29 57 -47.5 118.5t-53.5 111.5q-6 8 -26.5 -0.5 t-42 -22.5t-38 -28.5t-11.5 -18.5zM463 457q20 -35 51 -74t73 -70.5t92.5 -53t111.5 -21.5q59 0 110 21.5t92 53t73 70.5t52 74q-164 -43 -326.5 -42t-328.5 42zM715 731h155l-77 187zM918 903q-4 -2 4 -8t19 -12t23.5 -9.5t18.5 0.5l147 189q4 4 -11 18.5t-36.5 28.5 t-42 22.5t-26.5 0.5q-39 -49 -55.5 -110.5t-40.5 -119.5zM1290 102v23h84v-23h-31v-77h-22v77h-31zM1384 25v100h31l19 -78l18 78h29v-100h-19v77l-20 -77h-19l-20 77v-77h-19z" />
<glyph unicode="&#x2122;" d="M68 731q0 150 56 282t154.5 230t230.5 155.5t282 57.5t281.5 -57.5t230 -155.5t156 -230t57.5 -282t-57.5 -282t-156 -230t-230 -155.5t-281.5 -57.5t-282 57.5t-230.5 155.5t-154.5 230.5t-56 281.5zM164 731q0 -129 49 -242.5t135 -199.5t200 -135.5t243 -49.5 q131 0 244.5 49.5t197.5 135.5t133 199.5t49 242.5t-49 242.5t-133 198.5t-197.5 134.5t-244.5 49.5q-129 0 -243 -49.5t-200 -134.5t-135 -198.5t-49 -242.5zM207 731q0 119 46 224.5t126 184.5t185.5 124t226.5 45q119 0 225 -45t185 -124t125 -184.5t46 -224.5 q0 -121 -46 -227.5t-125 -185t-185 -125t-225 -46.5q-121 0 -226.5 46.5t-185.5 125t-126 185t-46 227.5zM330 664l112 -177q346 -80 699 0l110 177h-921zM451 1063l151 -189q4 -4 15.5 -0.5t23.5 9.5t20.5 12t8.5 8q-29 57 -47.5 118.5t-53.5 111.5q-6 8 -26.5 -0.5 t-42 -22.5t-38 -28.5t-11.5 -18.5zM463 457q20 -35 51 -74t73 -70.5t92.5 -53t111.5 -21.5q59 0 110 21.5t92 53t73 70.5t52 74q-164 -43 -326.5 -42t-328.5 42zM715 731h155l-77 187zM918 903q-4 -2 4 -8t19 -12t23.5 -9.5t18.5 0.5l147 189q4 4 -11 18.5t-36.5 28.5 t-42 22.5t-26.5 0.5q-39 -49 -55.5 -110.5t-40.5 -119.5zM1290 102v23h84v-23h-31v-77h-22v77h-31zM1384 25v100h31l19 -78l18 78h29v-100h-19v77l-20 -77h-19l-20 77v-77h-19z" />
<glyph unicode="&#xe000;" horiz-adv-x="1454" d="M0 0v1454h1454v-1454h-1454z" />
</font>
</defs>
</svg>
